NotoSansMyanmar-Light.ufo
<glyph name="question" format="2">
  <advance width="413"/>
  <unicode hex="003F"/>
  <outline>
    <contour>
      <point x="144" y="224" type="line"/>
      <point x="169" y="224" type="line"/>
      <point x="169" y="228" type="line" smooth="yes"/>
      <point x="169" y="280"/>
      <point x="184" y="311"/>
      <point x="242" y="350" type="curve" smooth="yes"/>
      <point x="319" y="402"/>
      <point x="374" y="454"/>
      <point x="374" y="554" type="curve" smooth="yes"/>
      <point x="374" y="668"/>
      <point x="300" y="724"/>
      <point x="188" y="724" type="curve" smooth="yes"/>
      <point x="134" y="724"/>
      <point x="96" y="715"/>
      <point x="38" y="691" type="curve"/>
      <point x="48" y="665" type="line"/>
      <point x="96" y="689"/>
      <point x="139" y="699"/>
      <point x="188" y="699" type="curve" smooth="yes"/>
      <point x="281" y="699"/>
      <point x="347" y="654"/>
      <point x="347" y="554" type="curve" smooth="yes"/>
      <point x="347" y="463"/>
      <point x="302" y="422"/>
      <point x="229" y="371" type="curve" smooth="yes"/>
      <point x="154" y="319"/>
      <point x="144" y="278"/>
      <point x="144" y="229" type="curve" smooth="yes"/>
    </contour>
    <contour>
      <point x="159" y="-10" type="curve" smooth="yes"/>
      <point x="211" y="-10"/>
      <point x="250" y="24"/>
      <point x="250" y="83" type="curve" smooth="yes"/>
      <point x="250" y="140"/>
      <point x="211" y="174"/>
      <point x="159" y="174" type="curve" smooth="yes"/>
      <point x="106" y="174"/>
      <point x="69" y="134"/>
      <point x="69" y="82" type="curve" smooth="yes"/>
      <point x="69" y="26"/>
      <point x="105" y="-10"/>
    </contour>
    <contour>
      <point x="160" y="16" type="curve" smooth="yes"/>
      <point x="119" y="16"/>
      <point x="95" y="38"/>
      <point x="95" y="82" type="curve" smooth="yes"/>
      <point x="95" y="120"/>
      <point x="120" y="148"/>
      <point x="160" y="148" type="curve" smooth="yes"/>
      <point x="198" y="148"/>
      <point x="224" y="120"/>
      <point x="224" y="82" type="curve" smooth="yes"/>
      <point x="224" y="40"/>
      <point x="198" y="16"/>
    </contour>
  </outline>
</glyph>
<glyph name="ka" format="2">
  <advance width="1119"/>
  <unicode hex="1000"/>
  <note>
ka
</note>
  <outline>
    <contour>
      <point x="167" y="-10" type="curve"/>
      <point x="185" y="10" type="line"/>
      <point x="125" y="52"/>
      <point x="81" y="167"/>
      <point x="81" y="251" type="curve" smooth="yes"/>
      <point x="81" y="418"/>
      <point x="188" y="510"/>
      <point x="318" y="510" type="curve" smooth="yes"/>
      <point x="448" y="510"/>
      <point x="555" y="418"/>
      <point x="555" y="251" type="curve" smooth="yes"/>
      <point x="555" y="167"/>
      <point x="511" y="52"/>
      <point x="451" y="10" type="curve"/>
      <point x="469" y="-10" type="line"/>
      <point x="531" y="38"/>
      <point x="581" y="151"/>
      <point x="581" y="251" type="curve" smooth="yes"/>
      <point x="581" y="422"/>
      <point x="469" y="536"/>
      <point x="318" y="536" type="curve" smooth="yes"/>
      <point x="167" y="536"/>
      <point x="55" y="422"/>
      <point x="55" y="251" type="curve" smooth="yes"/>
      <point x="55" y="151"/>
      <point x="105" y="38"/>
    </contour>
    <contour>
      <point x="811" y="-8" type="curve" smooth="yes"/>
      <point x="961" y="-8"/>
      <point x="1063" y="90"/>
      <point x="1063" y="251" type="curve" smooth="yes"/>
      <point x="1063" y="412"/>
      <point x="972" y="536"/>
      <point x="811" y="536" type="curve" smooth="yes"/>
      <point x="692" y="536"/>
      <point x="610" y="477"/>
      <point x="549" y="374" type="curve"/>
      <point x="561" y="345" type="line"/>
      <point x="639" y="471"/>
      <point x="707" y="510"/>
      <point x="811" y="510" type="curve" smooth="yes"/>
      <point x="962" y="510"/>
      <point x="1037" y="396"/>
      <point x="1037" y="251" type="curve" smooth="yes"/>
      <point x="1037" y="103"/>
      <point x="946" y="18"/>
      <point x="811" y="18" type="curve" smooth="yes"/>
      <point x="768" y="18"/>
      <point x="719" y="22"/>
      <point x="685" y="35" type="curve"/>
      <point x="671" y="12" type="line"/>
      <point x="712" y="-3"/>
      <point x="736" y="-8"/>
    </contour>
  </outline>
</glyph>
<glyph name="ga" format="2">
  <advance width="628"/>
  <unicode hex="1002"/>
  <note>
ga
</note>
  <outline>
    <contour>
      <point x="167" y="-10" type="curve"/>
      <point x="185" y="10" type="line"/>
      <point x="125" y="52"/>
      <point x="81" y="167"/>
      <point x="81" y="251" type="curve" smooth="yes"/>
      <point x="81" y="418"/>
      <point x="188" y="510"/>
      <point x="318" y="510" type="curve" smooth="yes"/>
      <point x="444" y="510"/>
      <point x="547" y="422"/>
      <point x="547" y="261" type="curve" smooth="yes"/>
      <point x="547" y="177"/>
      <point x="503" y="54"/>
      <point x="443" y="10" type="curve"/>
      <point x="461" y="-10" type="line"/>
      <point x="523" y="40"/>
      <point x="573" y="161"/>
      <point x="573" y="261" type="curve" smooth="yes"/>
      <point x="573" y="426"/>
      <point x="464" y="536"/>
      <point x="318" y="536" type="curve" smooth="yes"/>
      <point x="167" y="536"/>
      <point x="55" y="422"/>
      <point x="55" y="251" type="curve" smooth="yes"/>
      <point x="55" y="151"/>
      <point x="105" y="38"/>
    </contour>
  </outline>
</glyph>
<glyph name="gha" format="2">
  <advance width="1123"/>
  <unicode hex="1003"/>
  <note>
gha
</note>
  <outline>
    <contour>
      <point x="323" y="-10" type="curve" smooth="yes"/>
      <point x="474" y="-10"/>
      <point x="586" y="104"/>
      <point x="586" y="275" type="curve" smooth="yes"/>
      <point x="586" y="387"/>
      <point x="536" y="479"/>
      <point x="474" y="536" type="curve"/>
      <point x="456" y="516" type="line"/>
      <point x="516" y="465"/>
      <point x="560" y="371"/>
      <point x="560" y="275" type="curve" smooth="yes"/>
      <point x="560" y="110"/>
      <point x="453" y="16"/>
      <point x="323" y="16" type="curve" smooth="yes"/>
      <point x="180" y="16"/>
      <point x="97" y="93"/>
      <point x="97" y="204" type="curve" smooth="yes"/>
      <point x="97" y="276"/>
      <point x="125" y="313"/>
      <point x="176" y="361" type="curve" smooth="yes"/>
      <point x="219" y="401"/>
      <point x="230" y="425"/>
      <point x="230" y="460" type="curve" smooth="yes"/>
      <point x="230" y="501"/>
      <point x="199" y="534"/>
      <point x="152" y="534" type="curve" smooth="yes"/>
      <point x="111" y="534"/>
      <point x="84" y="513"/>
      <point x="65" y="489" type="curve"/>
      <point x="84" y="471" type="line"/>
      <point x="99" y="493"/>
      <point x="124" y="508"/>
      <point x="152" y="508" type="curve" smooth="yes"/>
      <point x="186" y="508"/>
      <point x="204" y="488"/>
      <point x="204" y="460" type="curve" smooth="yes"/>
      <point x="204" y="434"/>
      <point x="194" y="411"/>
      <point x="160" y="381" type="curve" smooth="yes"/>
      <point x="102" y="329"/>
      <point x="71" y="280"/>
      <point x="71" y="204" type="curve" smooth="yes"/>
      <point x="71" y="81"/>
      <point x="166" y="-10"/>
    </contour>
    <contour>
      <point x="816" y="-8" type="curve" smooth="yes"/>
      <point x="977" y="-8"/>
      <point x="1068" y="116"/>
      <point x="1068" y="277" type="curve" smooth="yes"/>
      <point x="1068" y="438"/>
      <point x="966" y="536"/>
      <point x="816" y="536" type="curve" smooth="yes"/>
      <point x="759" y="536"/>
      <point x="717" y="531"/>
      <point x="676" y="516" type="curve"/>
      <point x="690" y="493" type="line"/>
      <point x="724" y="506"/>
      <point x="773" y="510"/>
      <point x="816" y="510" type="curve" smooth="yes"/>
      <point x="951" y="510"/>
      <point x="1042" y="425"/>
      <point x="1042" y="277" type="curve" smooth="yes"/>
      <point x="1042" y="132"/>
      <point x="967" y="18"/>
      <point x="816" y="18" type="curve" smooth="yes"/>
      <point x="717" y="18"/>
      <point x="644" y="57"/>
      <point x="566" y="183" type="curve"/>
      <point x="554" y="154" type="line"/>
      <point x="615" y="51"/>
      <point x="702" y="-8"/>
    </contour>
  </outline>
</glyph>
<glyph name="nga" format="2">
  <advance width="618"/>
  <unicode hex="1004"/>
  <note>
nga
</note>
  <outline>
    <contour>
      <point x="310" y="-10" type="curve" smooth="yes"/>
      <point x="431" y="-10"/>
      <point x="521" y="57"/>
      <point x="557" y="159" type="curve"/>
      <point x="533" y="170" type="line"/>
      <point x="501" y="75"/>
      <point x="419" y="16"/>
      <point x="310" y="16" type="curve" smooth="yes"/>
      <point x="179" y="16"/>
      <point x="81" y="109"/>
      <point x="81" y="261" type="curve" smooth="yes"/>
      <point x="81" y="396"/>
      <point x="161" y="510"/>
      <point x="310" y="510" type="curve" smooth="yes"/>
      <point x="419" y="510"/>
      <point x="496" y="451"/>
      <point x="529" y="364" type="curve"/>
      <point x="553" y="374" type="line"/>
      <point x="515" y="469"/>
      <point x="429" y="536"/>
      <point x="310" y="536" type="curve" smooth="yes"/>
      <point x="146" y="536"/>
      <point x="55" y="408"/>
      <point x="55" y="261" type="curve" smooth="yes"/>
      <point x="55" y="111"/>
      <point x="150" y="-10"/>
    </contour>
  </outline>
</glyph>
<glyph name="ca" format="2">
  <advance width="629"/>
  <unicode hex="1005"/>
  <note>
ca
</note>
  <outline>
    <contour>
      <point x="310" y="-10" type="curve" smooth="yes"/>
      <point x="467" y="-10"/>
      <point x="573" y="103"/>
      <point x="573" y="261" type="curve" smooth="yes"/>
      <point x="573" y="413"/>
      <point x="472" y="536"/>
      <point x="310" y="536" type="curve" smooth="yes"/>
      <point x="146" y="536"/>
      <point x="55" y="408"/>
      <point x="55" y="261" type="curve" smooth="yes"/>
      <point x="55" y="111"/>
      <point x="150" y="-10"/>
    </contour>
    <contour>
      <point x="155" y="51" type="line"/>
      <point x="219" y="91"/>
      <point x="267" y="168"/>
      <point x="267" y="258" type="curve" smooth="yes"/>
      <point x="267" y="347"/>
      <point x="226" y="424"/>
      <point x="150" y="472" type="curve"/>
      <point x="132" y="452" type="line"/>
      <point x="198" y="409"/>
      <point x="241" y="338"/>
      <point x="241" y="258" type="curve" smooth="yes"/>
      <point x="241" y="175"/>
      <point x="201" y="107"/>
      <point x="137" y="69" type="curve"/>
    </contour>
    <contour>
      <point x="310" y="16" type="curve" smooth="yes"/>
      <point x="179" y="16"/>
      <point x="81" y="109"/>
      <point x="81" y="261" type="curve" smooth="yes"/>
      <point x="81" y="396"/>
      <point x="161" y="510"/>
      <point x="310" y="510" type="curve" smooth="yes"/>
      <point x="458" y="510"/>
      <point x="547" y="401"/>
      <point x="547" y="261" type="curve" smooth="yes"/>
      <point x="547" y="114"/>
      <point x="450" y="16"/>
    </contour>
  </outline>
</glyph>
<glyph name="ja" format="2">
  <advance width="649"/>
  <unicode hex="1007"/>
  <note>
ja
</note>
  <outline>
    <contour>
      <point x="310" y="-10" type="curve" smooth="yes"/>
      <point x="408" y="-10"/>
      <point x="486" y="34"/>
      <point x="531" y="105" type="curve"/>
      <point x="509" y="120" type="line"/>
      <point x="469" y="55"/>
      <point x="398" y="16"/>
      <point x="310" y="16" type="curve" smooth="yes"/>
      <point x="179" y="16"/>
      <point x="81" y="109"/>
      <point x="81" y="261" type="curve" smooth="yes"/>
      <point x="81" y="396"/>
      <point x="161" y="510"/>
      <point x="328" y="510" type="curve" smooth="yes"/>
      <point x="343" y="510"/>
      <point x="365" y="510"/>
      <point x="388" y="508" type="curve"/>
      <point x="386" y="512" type="line"/>
      <point x="340" y="494"/>
      <point x="303" y="452"/>
      <point x="303" y="394" type="curve" smooth="yes"/>
      <point x="303" y="332"/>
      <point x="348" y="272"/>
      <point x="427" y="272" type="curve" smooth="yes"/>
      <point x="467" y="272"/>
      <point x="515" y="287"/>
      <point x="536" y="329" type="curve"/>
      <point x="532" y="326" type="line"/>
      <point x="532" y="219"/>
      <point x="552" y="175"/>
      <point x="637" y="175" type="curve" smooth="yes"/>
      <point x="642" y="175" type="line"/>
      <point x="642" y="201" type="line"/>
      <point x="572" y="201"/>
      <point x="558" y="228"/>
      <point x="558" y="316" type="curve" smooth="yes"/>
      <point x="558" y="336"/>
      <point x="558" y="353"/>
      <point x="558" y="381" type="curve" smooth="yes"/>
      <point x="558" y="487"/>
      <point x="516" y="536"/>
      <point x="330" y="536" type="curve" smooth="yes"/>
      <point x="146" y="536"/>
      <point x="55" y="408"/>
      <point x="55" y="261" type="curve" smooth="yes"/>
      <point x="55" y="111"/>
      <point x="150" y="-10"/>
    </contour>
    <contour>
      <point x="429" y="298" type="curve" smooth="yes"/>
      <point x="359" y="298"/>
      <point x="329" y="343"/>
      <point x="329" y="394" type="curve" smooth="yes"/>
      <point x="329" y="450"/>
      <point x="373" y="499"/>
      <point x="435" y="499" type="curve" smooth="yes"/>
      <point x="500" y="499"/>
      <point x="532" y="455"/>
      <point x="532" y="386" type="curve" smooth="yes"/>
      <point x="532" y="339"/>
      <point x="485" y="298"/>
    </contour>
  </outline>
</glyph>
<glyph name="jha" format="2">
  <advance width="771"/>
  <unicode hex="1008"/>
  <note>
jha
</note>
  <outline>
    <contour>
      <point x="567" y="-458" type="curve" smooth="yes"/>
      <point x="670" y="-458"/>
      <point x="706" y="-387"/>
      <point x="706" y="-204" type="curve" smooth="yes"/>
      <point x="706" y="524" type="line"/>
      <point x="680" y="524" type="line"/>
      <point x="680" y="-204" type="line" smooth="yes"/>
      <point x="680" y="-364"/>
      <point x="656" y="-432"/>
      <point x="567" y="-432" type="curve" smooth="yes"/>
      <point x="483" y="-432"/>
      <point x="449" y="-378"/>
      <point x="449" y="-204" type="curve" smooth="yes"/>
      <point x="449" y="37" type="line"/>
      <point x="423" y="24" type="line"/>
      <point x="423" y="-204" type="line" smooth="yes"/>
      <point x="423" y="-392"/>
      <point x="468" y="-458"/>
    </contour>
    <contour>
      <point x="320" y="-10" type="curve" smooth="yes"/>
      <point x="471" y="-10"/>
      <point x="573" y="103"/>
      <point x="573" y="261" type="curve" smooth="yes"/>
      <point x="573" y="413"/>
      <point x="476" y="536"/>
      <point x="320" y="536" type="curve" smooth="yes"/>
      <point x="156" y="536"/>
      <point x="65" y="408"/>
      <point x="65" y="261" type="curve" smooth="yes"/>
      <point x="65" y="111"/>
      <point x="160" y="-10"/>
    </contour>
    <contour>
      <point x="320" y="16" type="curve" smooth="yes"/>
      <point x="189" y="16"/>
      <point x="91" y="109"/>
      <point x="91" y="261" type="curve" smooth="yes"/>
      <point x="91" y="396"/>
      <point x="171" y="510"/>
      <point x="320" y="510" type="curve" smooth="yes"/>
      <point x="462" y="510"/>
      <point x="547" y="401"/>
      <point x="547" y="261" type="curve" smooth="yes"/>
      <point x="547" y="114"/>
      <point x="454" y="16"/>
    </contour>
    <contour>
      <point x="165" y="51" type="line"/>
      <point x="229" y="91"/>
      <point x="277" y="168"/>
      <point x="277" y="258" type="curve" smooth="yes"/>
      <point x="277" y="347"/>
      <point x="228" y="424"/>
      <point x="160" y="472" type="curve"/>
      <point x="142" y="452" type="line"/>
      <point x="208" y="409"/>
      <point x="251" y="338"/>
      <point x="251" y="258" type="curve" smooth="yes"/>
      <point x="251" y="175"/>
      <point x="211" y="107"/>
      <point x="147" y="69" type="curve"/>
    </contour>
  </outline>
</glyph>
<glyph name="nya" format="2">
  <advance width="622"/>
  <unicode hex="1009"/>
  <note>
nya
</note>
  <outline>
    <contour>
      <point x="273" y="-468" type="curve" smooth="yes"/>
      <point x="864" y="-468" type="line" smooth="yes"/>
      <point x="989" y="-468"/>
      <point x="1053" y="-400"/>
      <point x="1053" y="-266" type="curve" smooth="yes"/>
      <point x="1053" y="-253" type="line"/>
      <point x="1027" y="-253" type="line"/>
      <point x="1027" y="-266" type="line" smooth="yes"/>
      <point x="1027" y="-387"/>
      <point x="976" y="-442"/>
      <point x="864" y="-442" type="curve" smooth="yes"/>
      <point x="273" y="-442" type="line" smooth="yes"/>
      <point x="155" y="-442"/>
      <point x="111" y="-381"/>
      <point x="111" y="-258" type="curve" smooth="yes"/>
      <point x="111" y="134" type="line"/>
      <point x="85" y="160" type="line"/>
      <point x="85" y="-258" type="line" smooth="yes"/>
      <point x="85" y="-399"/>
      <point x="144" y="-468"/>
    </contour>
    <contour>
      <point x="331" y="-10" type="curve" smooth="yes"/>
      <point x="483" y="-10"/>
      <point x="572" y="111"/>
      <point x="572" y="261" type="curve" smooth="yes"/>
      <point x="572" y="408"/>
      <point x="487" y="536"/>
      <point x="325" y="536" type="curve" smooth="yes"/>
      <point x="211" y="536"/>
      <point x="123" y="469"/>
      <point x="84" y="374" type="curve"/>
      <point x="108" y="364" type="line"/>
      <point x="142" y="451"/>
      <point x="221" y="510"/>
      <point x="325" y="510" type="curve" smooth="yes"/>
      <point x="472" y="510"/>
      <point x="546" y="396"/>
      <point x="546" y="261" type="curve" smooth="yes"/>
      <point x="546" y="109"/>
      <point x="455" y="16"/>
      <point x="331" y="16" type="curve" smooth="yes"/>
      <point x="223" y="16"/>
      <point x="141" y="75"/>
      <point x="109" y="171" type="curve"/>
      <point x="85" y="160" type="line"/>
      <point x="121" y="57"/>
      <point x="211" y="-10"/>
    </contour>
  </outline>
</glyph>
<glyph name="nnya" format="2">
  <advance width="1122"/>
  <unicode hex="100A"/>
  <note>
nnya
</note>
  <outline>
    <contour>
      <point x="283" y="-468" type="curve" smooth="yes"/>
      <point x="874" y="-468" type="line" smooth="yes"/>
      <point x="999" y="-468"/>
      <point x="1063" y="-400"/>
      <point x="1063" y="-266" type="curve" smooth="yes"/>
      <point x="1063" y="-253" type="line"/>
      <point x="1037" y="-253" type="line"/>
      <point x="1037" y="-266" type="line" smooth="yes"/>
      <point x="1037" y="-387"/>
      <point x="986" y="-442"/>
      <point x="874" y="-442" type="curve" smooth="yes"/>
      <point x="283" y="-442" type="line" smooth="yes"/>
      <point x="165" y="-442"/>
      <point x="121" y="-381"/>
      <point x="121" y="-258" type="curve" smooth="yes"/>
      <point x="121" y="134" type="line"/>
      <point x="95" y="160" type="line"/>
      <point x="95" y="-258" type="line" smooth="yes"/>
      <point x="95" y="-399"/>
      <point x="154" y="-468"/>
    </contour>
    <contour>
      <point x="351" y="-10" type="curve" smooth="yes"/>
      <point x="503" y="-10"/>
      <point x="592" y="111"/>
      <point x="592" y="261" type="curve" smooth="yes"/>
      <point x="592" y="408"/>
      <point x="507" y="536"/>
      <point x="345" y="536" type="curve" smooth="yes"/>
      <point x="226" y="536"/>
      <point x="135" y="469"/>
      <point x="94" y="374" type="curve"/>
      <point x="118" y="364" type="line"/>
      <point x="154" y="451"/>
      <point x="236" y="510"/>
      <point x="345" y="510" type="curve" smooth="yes"/>
      <point x="492" y="510"/>
      <point x="566" y="396"/>
      <point x="566" y="261" type="curve" smooth="yes"/>
      <point x="566" y="109"/>
      <point x="475" y="16"/>
      <point x="351" y="16" type="curve" smooth="yes"/>
      <point x="238" y="16"/>
      <point x="152" y="75"/>
      <point x="119" y="171" type="curve"/>
      <point x="95" y="160" type="line"/>
      <point x="132" y="57"/>
      <point x="226" y="-10"/>
    </contour>
    <contour>
      <point x="815" y="-8" type="curve" smooth="yes"/>
      <point x="976" y="-8"/>
      <point x="1067" y="116"/>
      <point x="1067" y="277" type="curve" smooth="yes"/>
      <point x="1067" y="438"/>
      <point x="965" y="536"/>
      <point x="815" y="536" type="curve" smooth="yes"/>
      <point x="758" y="536"/>
      <point x="716" y="531"/>
      <point x="675" y="516" type="curve"/>
      <point x="689" y="493" type="line"/>
      <point x="723" y="506"/>
      <point x="772" y="510"/>
      <point x="815" y="510" type="curve" smooth="yes"/>
      <point x="950" y="510"/>
      <point x="1041" y="425"/>
      <point x="1041" y="277" type="curve" smooth="yes"/>
      <point x="1041" y="132"/>
      <point x="966" y="18"/>
      <point x="815" y="18" type="curve" smooth="yes"/>
      <point x="716" y="18"/>
      <point x="643" y="57"/>
      <point x="565" y="183" type="curve"/>
      <point x="553" y="154" type="line"/>
      <point x="614" y="51"/>
      <point x="701" y="-8"/>
    </contour>
  </outline>
</glyph>
<glyph name="tta" format="2">
  <advance width="622"/>
  <unicode hex="100B"/>
  <note>
tta
</note>
  <outline>
    <contour>
      <point x="516" y="-468" type="line"/>
      <point x="697" y="-468" type="line"/>
      <point x="697" y="-442" type="line"/>
      <point x="542" y="-442" type="line"/>
      <point x="542" y="-204" type="line"/>
      <point x="470" y="-244"/>
      <point x="400" y="-265"/>
      <point x="319" y="-265" type="curve" smooth="yes"/>
      <point x="237" y="-265"/>
      <point x="171" y="-252"/>
      <point x="107" y="-229" type="curve"/>
      <point x="107" y="-106" type="line"/>
      <point x="173" y="-140"/>
      <point x="246" y="-157"/>
      <point x="319" y="-157" type="curve" smooth="yes"/>
      <point x="403" y="-157"/>
      <point x="482" y="-121"/>
      <point x="542" y="-69" type="curve"/>
      <point x="542" y="159" type="line"/>
      <point x="516" y="121" type="line"/>
      <point x="516" y="-58" type="line"/>
      <point x="467" y="-95"/>
      <point x="394" y="-131"/>
      <point x="319" y="-131" type="curve" smooth="yes"/>
      <point x="245" y="-131"/>
      <point x="157" y="-111"/>
      <point x="81" y="-61" type="curve"/>
      <point x="81" y="-248" type="line"/>
      <point x="154" y="-274"/>
      <point x="233" y="-291"/>
      <point x="319" y="-291" type="curve" smooth="yes"/>
      <point x="389" y="-291"/>
      <point x="460" y="-272"/>
      <point x="516" y="-245" type="curve"/>
    </contour>
    <contour>
      <point x="303" y="-10" type="curve" smooth="yes"/>
      <point x="420" y="-10"/>
      <point x="507" y="57"/>
      <point x="542" y="159" type="curve"/>
      <point x="518" y="170" type="line"/>
      <point x="487" y="75"/>
      <point x="408" y="16"/>
      <point x="303" y="16" type="curve" smooth="yes"/>
      <point x="176" y="16"/>
      <point x="81" y="109"/>
      <point x="81" y="261" type="curve" smooth="yes"/>
      <point x="81" y="396"/>
      <point x="159" y="510"/>
      <point x="303" y="510" type="curve" smooth="yes"/>
      <point x="408" y="510"/>
      <point x="482" y="451"/>
      <point x="514" y="364" type="curve"/>
      <point x="538" y="374" type="line"/>
      <point x="501" y="469"/>
      <point x="418" y="536"/>
      <point x="303" y="536" type="curve" smooth="yes"/>
      <point x="144" y="536"/>
      <point x="55" y="408"/>
      <point x="55" y="261" type="curve" smooth="yes"/>
      <point x="55" y="111"/>
      <point x="148" y="-10"/>
    </contour>
  </outline>
</glyph>
<glyph name="ttha" format="2">
  <advance width="628"/>
  <unicode hex="100C"/>
  <note>
ttha
</note>
  <outline>
    <contour>
      <point x="243" y="-467" type="curve" smooth="yes"/>
      <point x="353" y="-467" type="line" smooth="yes"/>
      <point x="477" y="-467"/>
      <point x="543" y="-406"/>
      <point x="543" y="-271" type="curve" smooth="yes"/>
      <point x="543" y="159" type="line"/>
      <point x="517" y="116" type="line"/>
      <point x="517" y="-271" type="line" smooth="yes"/>
      <point x="517" y="-384"/>
      <point x="461" y="-441"/>
      <point x="353" y="-441" type="curve" smooth="yes"/>
      <point x="243" y="-441" type="line" smooth="yes"/>
      <point x="136" y="-441"/>
      <point x="82" y="-406"/>
      <point x="82" y="-326" type="curve" smooth="yes"/>
      <point x="82" y="-262"/>
      <point x="121" y="-218"/>
      <point x="181" y="-218" type="curve" smooth="yes"/>
      <point x="234" y="-218"/>
      <point x="262" y="-238"/>
      <point x="290" y="-267" type="curve"/>
      <point x="309" y="-248" type="line"/>
      <point x="270" y="-213"/>
      <point x="241" y="-192"/>
      <point x="181" y="-192" type="curve" smooth="yes"/>
      <point x="110" y="-192"/>
      <point x="56" y="-245"/>
      <point x="56" y="-326" type="curve" smooth="yes"/>
      <point x="56" y="-420"/>
      <point x="121" y="-467"/>
    </contour>
    <contour>
      <point x="304" y="-10" type="curve" smooth="yes"/>
      <point x="421" y="-10"/>
      <point x="508" y="57"/>
      <point x="543" y="159" type="curve"/>
      <point x="519" y="170" type="line"/>
      <point x="488" y="75"/>
      <point x="409" y="16"/>
      <point x="304" y="16" type="curve" smooth="yes"/>
      <point x="177" y="16"/>
      <point x="82" y="109"/>
      <point x="82" y="261" type="curve" smooth="yes"/>
      <point x="82" y="396"/>
      <point x="160" y="510"/>
      <point x="304" y="510" type="curve" smooth="yes"/>
      <point x="409" y="510"/>
      <point x="483" y="451"/>
      <point x="515" y="364" type="curve"/>
      <point x="539" y="374" type="line"/>
      <point x="502" y="469"/>
      <point x="419" y="536"/>
      <point x="304" y="536" type="curve" smooth="yes"/>
      <point x="145" y="536"/>
      <point x="56" y="408"/>
      <point x="56" y="261" type="curve" smooth="yes"/>
      <point x="56" y="111"/>
      <point x="149" y="-10"/>
    </contour>
  </outline>
</glyph>
<glyph name="dda" format="2">
  <advance width="630"/>
  <unicode hex="100D"/>
  <note>
dda
</note>
  <outline>
    <contour>
      <point x="513" y="-468" type="line"/>
      <point x="691" y="-468" type="line"/>
      <point x="691" y="-442" type="line"/>
      <point x="539" y="-442" type="line"/>
      <point x="539" y="-66" type="line"/>
      <point x="466" y="-110"/>
      <point x="386" y="-128"/>
      <point x="317" y="-128" type="curve" smooth="yes"/>
      <point x="233" y="-128"/>
      <point x="160" y="-92"/>
      <point x="111" y="-55" type="curve"/>
      <point x="111" y="124" type="line"/>
      <point x="85" y="162" type="line"/>
      <point x="85" y="-66" type="line"/>
      <point x="145" y="-118"/>
      <point x="224" y="-154"/>
      <point x="317" y="-154" type="curve" smooth="yes"/>
      <point x="386" y="-154"/>
      <point x="449" y="-138"/>
      <point x="513" y="-107" type="curve"/>
    </contour>
    <contour>
      <point x="324" y="-7" type="curve" smooth="yes"/>
      <point x="479" y="-7"/>
      <point x="572" y="114"/>
      <point x="572" y="264" type="curve" smooth="yes"/>
      <point x="572" y="411"/>
      <point x="483" y="539"/>
      <point x="324" y="539" type="curve" smooth="yes"/>
      <point x="209" y="539"/>
      <point x="126" y="472"/>
      <point x="89" y="377" type="curve"/>
      <point x="113" y="367" type="line"/>
      <point x="145" y="454"/>
      <point x="219" y="513"/>
      <point x="324" y="513" type="curve" smooth="yes"/>
      <point x="468" y="513"/>
      <point x="546" y="399"/>
      <point x="546" y="264" type="curve" smooth="yes"/>
      <point x="546" y="112"/>
      <point x="451" y="19"/>
      <point x="324" y="19" type="curve" smooth="yes"/>
      <point x="219" y="19"/>
      <point x="140" y="78"/>
      <point x="109" y="173" type="curve"/>
      <point x="85" y="162" type="line"/>
      <point x="120" y="60"/>
      <point x="207" y="-7"/>
    </contour>
  </outline>
</glyph>
<glyph name="ddha" format="2">
  <advance width="630"/>
  <unicode hex="100E"/>
  <note>
ddha
</note>
  <outline>
    <contour>
      <point x="311" y="-10" type="curve" smooth="yes"/>
      <point x="462" y="-10"/>
      <point x="574" y="104"/>
      <point x="574" y="275" type="curve" smooth="yes"/>
      <point x="574" y="387"/>
      <point x="524" y="479"/>
      <point x="462" y="536" type="curve"/>
      <point x="444" y="516" type="line"/>
      <point x="504" y="465"/>
      <point x="548" y="371"/>
      <point x="548" y="275" type="curve" smooth="yes"/>
      <point x="548" y="110"/>
      <point x="441" y="16"/>
      <point x="311" y="16" type="curve" smooth="yes"/>
      <point x="168" y="16"/>
      <point x="85" y="93"/>
      <point x="85" y="204" type="curve" smooth="yes"/>
      <point x="85" y="276"/>
      <point x="112" y="314"/>
      <point x="164" y="361" type="curve" smooth="yes"/>
      <point x="208" y="400"/>
      <point x="218" y="425"/>
      <point x="218" y="460" type="curve" smooth="yes"/>
      <point x="218" y="501"/>
      <point x="187" y="534"/>
      <point x="140" y="534" type="curve" smooth="yes"/>
      <point x="99" y="534"/>
      <point x="72" y="513"/>
      <point x="53" y="489" type="curve"/>
      <point x="72" y="471" type="line"/>
      <point x="87" y="493"/>
      <point x="112" y="508"/>
      <point x="140" y="508" type="curve" smooth="yes"/>
      <point x="174" y="508"/>
      <point x="192" y="488"/>
      <point x="192" y="460" type="curve" smooth="yes"/>
      <point x="192" y="434"/>
      <point x="183" y="410"/>
      <point x="148" y="381" type="curve" smooth="yes"/>
      <point x="91" y="334"/>
      <point x="59" y="280"/>
      <point x="59" y="204" type="curve" smooth="yes"/>
      <point x="59" y="81"/>
      <point x="154" y="-10"/>
    </contour>
  </outline>
</glyph>
<glyph name="nna" format="2">
  <advance width="1132"/>
  <unicode hex="100F"/>
  <note>
nna
</note>
  <outline>
    <contour>
      <point x="566" y="-12" type="curve" smooth="yes"/>
      <point x="653" y="-12"/>
      <point x="688" y="34"/>
      <point x="688" y="93" type="curve" smooth="yes"/>
      <point x="688" y="175"/>
      <point x="649" y="202"/>
      <point x="649" y="297" type="curve" smooth="yes"/>
      <point x="649" y="421"/>
      <point x="700" y="510"/>
      <point x="840" y="510" type="curve" smooth="yes"/>
      <point x="982" y="510"/>
      <point x="1051" y="399"/>
      <point x="1051" y="262" type="curve" smooth="yes"/>
      <point x="1051" y="114"/>
      <point x="954" y="15"/>
      <point x="831" y="15" type="curve" smooth="yes"/>
      <point x="810" y="15"/>
      <point x="795" y="16"/>
      <point x="780" y="18" type="curve"/>
      <point x="774" y="-8" type="line"/>
      <point x="794" y="-10"/>
      <point x="811" y="-11"/>
      <point x="831" y="-11" type="curve" smooth="yes"/>
      <point x="967" y="-11"/>
      <point x="1077" y="101"/>
      <point x="1077" y="262" type="curve" smooth="yes"/>
      <point x="1077" y="415"/>
      <point x="996" y="536"/>
      <point x="840" y="536" type="curve" smooth="yes"/>
      <point x="687" y="536"/>
      <point x="624" y="437"/>
      <point x="624" y="296" type="curve" smooth="yes"/>
      <point x="624" y="183"/>
      <point x="662" y="171"/>
      <point x="662" y="93" type="curve" smooth="yes"/>
      <point x="662" y="49"/>
      <point x="636" y="11"/>
      <point x="566" y="11" type="curve" smooth="yes"/>
      <point x="496" y="11"/>
      <point x="470" y="49"/>
      <point x="470" y="93" type="curve" smooth="yes"/>
      <point x="470" y="171"/>
      <point x="508" y="183"/>
      <point x="508" y="296" type="curve" smooth="yes"/>
      <point x="508" y="437"/>
      <point x="445" y="536"/>
      <point x="292" y="536" type="curve" smooth="yes"/>
      <point x="136" y="536"/>
      <point x="55" y="415"/>
      <point x="55" y="262" type="curve" smooth="yes"/>
      <point x="55" y="101"/>
      <point x="165" y="-11"/>
      <point x="301" y="-11" type="curve" smooth="yes"/>
      <point x="321" y="-11"/>
      <point x="338" y="-10"/>
      <point x="358" y="-8" type="curve"/>
      <point x="352" y="18" type="line"/>
      <point x="335" y="16"/>
      <point x="322" y="15"/>
      <point x="301" y="15" type="curve" smooth="yes"/>
      <point x="180" y="15"/>
      <point x="81" y="114"/>
      <point x="81" y="262" type="curve" smooth="yes"/>
      <point x="81" y="399"/>
      <point x="150" y="510"/>
      <point x="292" y="510" type="curve" smooth="yes"/>
      <point x="432" y="510"/>
      <point x="483" y="421"/>
      <point x="483" y="297" type="curve" smooth="yes"/>
      <point x="483" y="202"/>
      <point x="444" y="175"/>
      <point x="444" y="93" type="curve" smooth="yes"/>
      <point x="444" y="34"/>
      <point x="479" y="-12"/>
    </contour>
    <contour>
      <point x="455" y="451" type="line"/>
      <point x="487" y="481"/>
      <point x="510" y="510"/>
      <point x="566" y="510" type="curve" smooth="yes"/>
      <point x="622" y="510"/>
      <point x="645" y="481"/>
      <point x="677" y="451" type="curve"/>
      <point x="693" y="469" type="line"/>
      <point x="665" y="499"/>
      <point x="636" y="536"/>
      <point x="566" y="536" type="curve" smooth="yes"/>
      <point x="496" y="536"/>
      <point x="467" y="499"/>
      <point x="439" y="469" type="curve"/>
    </contour>
  </outline>
</glyph>
<glyph name="ta" format="2">
  <advance width="1118"/>
  <unicode hex="1010"/>
  <note>
ta
</note>
  <outline>
    <contour>
      <point x="310" y="-10" type="curve" smooth="yes"/>
      <point x="467" y="-10"/>
      <point x="573" y="103"/>
      <point x="573" y="261" type="curve" smooth="yes"/>
      <point x="573" y="413"/>
      <point x="472" y="536"/>
      <point x="310" y="536" type="curve" smooth="yes"/>
      <point x="146" y="536"/>
      <point x="55" y="408"/>
      <point x="55" y="261" type="curve" smooth="yes"/>
      <point x="55" y="111"/>
      <point x="150" y="-10"/>
    </contour>
    <contour>
      <point x="310" y="16" type="curve" smooth="yes"/>
      <point x="179" y="16"/>
      <point x="81" y="109"/>
      <point x="81" y="261" type="curve" smooth="yes"/>
      <point x="81" y="396"/>
      <point x="161" y="510"/>
      <point x="310" y="510" type="curve" smooth="yes"/>
      <point x="458" y="510"/>
      <point x="547" y="401"/>
      <point x="547" y="261" type="curve" smooth="yes"/>
      <point x="547" y="114"/>
      <point x="450" y="16"/>
    </contour>
    <contour>
      <point x="811" y="-8" type="curve" smooth="yes"/>
      <point x="961" y="-8"/>
      <point x="1063" y="90"/>
      <point x="1063" y="251" type="curve" smooth="yes"/>
      <point x="1063" y="412"/>
      <point x="972" y="536"/>
      <point x="811" y="536" type="curve" smooth="yes"/>
      <point x="697" y="536"/>
      <point x="610" y="477"/>
      <point x="549" y="374" type="curve"/>
      <point x="561" y="345" type="line"/>
      <point x="639" y="471"/>
      <point x="712" y="510"/>
      <point x="811" y="510" type="curve" smooth="yes"/>
      <point x="962" y="510"/>
      <point x="1037" y="396"/>
      <point x="1037" y="251" type="curve" smooth="yes"/>
      <point x="1037" y="103"/>
      <point x="946" y="18"/>
      <point x="811" y="18" type="curve" smooth="yes"/>
      <point x="768" y="18"/>
      <point x="719" y="22"/>
      <point x="685" y="35" type="curve"/>
      <point x="671" y="12" type="line"/>
      <point x="712" y="-3"/>
      <point x="754" y="-8"/>
    </contour>
  </outline>
</glyph>
<glyph name="da" format="2">
  <advance width="614"/>
  <unicode hex="1012"/>
  <note>
da
</note>
  <outline>
    <contour>
      <point x="309" y="-10" type="curve" smooth="yes"/>
      <point x="473" y="-10"/>
      <point x="561" y="49"/>
      <point x="561" y="152" type="curve" smooth="yes"/>
      <point x="561" y="218"/>
      <point x="516" y="263"/>
      <point x="439" y="280" type="curve"/>
      <point x="439" y="282" type="line"/>
      <point x="487" y="296"/>
      <point x="542" y="329"/>
      <point x="542" y="400" type="curve" smooth="yes"/>
      <point x="542" y="487"/>
      <point x="465" y="536"/>
      <point x="313" y="536" type="curve" smooth="yes"/>
      <point x="181" y="536"/>
      <point x="80" y="493"/>
      <point x="80" y="411" type="curve" smooth="yes"/>
      <point x="80" y="390"/>
      <point x="89" y="371"/>
      <point x="104" y="358" type="curve"/>
      <point x="126" y="372" type="line"/>
      <point x="111" y="384"/>
      <point x="106" y="396"/>
      <point x="106" y="411" type="curve" smooth="yes"/>
      <point x="106" y="474"/>
      <point x="189" y="510"/>
      <point x="313" y="510" type="curve" smooth="yes"/>
      <point x="410" y="510"/>
      <point x="516" y="493"/>
      <point x="516" y="400" type="curve" smooth="yes"/>
      <point x="516" y="337"/>
      <point x="450" y="290"/>
      <point x="373" y="290" type="curve" smooth="yes"/>
      <point x="339" y="290" type="line"/>
      <point x="339" y="264" type="line"/>
      <point x="381" y="264" type="line" smooth="yes"/>
      <point x="477" y="264"/>
      <point x="535" y="219"/>
      <point x="535" y="152" type="curve" smooth="yes"/>
      <point x="535" y="58"/>
      <point x="448" y="16"/>
      <point x="309" y="16" type="curve" smooth="yes"/>
      <point x="188" y="16"/>
      <point x="102" y="57"/>
      <point x="80" y="135" type="curve"/>
      <point x="57" y="123" type="line"/>
      <point x="81" y="43"/>
      <point x="169" y="-10"/>
    </contour>
  </outline>
</glyph>
<glyph name="dha" format="2">
  <advance width="629"/>
  <unicode hex="1013"/>
  <note>
dha
</note>
  <outline>
    <contour>
      <point x="113" y="114" type="line"/>
      <point x="158" y="180"/>
      <point x="234" y="223"/>
      <point x="318" y="223" type="curve" smooth="yes"/>
      <point x="406" y="223"/>
      <point x="477" y="183"/>
      <point x="517" y="119" type="curve"/>
      <point x="535" y="137" type="line"/>
      <point x="490" y="205"/>
      <point x="412" y="249"/>
      <point x="318" y="249" type="curve" smooth="yes"/>
      <point x="227" y="249"/>
      <point x="142" y="202"/>
      <point x="95" y="131" type="curve"/>
    </contour>
    <contour>
      <point x="310" y="-10" type="curve" smooth="yes"/>
      <point x="467" y="-10"/>
      <point x="573" y="103"/>
      <point x="573" y="261" type="curve" smooth="yes"/>
      <point x="573" y="413"/>
      <point x="472" y="536"/>
      <point x="310" y="536" type="curve" smooth="yes"/>
      <point x="146" y="536"/>
      <point x="55" y="408"/>
      <point x="55" y="261" type="curve" smooth="yes"/>
      <point x="55" y="111"/>
      <point x="150" y="-10"/>
    </contour>
    <contour>
      <point x="310" y="16" type="curve" smooth="yes"/>
      <point x="179" y="16"/>
      <point x="81" y="109"/>
      <point x="81" y="261" type="curve" smooth="yes"/>
      <point x="81" y="396"/>
      <point x="161" y="510"/>
      <point x="310" y="510" type="curve" smooth="yes"/>
      <point x="458" y="510"/>
      <point x="547" y="401"/>
      <point x="547" y="261" type="curve" smooth="yes"/>
      <point x="547" y="114"/>
      <point x="450" y="16"/>
    </contour>
  </outline>
</glyph>
<glyph name="na" format="2">
  <advance width="608"/>
  <unicode hex="1014"/>
  <note>
na
</note>
  <outline>
    <contour>
      <point x="323" y="-468" type="line"/>
      <point x="349" y="-468" type="line"/>
      <point x="349" y="55" type="line" smooth="yes"/>
      <point x="349" y="176"/>
      <point x="292" y="253"/>
      <point x="182" y="253" type="curve" smooth="yes"/>
      <point x="103" y="253"/>
      <point x="50" y="203"/>
      <point x="50" y="127" type="curve" smooth="yes"/>
      <point x="50" y="32"/>
      <point x="131" y="-12"/>
      <point x="268" y="-12" type="curve" smooth="yes"/>
      <point x="347" y="-12" type="line" smooth="yes"/>
      <point x="499" y="-12"/>
      <point x="565" y="55"/>
      <point x="565" y="136" type="curve" smooth="yes"/>
      <point x="565" y="227"/>
      <point x="489" y="265"/>
      <point x="361" y="301" type="curve" smooth="yes"/>
      <point x="249" y="333"/>
      <point x="212" y="367"/>
      <point x="212" y="422" type="curve" smooth="yes"/>
      <point x="212" y="468"/>
      <point x="254" y="508"/>
      <point x="324" y="508" type="curve" smooth="yes"/>
      <point x="401" y="508"/>
      <point x="436" y="491"/>
      <point x="483" y="440" type="curve"/>
      <point x="501" y="457" type="line"/>
      <point x="463" y="498"/>
      <point x="431" y="534"/>
      <point x="324" y="534" type="curve" smooth="yes"/>
      <point x="243" y="534"/>
      <point x="186" y="481"/>
      <point x="186" y="422" type="curve" smooth="yes"/>
      <point x="186" y="350"/>
      <point x="238" y="312"/>
      <point x="351" y="278" type="curve" smooth="yes"/>
      <point x="484" y="243"/>
      <point x="539" y="205"/>
      <point x="539" y="136" type="curve" smooth="yes"/>
      <point x="539" y="69"/>
      <point x="487" y="14"/>
      <point x="346" y="14" type="curve" smooth="yes"/>
      <point x="268" y="14" type="line" smooth="yes"/>
      <point x="152" y="14"/>
      <point x="76" y="45"/>
      <point x="76" y="127" type="curve" smooth="yes"/>
      <point x="76" y="188"/>
      <point x="117" y="227"/>
      <point x="182" y="227" type="curve" smooth="yes"/>
      <point x="284" y="227"/>
      <point x="323" y="154"/>
      <point x="323" y="54" type="curve" smooth="yes"/>
    </contour>
  </outline>
</glyph>
<glyph name="pa" format="2">
  <advance width="626"/>
  <unicode hex="1015"/>
  <note>
pa
</note>
  <outline>
    <contour>
      <point x="318" y="-10" type="curve" smooth="yes"/>
      <point x="463" y="-10"/>
      <point x="571" y="87"/>
      <point x="571" y="275" type="curve" smooth="yes"/>
      <point x="571" y="375"/>
      <point x="521" y="488"/>
      <point x="459" y="536" type="curve"/>
      <point x="441" y="516" type="line"/>
      <point x="501" y="474"/>
      <point x="545" y="359"/>
      <point x="545" y="275" type="curve" smooth="yes"/>
      <point x="545" y="98"/>
      <point x="443" y="16"/>
      <point x="318" y="16" type="curve" smooth="yes"/>
      <point x="188" y="16"/>
      <point x="81" y="108"/>
      <point x="81" y="275" type="curve" smooth="yes"/>
      <point x="81" y="359"/>
      <point x="125" y="474"/>
      <point x="185" y="516" type="curve"/>
      <point x="167" y="536" type="line"/>
      <point x="105" y="488"/>
      <point x="55" y="375"/>
      <point x="55" y="275" type="curve" smooth="yes"/>
      <point x="55" y="104"/>
      <point x="167" y="-10"/>
    </contour>
  </outline>
</glyph>
<glyph name="pha" format="2">
  <advance width="632"/>
  <unicode hex="1016"/>
  <note>
pha
</note>
  <outline>
    <contour>
      <point x="309" y="-10" type="curve" smooth="yes"/>
      <point x="460" y="-10"/>
      <point x="576" y="113"/>
      <point x="576" y="285" type="curve" smooth="yes"/>
      <point x="576" y="386"/>
      <point x="526" y="467"/>
      <point x="455" y="533" type="curve"/>
      <point x="369" y="472"/>
      <point x="334" y="397"/>
      <point x="334" y="285" type="curve" smooth="yes"/>
      <point x="334" y="185"/>
      <point x="389" y="86"/>
      <point x="444" y="43" type="curve"/>
      <point x="462" y="60" type="line"/>
      <point x="408" y="104"/>
      <point x="360" y="194"/>
      <point x="360" y="285" type="curve" smooth="yes"/>
      <point x="360" y="380"/>
      <point x="389" y="454"/>
      <point x="454" y="499" type="curve"/>
      <point x="504" y="450"/>
      <point x="550" y="377"/>
      <point x="550" y="285" type="curve" smooth="yes"/>
      <point x="550" y="120"/>
      <point x="440" y="16"/>
      <point x="309" y="16" type="curve" smooth="yes"/>
      <point x="175" y="16"/>
      <point x="81" y="123"/>
      <point x="81" y="285" type="curve" smooth="yes"/>
      <point x="81" y="360"/>
      <point x="105" y="452"/>
      <point x="180" y="516" type="curve"/>
      <point x="164" y="536" type="line"/>
      <point x="82" y="468"/>
      <point x="55" y="365"/>
      <point x="55" y="285" type="curve" smooth="yes"/>
      <point x="55" y="110"/>
      <point x="158" y="-10"/>
    </contour>
  </outline>
</glyph>
<glyph name="ba" format="2">
  <advance width="630"/>
  <unicode hex="1017"/>
  <note>
ba
</note>
  <outline>
    <contour>
      <point x="318" y="-10" type="curve" smooth="yes"/>
      <point x="466" y="-10"/>
      <point x="575" y="104"/>
      <point x="575" y="275" type="curve" smooth="yes"/>
      <point x="575" y="372"/>
      <point x="522" y="483"/>
      <point x="457" y="529" type="curve"/>
      <point x="439" y="511" type="line"/>
      <point x="503" y="469"/>
      <point x="549" y="357"/>
      <point x="549" y="275" type="curve" smooth="yes"/>
      <point x="549" y="108"/>
      <point x="445" y="16"/>
      <point x="318" y="16" type="curve" smooth="yes"/>
      <point x="188" y="16"/>
      <point x="81" y="108"/>
      <point x="81" y="275" type="curve" smooth="yes"/>
      <point x="81" y="359"/>
      <point x="127" y="473"/>
      <point x="190" y="515" type="curve"/>
      <point x="172" y="535" type="line"/>
      <point x="107" y="487"/>
      <point x="55" y="374"/>
      <point x="55" y="275" type="curve" smooth="yes"/>
      <point x="55" y="104"/>
      <point x="167" y="-10"/>
    </contour>
    <contour>
      <point x="316" y="283" type="curve" smooth="yes"/>
      <point x="423" y="283"/>
      <point x="490" y="358"/>
      <point x="490" y="443" type="curve" smooth="yes"/>
      <point x="490" y="475"/>
      <point x="478" y="505"/>
      <point x="457" y="529" type="curve"/>
      <point x="439" y="511" type="line"/>
      <point x="455" y="491"/>
      <point x="464" y="468"/>
      <point x="464" y="443" type="curve" smooth="yes"/>
      <point x="464" y="367"/>
      <point x="405" y="309"/>
      <point x="316" y="309" type="curve" smooth="yes"/>
      <point x="225" y="309"/>
      <point x="161" y="365"/>
      <point x="161" y="443" type="curve" smooth="yes"/>
      <point x="161" y="470"/>
      <point x="172" y="495"/>
      <point x="190" y="515" type="curve"/>
      <point x="172" y="534" type="line"/>
      <point x="149" y="509"/>
      <point x="135" y="477"/>
      <point x="135" y="443" type="curve" smooth="yes"/>
      <point x="135" y="352"/>
      <point x="211" y="283"/>
    </contour>
  </outline>
</glyph>
<glyph name="bha" format="2">
  <advance width="1128"/>
  <unicode hex="1018"/>
  <note>
bha
</note>
  <outline>
    <contour>
      <point x="310" y="-10" type="curve" smooth="yes"/>
      <point x="470" y="-10"/>
      <point x="565" y="111"/>
      <point x="565" y="261" type="curve" smooth="yes"/>
      <point x="565" y="408"/>
      <point x="474" y="536"/>
      <point x="310" y="536" type="curve" smooth="yes"/>
      <point x="191" y="536"/>
      <point x="105" y="469"/>
      <point x="67" y="374" type="curve"/>
      <point x="91" y="364" type="line"/>
      <point x="124" y="451"/>
      <point x="201" y="510"/>
      <point x="310" y="510" type="curve" smooth="yes"/>
      <point x="459" y="510"/>
      <point x="539" y="396"/>
      <point x="539" y="261" type="curve" smooth="yes"/>
      <point x="539" y="109"/>
      <point x="441" y="16"/>
      <point x="310" y="16" type="curve" smooth="yes"/>
      <point x="201" y="16"/>
      <point x="119" y="75"/>
      <point x="87" y="170" type="curve"/>
      <point x="63" y="159" type="line"/>
      <point x="99" y="57"/>
      <point x="189" y="-10"/>
    </contour>
    <contour>
      <point x="821" y="-8" type="curve" smooth="yes"/>
      <point x="971" y="-8"/>
      <point x="1073" y="90"/>
      <point x="1073" y="251" type="curve" smooth="yes"/>
      <point x="1073" y="412"/>
      <point x="982" y="536"/>
      <point x="818" y="536" type="curve" smooth="yes"/>
      <point x="698" y="536"/>
      <point x="610" y="477"/>
      <point x="534" y="374" type="curve"/>
      <point x="546" y="345" type="line"/>
      <point x="629" y="463"/>
      <point x="712" y="510"/>
      <point x="818" y="510" type="curve" smooth="yes"/>
      <point x="972" y="510"/>
      <point x="1047" y="396"/>
      <point x="1047" y="251" type="curve" smooth="yes"/>
      <point x="1047" y="103"/>
      <point x="956" y="18"/>
      <point x="821" y="18" type="curve" smooth="yes"/>
      <point x="774" y="18"/>
      <point x="721" y="24"/>
      <point x="684" y="42" type="curve"/>
      <point x="670" y="19" type="line"/>
      <point x="714" y="-1"/>
      <point x="740" y="-8"/>
    </contour>
  </outline>
</glyph>
<glyph name="ma" format="2">
  <advance width="627"/>
  <unicode hex="1019"/>
  <note>
ma
</note>
  <outline>
    <contour>
      <point x="318" y="-10" type="curve" smooth="yes"/>
      <point x="464" y="-10"/>
      <point x="572" y="96"/>
      <point x="572" y="275" type="curve" smooth="yes"/>
      <point x="572" y="375"/>
      <point x="522" y="488"/>
      <point x="460" y="536" type="curve"/>
      <point x="442" y="516" type="line"/>
      <point x="502" y="474"/>
      <point x="546" y="359"/>
      <point x="546" y="275" type="curve" smooth="yes"/>
      <point x="546" y="100"/>
      <point x="443" y="16"/>
      <point x="318" y="16" type="curve" smooth="yes"/>
      <point x="188" y="16"/>
      <point x="81" y="108"/>
      <point x="81" y="275" type="curve" smooth="yes"/>
      <point x="81" y="359"/>
      <point x="125" y="474"/>
      <point x="185" y="516" type="curve"/>
      <point x="167" y="536" type="line"/>
      <point x="105" y="488"/>
      <point x="55" y="375"/>
      <point x="55" y="275" type="curve" smooth="yes"/>
      <point x="55" y="104"/>
      <point x="167" y="-10"/>
    </contour>
    <contour>
      <point x="113" y="114" type="line"/>
      <point x="158" y="180"/>
      <point x="234" y="223"/>
      <point x="318" y="223" type="curve" smooth="yes"/>
      <point x="402" y="223"/>
      <point x="468" y="183"/>
      <point x="508" y="119" type="curve"/>
      <point x="526" y="137" type="line"/>
      <point x="481" y="205"/>
      <point x="408" y="249"/>
      <point x="318" y="249" type="curve" smooth="yes"/>
      <point x="227" y="249"/>
      <point x="142" y="202"/>
      <point x="95" y="131" type="curve"/>
    </contour>
  </outline>
</glyph>
<glyph name="sa" format="2">
  <advance width="1123"/>
  <unicode hex="101E"/>
  <note>
sa
</note>
  <outline>
    <contour>
      <point x="307" y="-10" type="curve" smooth="yes"/>
      <point x="467" y="-10"/>
      <point x="562" y="111"/>
      <point x="562" y="261" type="curve" smooth="yes"/>
      <point x="562" y="408"/>
      <point x="471" y="536"/>
      <point x="307" y="536" type="curve" smooth="yes"/>
      <point x="186" y="536"/>
      <point x="98" y="469"/>
      <point x="59" y="374" type="curve"/>
      <point x="83" y="364" type="line"/>
      <point x="117" y="451"/>
      <point x="196" y="510"/>
      <point x="307" y="510" type="curve" smooth="yes"/>
      <point x="456" y="510"/>
      <point x="536" y="396"/>
      <point x="536" y="261" type="curve" smooth="yes"/>
      <point x="536" y="109"/>
      <point x="438" y="16"/>
      <point x="307" y="16" type="curve" smooth="yes"/>
      <point x="196" y="16"/>
      <point x="112" y="75"/>
      <point x="79" y="170" type="curve"/>
      <point x="55" y="159" type="line"/>
      <point x="92" y="57"/>
      <point x="184" y="-10"/>
    </contour>
    <contour>
      <point x="816" y="-8" type="curve" smooth="yes"/>
      <point x="977" y="-8"/>
      <point x="1068" y="116"/>
      <point x="1068" y="277" type="curve" smooth="yes"/>
      <point x="1068" y="438"/>
      <point x="966" y="536"/>
      <point x="816" y="536" type="curve" smooth="yes"/>
      <point x="759" y="536"/>
      <point x="717" y="531"/>
      <point x="676" y="516" type="curve"/>
      <point x="690" y="493" type="line"/>
      <point x="724" y="506"/>
      <point x="773" y="510"/>
      <point x="816" y="510" type="curve" smooth="yes"/>
      <point x="951" y="510"/>
      <point x="1042" y="425"/>
      <point x="1042" y="277" type="curve" smooth="yes"/>
      <point x="1042" y="132"/>
      <point x="967" y="18"/>
      <point x="816" y="18" type="curve" smooth="yes"/>
      <point x="710" y="18"/>
      <point x="632" y="57"/>
      <point x="549" y="183" type="curve"/>
      <point x="537" y="154" type="line"/>
      <point x="602" y="51"/>
      <point x="694" y="-8"/>
    </contour>
  </outline>
</glyph>
<glyph name="ha" format="2">
  <advance width="1118"/>
  <unicode hex="101F"/>
  <note>
ha
</note>
  <outline>
    <contour>
      <point x="318" y="-10" type="curve" smooth="yes"/>
      <point x="469" y="-10"/>
      <point x="581" y="104"/>
      <point x="581" y="275" type="curve" smooth="yes"/>
      <point x="581" y="375"/>
      <point x="531" y="488"/>
      <point x="469" y="536" type="curve"/>
      <point x="451" y="516" type="line"/>
      <point x="511" y="474"/>
      <point x="555" y="359"/>
      <point x="555" y="275" type="curve" smooth="yes"/>
      <point x="555" y="108"/>
      <point x="448" y="16"/>
      <point x="318" y="16" type="curve" smooth="yes"/>
      <point x="188" y="16"/>
      <point x="81" y="108"/>
      <point x="81" y="275" type="curve" smooth="yes"/>
      <point x="81" y="359"/>
      <point x="125" y="474"/>
      <point x="185" y="516" type="curve"/>
      <point x="167" y="536" type="line"/>
      <point x="105" y="488"/>
      <point x="55" y="375"/>
      <point x="55" y="275" type="curve" smooth="yes"/>
      <point x="55" y="104"/>
      <point x="167" y="-10"/>
    </contour>
    <contour>
      <point x="811" y="-8" type="curve" smooth="yes"/>
      <point x="961" y="-8"/>
      <point x="1063" y="90"/>
      <point x="1063" y="251" type="curve" smooth="yes"/>
      <point x="1063" y="412"/>
      <point x="972" y="536"/>
      <point x="811" y="536" type="curve" smooth="yes"/>
      <point x="697" y="536"/>
      <point x="610" y="477"/>
      <point x="549" y="374" type="curve"/>
      <point x="561" y="345" type="line"/>
      <point x="639" y="471"/>
      <point x="712" y="510"/>
      <point x="811" y="510" type="curve" smooth="yes"/>
      <point x="962" y="510"/>
      <point x="1037" y="396"/>
      <point x="1037" y="251" type="curve" smooth="yes"/>
      <point x="1037" y="103"/>
      <point x="946" y="18"/>
      <point x="811" y="18" type="curve" smooth="yes"/>
      <point x="768" y="18"/>
      <point x="719" y="22"/>
      <point x="685" y="35" type="curve"/>
      <point x="671" y="12" type="line"/>
      <point x="712" y="-3"/>
      <point x="754" y="-8"/>
    </contour>
  </outline>
</glyph>
<glyph name="lla" format="2">
  <advance width="632"/>
  <unicode hex="1020"/>
  <note>
lla
</note>
  <outline>
    <contour>
      <point x="283" y="-468" type="curve" smooth="yes"/>
      <point x="367" y="-468" type="line" smooth="yes"/>
      <point x="492" y="-468"/>
      <point x="556" y="-405"/>
      <point x="556" y="-282" type="curve" smooth="yes"/>
      <point x="556" y="-276" type="line"/>
      <point x="530" y="-276" type="line"/>
      <point x="530" y="-282" type="line" smooth="yes"/>
      <point x="530" y="-392"/>
      <point x="479" y="-442"/>
      <point x="367" y="-442" type="curve" smooth="yes"/>
      <point x="283" y="-442" type="line" smooth="yes"/>
      <point x="165" y="-442"/>
      <point x="121" y="-381"/>
      <point x="121" y="-258" type="curve" smooth="yes"/>
      <point x="121" y="-106" type="line"/>
      <point x="187" y="-140"/>
      <point x="260" y="-157"/>
      <point x="324" y="-157" type="curve" smooth="yes"/>
      <point x="417" y="-157"/>
      <point x="496" y="-121"/>
      <point x="556" y="-69" type="curve"/>
      <point x="556" y="159" type="line"/>
      <point x="530" y="121" type="line"/>
      <point x="530" y="-58" type="line"/>
      <point x="481" y="-95"/>
      <point x="408" y="-131"/>
      <point x="324" y="-131" type="curve" smooth="yes"/>
      <point x="259" y="-131"/>
      <point x="171" y="-111"/>
      <point x="95" y="-61" type="curve"/>
      <point x="95" y="-258" type="line" smooth="yes"/>
      <point x="95" y="-399"/>
      <point x="154" y="-468"/>
    </contour>
    <contour>
      <point x="319" y="-10" type="curve" smooth="yes"/>
      <point x="436" y="-10"/>
      <point x="523" y="57"/>
      <point x="558" y="159" type="curve"/>
      <point x="534" y="170" type="line"/>
      <point x="503" y="75"/>
      <point x="424" y="16"/>
      <point x="319" y="16" type="curve" smooth="yes"/>
      <point x="192" y="16"/>
      <point x="97" y="109"/>
      <point x="97" y="261" type="curve" smooth="yes"/>
      <point x="97" y="396"/>
      <point x="175" y="510"/>
      <point x="319" y="510" type="curve" smooth="yes"/>
      <point x="424" y="510"/>
      <point x="498" y="451"/>
      <point x="530" y="364" type="curve"/>
      <point x="554" y="374" type="line"/>
      <point x="517" y="469"/>
      <point x="434" y="536"/>
      <point x="319" y="536" type="curve" smooth="yes"/>
      <point x="160" y="536"/>
      <point x="71" y="408"/>
      <point x="71" y="261" type="curve" smooth="yes"/>
      <point x="71" y="111"/>
      <point x="164" y="-10"/>
    </contour>
  </outline>
</glyph>
<glyph name="a_m" format="2">
  <advance width="1120"/>
  <unicode hex="1021"/>
  <note>
a_m
</note>
  <outline>
    <contour>
      <point x="322" y="-10" type="curve" smooth="yes"/>
      <point x="490" y="-10"/>
      <point x="578" y="51"/>
      <point x="578" y="152" type="curve" smooth="yes"/>
      <point x="578" y="202"/>
      <point x="554" y="261"/>
      <point x="466" y="280" type="curve"/>
      <point x="466" y="282" type="line"/>
      <point x="514" y="296"/>
      <point x="569" y="329"/>
      <point x="569" y="400" type="curve" smooth="yes"/>
      <point x="569" y="487"/>
      <point x="492" y="536"/>
      <point x="336" y="536" type="curve" smooth="yes"/>
      <point x="204" y="536"/>
      <point x="100" y="493"/>
      <point x="100" y="411" type="curve" smooth="yes"/>
      <point x="100" y="390"/>
      <point x="109" y="371"/>
      <point x="124" y="358" type="curve"/>
      <point x="146" y="372" type="line"/>
      <point x="131" y="384"/>
      <point x="126" y="396"/>
      <point x="126" y="411" type="curve" smooth="yes"/>
      <point x="126" y="474"/>
      <point x="212" y="510"/>
      <point x="336" y="510" type="curve" smooth="yes"/>
      <point x="437" y="510"/>
      <point x="543" y="493"/>
      <point x="543" y="400" type="curve" smooth="yes"/>
      <point x="543" y="337"/>
      <point x="477" y="290"/>
      <point x="400" y="290" type="curve" smooth="yes"/>
      <point x="366" y="290" type="line"/>
      <point x="366" y="264" type="line"/>
      <point x="408" y="264" type="line" smooth="yes"/>
      <point x="512" y="264"/>
      <point x="552" y="209"/>
      <point x="552" y="152" type="curve" smooth="yes"/>
      <point x="552" y="60"/>
      <point x="465" y="16"/>
      <point x="322" y="16" type="curve" smooth="yes"/>
      <point x="201" y="16"/>
      <point x="123" y="57"/>
      <point x="100" y="135" type="curve"/>
      <point x="77" y="123" type="line"/>
      <point x="102" y="43"/>
      <point x="182" y="-10"/>
    </contour>
    <contour>
      <point x="815" y="-10" type="curve" smooth="yes"/>
      <point x="973" y="-10"/>
      <point x="1065" y="112"/>
      <point x="1065" y="263" type="curve" smooth="yes"/>
      <point x="1065" y="416"/>
      <point x="967" y="536"/>
      <point x="803" y="536" type="curve" smooth="yes"/>
      <point x="686" y="536"/>
      <point x="614" y="492"/>
      <point x="545" y="448" type="curve"/>
      <point x="558" y="426" type="line"/>
      <point x="624" y="469"/>
      <point x="696" y="510"/>
      <point x="803" y="510" type="curve" smooth="yes"/>
      <point x="956" y="510"/>
      <point x="1039" y="402"/>
      <point x="1039" y="263" type="curve" smooth="yes"/>
      <point x="1039" y="122"/>
      <point x="961" y="16"/>
      <point x="815" y="16" type="curve" smooth="yes"/>
      <point x="780" y="16"/>
      <point x="755" y="23"/>
      <point x="724" y="32" type="curve"/>
      <point x="732" y="26" type="line"/>
      <point x="735" y="181"/>
      <point x="846" y="275"/>
      <point x="1048" y="275" type="curve"/>
      <point x="1045" y="301" type="line"/>
      <point x="819" y="300"/>
      <point x="706" y="188"/>
      <point x="706" y="12" type="curve"/>
      <point x="729" y="4"/>
      <point x="770" y="-10"/>
    </contour>
  </outline>
</glyph>
<glyph name="a_shn" format="2">
  <advance width="1143"/>
  <unicode hex="1022"/>
  <note>
a_shn
</note>
  <outline>
    <contour>
      <point x="147" y="-8" type="curve" smooth="yes"/>
      <point x="194" y="-8"/>
      <point x="225" y="25"/>
      <point x="225" y="66" type="curve" smooth="yes"/>
      <point x="225" y="101"/>
      <point x="214" y="125"/>
      <point x="169" y="166" type="curve" smooth="yes"/>
      <point x="119" y="212"/>
      <point x="92" y="250"/>
      <point x="92" y="322" type="curve" smooth="yes"/>
      <point x="92" y="433"/>
      <point x="174" y="510"/>
      <point x="316" y="510" type="curve" smooth="yes"/>
      <point x="446" y="510"/>
      <point x="553" y="416"/>
      <point x="553" y="251" type="curve" smooth="yes"/>
      <point x="553" y="155"/>
      <point x="509" y="61"/>
      <point x="449" y="10" type="curve"/>
      <point x="467" y="-10" type="line"/>
      <point x="529" y="47"/>
      <point x="579" y="139"/>
      <point x="579" y="251" type="curve" smooth="yes"/>
      <point x="579" y="422"/>
      <point x="467" y="536"/>
      <point x="316" y="536" type="curve" smooth="yes"/>
      <point x="160" y="536"/>
      <point x="66" y="445"/>
      <point x="66" y="322" type="curve" smooth="yes"/>
      <point x="66" y="246"/>
      <point x="98" y="192"/>
      <point x="154" y="146" type="curve" smooth="yes"/>
      <point x="190" y="117"/>
      <point x="199" y="92"/>
      <point x="199" y="66" type="curve" smooth="yes"/>
      <point x="199" y="38"/>
      <point x="181" y="18"/>
      <point x="147" y="18" type="curve" smooth="yes"/>
      <point x="119" y="18"/>
      <point x="94" y="33"/>
      <point x="79" y="55" type="curve"/>
      <point x="60" y="37" type="line"/>
      <point x="79" y="13"/>
      <point x="106" y="-8"/>
    </contour>
    <contour>
      <point x="811" y="-10" type="curve" smooth="yes"/>
      <point x="961" y="-10"/>
      <point x="1063" y="88"/>
      <point x="1063" y="249" type="curve" smooth="yes"/>
      <point x="1063" y="410"/>
      <point x="972" y="534"/>
      <point x="811" y="534" type="curve" smooth="yes"/>
      <point x="697" y="534"/>
      <point x="610" y="475"/>
      <point x="549" y="372" type="curve"/>
      <point x="561" y="343" type="line"/>
      <point x="639" y="469"/>
      <point x="712" y="508"/>
      <point x="811" y="508" type="curve" smooth="yes"/>
      <point x="962" y="508"/>
      <point x="1037" y="394"/>
      <point x="1037" y="249" type="curve" smooth="yes"/>
      <point x="1037" y="101"/>
      <point x="946" y="16"/>
      <point x="811" y="16" type="curve" smooth="yes"/>
      <point x="768" y="16"/>
      <point x="719" y="20"/>
      <point x="685" y="33" type="curve"/>
      <point x="671" y="10" type="line"/>
      <point x="712" y="-5"/>
      <point x="754" y="-10"/>
    </contour>
  </outline>
</glyph>
<glyph name="i_m" format="2">
  <advance width="1092"/>
  <unicode hex="1023"/>
  <note>
i_m
</note>
  <outline>
    <contour>
      <point x="172" y="-10" type="curve"/>
      <point x="186" y="9" type="line"/>
      <point x="126" y="53"/>
      <point x="81" y="129"/>
      <point x="81" y="251" type="curve" smooth="yes"/>
      <point x="81" y="413"/>
      <point x="178" y="510"/>
      <point x="309" y="510" type="curve" smooth="yes"/>
      <point x="472" y="510"/>
      <point x="533" y="384"/>
      <point x="533" y="204" type="curve" smooth="yes"/>
      <point x="533" y="117" type="line"/>
      <point x="559" y="117" type="line"/>
      <point x="559" y="204" type="line" smooth="yes"/>
      <point x="559" y="384"/>
      <point x="620" y="510"/>
      <point x="783" y="510" type="curve" smooth="yes"/>
      <point x="914" y="510"/>
      <point x="1011" y="413"/>
      <point x="1011" y="251" type="curve" smooth="yes"/>
      <point x="1011" y="129"/>
      <point x="966" y="53"/>
      <point x="906" y="9" type="curve"/>
      <point x="920" y="-10" type="line"/>
      <point x="988" y="40"/>
      <point x="1037" y="119"/>
      <point x="1037" y="251" type="curve" smooth="yes"/>
      <point x="1037" y="427"/>
      <point x="924" y="536"/>
      <point x="784" y="536" type="curve" smooth="yes"/>
      <point x="637" y="536"/>
      <point x="554" y="427"/>
      <point x="545" y="310" type="curve"/>
      <point x="547" y="310" type="line"/>
      <point x="538" y="427"/>
      <point x="455" y="536"/>
      <point x="308" y="536" type="curve" smooth="yes"/>
      <point x="168" y="536"/>
      <point x="55" y="427"/>
      <point x="55" y="251" type="curve" smooth="yes"/>
      <point x="55" y="119"/>
      <point x="104" y="40"/>
    </contour>
    <contour>
      <point x="839" y="-468" type="line"/>
      <point x="990" y="-468" type="line"/>
      <point x="990" y="-442" type="line"/>
      <point x="855" y="-442" type="line"/>
      <point x="883" y="-414"/>
      <point x="927" y="-353"/>
      <point x="927" y="-262" type="curve" smooth="yes"/>
      <point x="927" y="-127"/>
      <point x="845" y="-49"/>
      <point x="734" y="-49" type="curve" smooth="yes"/>
      <point x="623" y="-49"/>
      <point x="552" y="-133"/>
      <point x="546" y="-212" type="curve"/>
      <point x="548" y="-212" type="line"/>
      <point x="534" y="-126"/>
      <point x="470" y="-49"/>
      <point x="362" y="-49" type="curve" smooth="yes"/>
      <point x="257" y="-49"/>
      <point x="168" y="-127"/>
      <point x="168" y="-250" type="curve" smooth="yes"/>
      <point x="168" y="-349"/>
      <point x="223" y="-424"/>
      <point x="259" y="-458" type="curve"/>
      <point x="279" y="-442" type="line"/>
      <point x="244" y="-406"/>
      <point x="194" y="-349"/>
      <point x="194" y="-250" type="curve" smooth="yes"/>
      <point x="194" y="-144"/>
      <point x="262" y="-75"/>
      <point x="362" y="-75" type="curve" smooth="yes"/>
      <point x="474" y="-75"/>
      <point x="535" y="-165"/>
      <point x="535" y="-301" type="curve" smooth="yes"/>
      <point x="535" y="-365" type="line"/>
      <point x="561" y="-365" type="line"/>
      <point x="561" y="-303" type="line" smooth="yes"/>
      <point x="561" y="-153"/>
      <point x="624" y="-75"/>
      <point x="734" y="-75" type="curve" smooth="yes"/>
      <point x="833" y="-75"/>
      <point x="901" y="-141"/>
      <point x="901" y="-262" type="curve" smooth="yes"/>
      <point x="901" y="-351"/>
      <point x="860" y="-405"/>
      <point x="817" y="-445" type="curve"/>
    </contour>
  </outline>
</glyph>
<glyph name="ii" format="2">
  <advance width="1225"/>
  <unicode hex="1024"/>
  <note>
ii
</note>
  <outline>
    <contour>
      <point x="327" y="-467" type="curve" smooth="yes"/>
      <point x="787" y="-467" type="line" smooth="yes"/>
      <point x="908" y="-467"/>
      <point x="978" y="-400"/>
      <point x="978" y="-274" type="curve" smooth="yes"/>
      <point x="978" y="234" type="line" smooth="yes"/>
      <point x="978" y="419"/>
      <point x="901" y="536"/>
      <point x="762" y="536" type="curve" smooth="yes"/>
      <point x="646" y="536"/>
      <point x="586" y="487"/>
      <point x="533" y="412" type="curve"/>
      <point x="549" y="389" type="line"/>
      <point x="601" y="468"/>
      <point x="655" y="510"/>
      <point x="762" y="510" type="curve" smooth="yes"/>
      <point x="882" y="510"/>
      <point x="952" y="413"/>
      <point x="952" y="229" type="curve" smooth="yes"/>
      <point x="952" y="-274" type="line" smooth="yes"/>
      <point x="952" y="-382"/>
      <point x="897" y="-441"/>
      <point x="787" y="-441" type="curve" smooth="yes"/>
      <point x="327" y="-441" type="line" smooth="yes"/>
      <point x="163" y="-441"/>
      <point x="81" y="-412"/>
      <point x="81" y="-322" type="curve" smooth="yes"/>
      <point x="81" y="-221"/>
      <point x="179" y="-190"/>
      <point x="373" y="-190" type="curve" smooth="yes"/>
      <point x="519" y="-190"/>
      <point x="629" y="-229"/>
      <point x="711" y="-261" type="curve"/>
      <point x="725" y="-238" type="line"/>
      <point x="640" y="-205"/>
      <point x="515" y="-164"/>
      <point x="373" y="-164" type="curve" smooth="yes"/>
      <point x="163" y="-164"/>
      <point x="55" y="-206"/>
      <point x="55" y="-322" type="curve" smooth="yes"/>
      <point x="55" y="-428"/>
      <point x="145" y="-467"/>
    </contour>
    <contour>
      <point x="170" y="-10" type="curve"/>
      <point x="188" y="10" type="line"/>
      <point x="128" y="52"/>
      <point x="84" y="167"/>
      <point x="84" y="251" type="curve" smooth="yes"/>
      <point x="84" y="418"/>
      <point x="191" y="510"/>
      <point x="321" y="510" type="curve" smooth="yes"/>
      <point x="451" y="510"/>
      <point x="558" y="418"/>
      <point x="558" y="251" type="curve" smooth="yes"/>
      <point x="558" y="167"/>
      <point x="514" y="52"/>
      <point x="454" y="10" type="curve"/>
      <point x="472" y="-10" type="line"/>
      <point x="534" y="38"/>
      <point x="584" y="151"/>
      <point x="584" y="251" type="curve" smooth="yes"/>
      <point x="584" y="422"/>
      <point x="472" y="536"/>
      <point x="321" y="536" type="curve" smooth="yes"/>
      <point x="170" y="536"/>
      <point x="58" y="422"/>
      <point x="58" y="251" type="curve" smooth="yes"/>
      <point x="58" y="151"/>
      <point x="108" y="38"/>
    </contour>
    <contour>
      <point x="1118" y="-468" type="line"/>
      <point x="1144" y="-468" type="line"/>
      <point x="1144" y="187" type="line" smooth="yes"/>
      <point x="1144" y="423"/>
      <point x="1096" y="536"/>
      <point x="974" y="631" type="curve" smooth="yes"/>
      <point x="868" y="714"/>
      <point x="841" y="768"/>
      <point x="841" y="835" type="curve" smooth="yes"/>
      <point x="841" y="913"/>
      <point x="894" y="978"/>
      <point x="1001" y="978" type="curve" smooth="yes"/>
      <point x="1067" y="978"/>
      <point x="1121" y="957"/>
      <point x="1148" y="903" type="curve"/>
      <point x="1170" y="915" type="line"/>
      <point x="1143" y="970"/>
      <point x="1084" y="1004"/>
      <point x="1001" y="1004" type="curve" smooth="yes"/>
      <point x="886" y="1004"/>
      <point x="815" y="929"/>
      <point x="815" y="835" type="curve" smooth="yes"/>
      <point x="815" y="751"/>
      <point x="861" y="687"/>
      <point x="957" y="611" type="curve" smooth="yes"/>
      <point x="1078" y="516"/>
      <point x="1118" y="415"/>
      <point x="1118" y="194" type="curve" smooth="yes"/>
    </contour>
  </outline>
</glyph>
<glyph name="u_m" format="2">
  <advance width="639"/>
  <unicode hex="1025"/>
  <note>
u_m
</note>
  <outline>
    <contour>
      <point x="285" y="-467" type="curve" smooth="yes"/>
      <point x="395" y="-467" type="line" smooth="yes"/>
      <point x="517" y="-467"/>
      <point x="582" y="-420"/>
      <point x="582" y="-326" type="curve" smooth="yes"/>
      <point x="582" y="-245"/>
      <point x="528" y="-192"/>
      <point x="457" y="-192" type="curve" smooth="yes"/>
      <point x="397" y="-192"/>
      <point x="368" y="-213"/>
      <point x="329" y="-248" type="curve"/>
      <point x="348" y="-267" type="line"/>
      <point x="376" y="-238"/>
      <point x="404" y="-218"/>
      <point x="457" y="-218" type="curve" smooth="yes"/>
      <point x="517" y="-218"/>
      <point x="556" y="-262"/>
      <point x="556" y="-326" type="curve" smooth="yes"/>
      <point x="556" y="-406"/>
      <point x="502" y="-441"/>
      <point x="395" y="-441" type="curve" smooth="yes"/>
      <point x="285" y="-441" type="line" smooth="yes"/>
      <point x="177" y="-441"/>
      <point x="121" y="-384"/>
      <point x="121" y="-271" type="curve" smooth="yes"/>
      <point x="121" y="116" type="line"/>
      <point x="95" y="159" type="line"/>
      <point x="95" y="-271" type="line" smooth="yes"/>
      <point x="95" y="-406"/>
      <point x="161" y="-467"/>
    </contour>
    <contour>
      <point x="334" y="-10" type="curve" smooth="yes"/>
      <point x="489" y="-10"/>
      <point x="582" y="111"/>
      <point x="582" y="261" type="curve" smooth="yes"/>
      <point x="582" y="408"/>
      <point x="493" y="536"/>
      <point x="334" y="536" type="curve" smooth="yes"/>
      <point x="219" y="536"/>
      <point x="136" y="469"/>
      <point x="99" y="374" type="curve"/>
      <point x="123" y="364" type="line"/>
      <point x="155" y="451"/>
      <point x="229" y="510"/>
      <point x="334" y="510" type="curve" smooth="yes"/>
      <point x="478" y="510"/>
      <point x="556" y="396"/>
      <point x="556" y="261" type="curve" smooth="yes"/>
      <point x="556" y="109"/>
      <point x="461" y="16"/>
      <point x="334" y="16" type="curve" smooth="yes"/>
      <point x="229" y="16"/>
      <point x="150" y="75"/>
      <point x="119" y="170" type="curve"/>
      <point x="95" y="159" type="line"/>
      <point x="130" y="57"/>
      <point x="217" y="-10"/>
    </contour>
  </outline>
</glyph>
<glyph name="e_m" format="2">
  <advance width="605"/>
  <unicode hex="1027"/>
  <note>
e_m
</note>
  <outline>
    <contour>
      <point x="310" y="-10" type="curve" smooth="yes"/>
      <point x="423" y="-10"/>
      <point x="493" y="44"/>
      <point x="554" y="117" type="curve"/>
      <point x="492" y="179"/>
      <point x="408" y="215"/>
      <point x="321" y="215" type="curve" smooth="yes"/>
      <point x="224" y="215"/>
      <point x="152" y="167"/>
      <point x="112" y="128" type="curve"/>
      <point x="91" y="167"/>
      <point x="81" y="215"/>
      <point x="81" y="263" type="curve" smooth="yes"/>
      <point x="81" y="311"/>
      <point x="91" y="359"/>
      <point x="112" y="398" type="curve"/>
      <point x="152" y="359"/>
      <point x="224" y="311"/>
      <point x="321" y="311" type="curve" smooth="yes"/>
      <point x="408" y="311"/>
      <point x="492" y="347"/>
      <point x="554" y="409" type="curve"/>
      <point x="493" y="482"/>
      <point x="423" y="536"/>
      <point x="310" y="536" type="curve" smooth="yes"/>
      <point x="146" y="536"/>
      <point x="55" y="411"/>
      <point x="55" y="263" type="curve" smooth="yes"/>
      <point x="55" y="115"/>
      <point x="146" y="-10"/>
    </contour>
    <contour>
      <point x="310" y="16" type="curve" smooth="yes"/>
      <point x="219" y="16"/>
      <point x="161" y="57"/>
      <point x="126" y="107" type="curve"/>
      <point x="168" y="149"/>
      <point x="234" y="189"/>
      <point x="321" y="189" type="curve" smooth="yes"/>
      <point x="400" y="189"/>
      <point x="476" y="157"/>
      <point x="516" y="115" type="curve"/>
      <point x="470" y="57"/>
      <point x="401" y="16"/>
    </contour>
    <contour>
      <point x="321" y="337" type="curve" smooth="yes"/>
      <point x="234" y="337"/>
      <point x="168" y="377"/>
      <point x="126" y="419" type="curve"/>
      <point x="161" y="469"/>
      <point x="219" y="510"/>
      <point x="310" y="510" type="curve" smooth="yes"/>
      <point x="401" y="510"/>
      <point x="470" y="469"/>
      <point x="516" y="411" type="curve"/>
      <point x="476" y="369"/>
      <point x="400" y="337"/>
    </contour>
  </outline>
</glyph>
<glyph name="e_mon" format="2">
  <advance width="607"/>
  <unicode hex="1028"/>
  <note>
e_mon
</note>
  <outline>
    <contour>
      <point x="341" y="-467" type="curve" smooth="yes"/>
      <point x="488" y="-467"/>
      <point x="580" y="-355"/>
      <point x="580" y="-227" type="curve" smooth="yes"/>
      <point x="580" y="-205" type="line"/>
      <point x="554" y="-205" type="line"/>
      <point x="554" y="-227" type="line" smooth="yes"/>
      <point x="554" y="-343"/>
      <point x="474" y="-441"/>
      <point x="341" y="-441" type="curve" smooth="yes"/>
      <point x="201" y="-441"/>
      <point x="129" y="-348"/>
      <point x="129" y="-164" type="curve" smooth="yes"/>
      <point x="129" y="253" type="line" smooth="yes"/>
      <point x="129" y="404"/>
      <point x="212" y="520"/>
      <point x="336" y="520" type="curve" smooth="yes"/>
      <point x="469" y="520"/>
      <point x="554" y="416"/>
      <point x="554" y="275" type="curve" smooth="yes"/>
      <point x="554" y="123"/>
      <point x="480" y="16"/>
      <point x="403" y="16" type="curve" smooth="yes"/>
      <point x="369" y="16"/>
      <point x="355" y="35"/>
      <point x="355" y="64" type="curve" smooth="yes"/>
      <point x="355" y="96"/>
      <point x="368" y="114"/>
      <point x="389" y="142" type="curve" smooth="yes"/>
      <point x="403" y="161"/>
      <point x="435" y="193"/>
      <point x="435" y="240" type="curve" smooth="yes"/>
      <point x="435" y="295"/>
      <point x="402" y="329"/>
      <point x="354" y="329" type="curve" smooth="yes"/>
      <point x="302" y="329"/>
      <point x="271" y="292"/>
      <point x="252" y="251" type="curve"/>
      <point x="275" y="238" type="line"/>
      <point x="291" y="272"/>
      <point x="312" y="303"/>
      <point x="354" y="303" type="curve" smooth="yes"/>
      <point x="392" y="303"/>
      <point x="409" y="277"/>
      <point x="409" y="240" type="curve" smooth="yes"/>
      <point x="409" y="205"/>
      <point x="388" y="180"/>
      <point x="371" y="160" type="curve" smooth="yes"/>
      <point x="345" y="128"/>
      <point x="329" y="102"/>
      <point x="329" y="64" type="curve" smooth="yes"/>
      <point x="329" y="20"/>
      <point x="357" y="-10"/>
      <point x="403" y="-10" type="curve" smooth="yes"/>
      <point x="493" y="-10"/>
      <point x="580" y="105"/>
      <point x="580" y="275" type="curve" smooth="yes"/>
      <point x="580" y="427"/>
      <point x="486" y="546"/>
      <point x="334" y="546" type="curve" smooth="yes"/>
      <point x="196" y="546"/>
      <point x="103" y="416"/>
      <point x="103" y="253" type="curve" smooth="yes"/>
      <point x="103" y="-164" type="line" smooth="yes"/>
      <point x="103" y="-364"/>
      <point x="188" y="-467"/>
    </contour>
  </outline>
</glyph>
<glyph name="o_m" format="2">
  <advance width="1275"/>
  <unicode hex="1029"/>
  <note>
o_m
</note>
  <outline>
    <contour>
      <point x="255" y="-468" type="curve" smooth="yes"/>
      <point x="1016" y="-468" type="line" smooth="yes"/>
      <point x="1142" y="-468"/>
      <point x="1206" y="-399"/>
      <point x="1206" y="-269" type="curve" smooth="yes"/>
      <point x="1206" y="176" type="line"/>
      <point x="1180" y="176" type="line"/>
      <point x="1180" y="-269" type="line" smooth="yes"/>
      <point x="1180" y="-383"/>
      <point x="1130" y="-442"/>
      <point x="1016" y="-442" type="curve" smooth="yes"/>
      <point x="255" y="-442" type="line" smooth="yes"/>
      <point x="147" y="-442"/>
      <point x="90" y="-388"/>
      <point x="90" y="-269" type="curve" smooth="yes"/>
      <point x="90" y="803" type="line" smooth="yes"/>
      <point x="90" y="922"/>
      <point x="147" y="976"/>
      <point x="255" y="976" type="curve" smooth="yes"/>
      <point x="1016" y="976" type="line" smooth="yes"/>
      <point x="1130" y="976"/>
      <point x="1180" y="917"/>
      <point x="1180" y="803" type="curve" smooth="yes"/>
      <point x="1180" y="766" type="line"/>
      <point x="1206" y="766" type="line"/>
      <point x="1206" y="803" type="line" smooth="yes"/>
      <point x="1206" y="933"/>
      <point x="1142" y="1002"/>
      <point x="1016" y="1002" type="curve" smooth="yes"/>
      <point x="255" y="1002" type="line" smooth="yes"/>
      <point x="129" y="1002"/>
      <point x="65" y="933"/>
      <point x="65" y="803" type="curve" smooth="yes"/>
      <point x="65" y="-269" type="line" smooth="yes"/>
      <point x="65" y="-399"/>
      <point x="129" y="-468"/>
    </contour>
    <contour>
      <point x="459" y="-10" type="curve" smooth="yes"/>
      <point x="619" y="-10"/>
      <point x="714" y="111"/>
      <point x="714" y="261" type="curve" smooth="yes"/>
      <point x="714" y="408"/>
      <point x="623" y="536"/>
      <point x="459" y="536" type="curve" smooth="yes"/>
      <point x="338" y="536"/>
      <point x="250" y="469"/>
      <point x="211" y="374" type="curve"/>
      <point x="235" y="364" type="line"/>
      <point x="269" y="451"/>
      <point x="348" y="510"/>
      <point x="459" y="510" type="curve" smooth="yes"/>
      <point x="608" y="510"/>
      <point x="688" y="396"/>
      <point x="688" y="261" type="curve" smooth="yes"/>
      <point x="688" y="109"/>
      <point x="590" y="16"/>
      <point x="459" y="16" type="curve" smooth="yes"/>
      <point x="348" y="16"/>
      <point x="264" y="75"/>
      <point x="231" y="170" type="curve"/>
      <point x="207" y="159" type="line"/>
      <point x="244" y="57"/>
      <point x="336" y="-10"/>
    </contour>
    <contour>
      <point x="968" y="-8" type="curve" smooth="yes"/>
      <point x="1129" y="-8"/>
      <point x="1220" y="116"/>
      <point x="1220" y="277" type="curve" smooth="yes"/>
      <point x="1220" y="438"/>
      <point x="1118" y="536"/>
      <point x="968" y="536" type="curve" smooth="yes"/>
      <point x="911" y="536"/>
      <point x="869" y="531"/>
      <point x="828" y="516" type="curve"/>
      <point x="842" y="493" type="line"/>
      <point x="876" y="506"/>
      <point x="925" y="510"/>
      <point x="968" y="510" type="curve" smooth="yes"/>
      <point x="1103" y="510"/>
      <point x="1194" y="425"/>
      <point x="1194" y="277" type="curve" smooth="yes"/>
      <point x="1194" y="132"/>
      <point x="1119" y="18"/>
      <point x="968" y="18" type="curve" smooth="yes"/>
      <point x="862" y="18"/>
      <point x="784" y="57"/>
      <point x="701" y="183" type="curve"/>
      <point x="689" y="154" type="line"/>
      <point x="754" y="51"/>
      <point x="846" y="-8"/>
    </contour>
  </outline>
</glyph>
<glyph name="_tall_aa" format="2">
  <advance width="215"/>
  <unicode hex="102B"/>
  <note>
_tall_aa
</note>
  <outline>
    <contour>
      <point x="87" y="0" type="line"/>
      <point x="113" y="0" type="line"/>
      <point x="113" y="809" type="line" smooth="yes"/>
      <point x="113" y="929"/>
      <point x="60" y="1002"/>
      <point x="-33" y="1002" type="curve" smooth="yes"/>
      <point x="-115" y="1002"/>
      <point x="-181" y="942"/>
      <point x="-181" y="819" type="curve" smooth="yes"/>
      <point x="-181" y="771" type="line"/>
      <point x="-155" y="771" type="line"/>
      <point x="-155" y="819" type="line" smooth="yes"/>
      <point x="-155" y="926"/>
      <point x="-106" y="976"/>
      <point x="-33" y="976" type="curve" smooth="yes"/>
      <point x="51" y="976"/>
      <point x="87" y="908"/>
      <point x="87" y="809" type="curve" smooth="yes"/>
    </contour>
  </outline>
</glyph>
<glyph name="_aa" format="2">
  <advance width="492"/>
  <unicode hex="102C"/>
  <note>
_aa
</note>
  <outline>
    <contour>
      <point x="176" y="-8" type="curve" smooth="yes"/>
      <point x="326" y="-8"/>
      <point x="428" y="90"/>
      <point x="428" y="251" type="curve" smooth="yes"/>
      <point x="428" y="412"/>
      <point x="337" y="536"/>
      <point x="171" y="536" type="curve" smooth="yes"/>
      <point x="40" y="536"/>
      <point x="-60" y="479"/>
      <point x="-115" y="415" type="curve"/>
      <point x="-107" y="389" type="line"/>
      <point x="-39" y="461"/>
      <point x="47" y="510"/>
      <point x="171" y="510" type="curve" smooth="yes"/>
      <point x="327" y="510"/>
      <point x="402" y="396"/>
      <point x="402" y="251" type="curve" smooth="yes"/>
      <point x="402" y="103"/>
      <point x="311" y="18"/>
      <point x="176" y="18" type="curve" smooth="yes"/>
      <point x="133" y="18"/>
      <point x="84" y="22"/>
      <point x="50" y="35" type="curve"/>
      <point x="36" y="12" type="line"/>
      <point x="77" y="-3"/>
      <point x="109" y="-8"/>
    </contour>
  </outline>
</glyph>
<glyph name="_i" format="2">
  <unicode hex="102D"/>
  <note>
_i
</note>
  <outline>
    <contour>
      <point x="-293" y="627" type="curve" smooth="yes"/>
      <point x="-190" y="627"/>
      <point x="-120" y="704"/>
      <point x="-120" y="811" type="curve" smooth="yes"/>
      <point x="-120" y="909"/>
      <point x="-182" y="997"/>
      <point x="-293" y="997" type="curve" smooth="yes"/>
      <point x="-388" y="997"/>
      <point x="-465" y="918"/>
      <point x="-465" y="811" type="curve" smooth="yes"/>
      <point x="-465" y="716"/>
      <point x="-404" y="627"/>
    </contour>
    <contour>
      <point x="-293" y="653" type="curve" smooth="yes"/>
      <point x="-386" y="653"/>
      <point x="-439" y="724"/>
      <point x="-439" y="811" type="curve" smooth="yes"/>
      <point x="-439" y="905"/>
      <point x="-373" y="971"/>
      <point x="-293" y="971" type="curve" smooth="yes"/>
      <point x="-200" y="971"/>
      <point x="-146" y="898"/>
      <point x="-146" y="811" type="curve" smooth="yes"/>
      <point x="-146" y="709"/>
      <point x="-211" y="653"/>
    </contour>
  </outline>
</glyph>
<glyph name="_ii" format="2">
  <unicode hex="102E"/>
  <note>
_ii
</note>
  <outline>
    <contour>
      <point x="-293" y="627" type="curve" smooth="yes"/>
      <point x="-190" y="627"/>
      <point x="-120" y="704"/>
      <point x="-120" y="811" type="curve" smooth="yes"/>
      <point x="-120" y="909"/>
      <point x="-182" y="997"/>
      <point x="-293" y="997" type="curve" smooth="yes"/>
      <point x="-388" y="997"/>
      <point x="-465" y="918"/>
      <point x="-465" y="811" type="curve" smooth="yes"/>
      <point x="-465" y="716"/>
      <point x="-404" y="627"/>
    </contour>
    <contour>
      <point x="-293" y="653" type="curve" smooth="yes"/>
      <point x="-386" y="653"/>
      <point x="-439" y="724"/>
      <point x="-439" y="811" type="curve" smooth="yes"/>
      <point x="-439" y="905"/>
      <point x="-373" y="971"/>
      <point x="-293" y="971" type="curve" smooth="yes"/>
      <point x="-200" y="971"/>
      <point x="-146" y="898"/>
      <point x="-146" y="811" type="curve" smooth="yes"/>
      <point x="-146" y="709"/>
      <point x="-211" y="653"/>
    </contour>
    <contour>
      <point x="-426" y="726" type="line"/>
      <point x="-386" y="761"/>
      <point x="-345" y="783"/>
      <point x="-294" y="783" type="curve" smooth="yes"/>
      <point x="-243" y="783"/>
      <point x="-202" y="761"/>
      <point x="-162" y="726" type="curve"/>
      <point x="-146" y="746" type="line"/>
      <point x="-186" y="779"/>
      <point x="-225" y="809"/>
      <point x="-294" y="809" type="curve" smooth="yes"/>
      <point x="-363" y="809"/>
      <point x="-402" y="779"/>
      <point x="-442" y="746" type="curve"/>
    </contour>
  </outline>
</glyph>
<glyph name="_u" format="2">
  <unicode hex="102F"/>
  <note>
_u
</note>
  <outline>
    <contour>
      <point x="-366" y="-468" type="line"/>
      <point x="-170" y="-468" type="line"/>
      <point x="-170" y="-442" type="line"/>
      <point x="-340" y="-442" type="line"/>
      <point x="-340" y="-51" type="line"/>
      <point x="-366" y="-51" type="line"/>
    </contour>
  </outline>
</glyph>
<glyph name="_uu" format="2">
  <unicode hex="1030"/>
  <note>
_uu
</note>
  <outline>
    <contour>
      <point x="-319" y="-468" type="line"/>
      <point x="-125" y="-468" type="line"/>
      <point x="-125" y="-442" type="line"/>
      <point x="-293" y="-442" type="line"/>
      <point x="-293" y="-51" type="line"/>
      <point x="-319" y="-51" type="line"/>
    </contour>
    <contour>
      <point x="-481" y="-468" type="line"/>
      <point x="-455" y="-468" type="line"/>
      <point x="-455" y="-51" type="line"/>
      <point x="-481" y="-51" type="line"/>
    </contour>
  </outline>
</glyph>
<glyph name="_e" format="2">
  <advance width="611"/>
  <unicode hex="1031"/>
  <note>
_e
</note>
  <outline>
    <contour>
      <point x="305" y="-10" type="curve" smooth="yes"/>
      <point x="423" y="-10"/>
      <point x="507" y="47"/>
      <point x="551" y="145" type="curve"/>
      <point x="499" y="203"/>
      <point x="426" y="242"/>
      <point x="338" y="242" type="curve" smooth="yes"/>
      <point x="214" y="242"/>
      <point x="134" y="185"/>
      <point x="91" y="131" type="curve"/>
      <point x="110" y="116" type="line"/>
      <point x="156" y="164"/>
      <point x="219" y="216"/>
      <point x="338" y="216" type="curve" smooth="yes"/>
      <point x="413" y="216"/>
      <point x="476" y="184"/>
      <point x="518" y="141" type="curve"/>
      <point x="480" y="61"/>
      <point x="406" y="16"/>
      <point x="305" y="16" type="curve" smooth="yes"/>
      <point x="178" y="16"/>
      <point x="81" y="114"/>
      <point x="81" y="261" type="curve" smooth="yes"/>
      <point x="81" y="401"/>
      <point x="170" y="510"/>
      <point x="315" y="510" type="curve" smooth="yes"/>
      <point x="432" y="510"/>
      <point x="507" y="449"/>
      <point x="538" y="363" type="curve"/>
      <point x="561" y="375" type="line"/>
      <point x="526" y="468"/>
      <point x="442" y="536"/>
      <point x="315" y="536" type="curve" smooth="yes"/>
      <point x="156" y="536"/>
      <point x="55" y="413"/>
      <point x="55" y="261" type="curve" smooth="yes"/>
      <point x="55" y="103"/>
      <point x="161" y="-10"/>
    </contour>
  </outline>
</glyph>
<glyph name="_ai" format="2">
  <unicode hex="1032"/>
  <note>
_ai
</note>
  <outline>
    <contour>
      <point x="-191" y="613" type="line"/>
      <point x="-173" y="632" type="line"/>
      <point x="-355" y="846" type="line"/>
      <point x="-375" y="829" type="line"/>
    </contour>
  </outline>
</glyph>
<glyph name="_ii_mon" format="2">
  <unicode hex="1033"/>
  <note>
_ii_mon
</note>
  <outline>
    <contour>
      <point x="-315" y="627" type="curve" smooth="yes"/>
      <point x="-212" y="627"/>
      <point x="-128" y="700"/>
      <point x="-128" y="812" type="curve" smooth="yes"/>
      <point x="-128" y="916"/>
      <point x="-208" y="995"/>
      <point x="-315" y="995" type="curve" smooth="yes"/>
      <point x="-421" y="995"/>
      <point x="-499" y="910"/>
      <point x="-499" y="812" type="curve" smooth="yes"/>
      <point x="-499" y="707"/>
      <point x="-419" y="627"/>
    </contour>
    <contour>
      <point x="-315" y="654" type="curve" smooth="yes"/>
      <point x="-404" y="654"/>
      <point x="-473" y="717"/>
      <point x="-473" y="812" type="curve" smooth="yes"/>
      <point x="-473" y="903"/>
      <point x="-405" y="969"/>
      <point x="-315" y="969" type="curve" smooth="yes"/>
      <point x="-222" y="969"/>
      <point x="-154" y="898"/>
      <point x="-154" y="812" type="curve" smooth="yes"/>
      <point x="-154" y="710"/>
      <point x="-223" y="654"/>
    </contour>
    <contour>
      <point x="-315" y="734" type="curve" smooth="yes"/>
      <point x="-272" y="734"/>
      <point x="-235" y="767"/>
      <point x="-235" y="812" type="curve" smooth="yes"/>
      <point x="-235" y="859"/>
      <point x="-269" y="889"/>
      <point x="-315" y="889" type="curve" smooth="yes"/>
      <point x="-360" y="889"/>
      <point x="-392" y="858"/>
      <point x="-392" y="812" type="curve" smooth="yes"/>
      <point x="-392" y="766"/>
      <point x="-356" y="734"/>
    </contour>
    <contour>
      <point x="-315" y="760" type="curve" smooth="yes"/>
      <point x="-344" y="760"/>
      <point x="-366" y="781"/>
      <point x="-366" y="812" type="curve" smooth="yes"/>
      <point x="-366" y="843"/>
      <point x="-341" y="863"/>
      <point x="-315" y="863" type="curve" smooth="yes"/>
      <point x="-283" y="863"/>
      <point x="-261" y="843"/>
      <point x="-261" y="812" type="curve" smooth="yes"/>
      <point x="-261" y="781"/>
      <point x="-282" y="760"/>
    </contour>
  </outline>
</glyph>
<glyph name="_o_mon" format="2">
  <unicode hex="1034"/>
  <note>
_o_mon
</note>
  <outline>
    <contour>
      <point x="-404" y="621" type="line"/>
      <point x="-232" y="833" type="line"/>
      <point x="-255" y="848" type="line"/>
      <point x="-425" y="642" type="line"/>
    </contour>
  </outline>
</glyph>
<glyph name="_e_above" format="2">
  <unicode hex="1035"/>
  <note>
_e_above
</note>
  <outline>
    <contour>
      <point x="-293" y="627" type="curve" smooth="yes"/>
      <point x="-212" y="627"/>
      <point x="-147" y="669"/>
      <point x="-117" y="740" type="curve"/>
      <point x="-164" y="780"/>
      <point x="-217" y="803"/>
      <point x="-285" y="803" type="curve" smooth="yes"/>
      <point x="-360" y="803"/>
      <point x="-414" y="778"/>
      <point x="-446" y="752" type="curve"/>
      <point x="-431" y="732" type="line"/>
      <point x="-399" y="754"/>
      <point x="-357" y="777"/>
      <point x="-284" y="777" type="curve" smooth="yes"/>
      <point x="-227" y="777"/>
      <point x="-183" y="758"/>
      <point x="-149" y="732" type="curve"/>
      <point x="-178" y="681"/>
      <point x="-231" y="653"/>
      <point x="-294" y="653" type="curve" smooth="yes"/>
      <point x="-389" y="653"/>
      <point x="-446" y="721"/>
      <point x="-446" y="812" type="curve" smooth="yes"/>
      <point x="-446" y="903"/>
      <point x="-388" y="971"/>
      <point x="-293" y="971" type="curve" smooth="yes"/>
      <point x="-216" y="971"/>
      <point x="-162" y="933"/>
      <point x="-139" y="875" type="curve"/>
      <point x="-117" y="888" type="line"/>
      <point x="-143" y="951"/>
      <point x="-204" y="997"/>
      <point x="-293" y="997" type="curve" smooth="yes"/>
      <point x="-403" y="997"/>
      <point x="-472" y="915"/>
      <point x="-472" y="812" type="curve" smooth="yes"/>
      <point x="-472" y="705"/>
      <point x="-402" y="627"/>
    </contour>
  </outline>
</glyph>
<glyph name="anusvara" format="2">
  <unicode hex="1036"/>
  <note>
anusvara
</note>
  <outline>
    <contour>
      <point x="-321" y="642" type="curve" smooth="yes"/>
      <point x="-269" y="642"/>
      <point x="-230" y="676"/>
      <point x="-230" y="735" type="curve" smooth="yes"/>
      <point x="-230" y="792"/>
      <point x="-269" y="826"/>
      <point x="-321" y="826" type="curve" smooth="yes"/>
      <point x="-374" y="826"/>
      <point x="-411" y="786"/>
      <point x="-411" y="734" type="curve" smooth="yes"/>
      <point x="-411" y="678"/>
      <point x="-375" y="642"/>
    </contour>
    <contour>
      <point x="-320" y="668" type="curve" smooth="yes"/>
      <point x="-361" y="668"/>
      <point x="-385" y="690"/>
      <point x="-385" y="734" type="curve" smooth="yes"/>
      <point x="-385" y="772"/>
      <point x="-360" y="800"/>
      <point x="-320" y="800" type="curve" smooth="yes"/>
      <point x="-282" y="800"/>
      <point x="-256" y="772"/>
      <point x="-256" y="734" type="curve" smooth="yes"/>
      <point x="-256" y="692"/>
      <point x="-282" y="668"/>
    </contour>
  </outline>
</glyph>
<glyph name="visarga" format="2">
  <advance width="307"/>
  <unicode hex="1038"/>
  <note>
visarga
</note>
  <outline>
    <contour>
      <point x="152" y="350" type="curve" smooth="yes"/>
      <point x="204" y="350"/>
      <point x="243" y="384"/>
      <point x="243" y="443" type="curve" smooth="yes"/>
      <point x="243" y="500"/>
      <point x="204" y="534"/>
      <point x="152" y="534" type="curve" smooth="yes"/>
      <point x="99" y="534"/>
      <point x="62" y="494"/>
      <point x="62" y="442" type="curve" smooth="yes"/>
      <point x="62" y="386"/>
      <point x="98" y="350"/>
    </contour>
    <contour>
      <point x="153" y="-13" type="curve" smooth="yes"/>
      <point x="205" y="-13"/>
      <point x="244" y="21"/>
      <point x="244" y="80" type="curve" smooth="yes"/>
      <point x="244" y="137"/>
      <point x="205" y="171"/>
      <point x="153" y="171" type="curve" smooth="yes"/>
      <point x="100" y="171"/>
      <point x="63" y="131"/>
      <point x="63" y="79" type="curve" smooth="yes"/>
      <point x="63" y="23"/>
      <point x="99" y="-13"/>
    </contour>
    <contour>
      <point x="154" y="13" type="curve" smooth="yes"/>
      <point x="113" y="13"/>
      <point x="89" y="35"/>
      <point x="89" y="79" type="curve" smooth="yes"/>
      <point x="89" y="117"/>
      <point x="114" y="145"/>
      <point x="154" y="145" type="curve" smooth="yes"/>
      <point x="192" y="145"/>
      <point x="218" y="117"/>
      <point x="218" y="79" type="curve" smooth="yes"/>
      <point x="218" y="37"/>
      <point x="192" y="13"/>
    </contour>
    <contour>
      <point x="153" y="376" type="curve" smooth="yes"/>
      <point x="112" y="376"/>
      <point x="88" y="398"/>
      <point x="88" y="442" type="curve" smooth="yes"/>
      <point x="88" y="480"/>
      <point x="113" y="508"/>
      <point x="153" y="508" type="curve" smooth="yes"/>
      <point x="191" y="508"/>
      <point x="217" y="480"/>
      <point x="217" y="442" type="curve" smooth="yes"/>
      <point x="217" y="400"/>
      <point x="191" y="376"/>
    </contour>
  </outline>
</glyph>
<glyph name="virama" format="2">
  <unicode hex="1039"/>
  <note>
virama
</note>
  <outline>
    <contour>
      <point x="-329" y="-394" type="line"/>
      <point x="-303" y="-394" type="line"/>
      <point x="-303" y="-259" type="line"/>
      <point x="-171" y="-259" type="line"/>
      <point x="-171" y="-233" type="line"/>
      <point x="-303" y="-233" type="line"/>
      <point x="-303" y="-98" type="line"/>
      <point x="-329" y="-98" type="line"/>
      <point x="-329" y="-233" type="line"/>
      <point x="-460" y="-233" type="line"/>
      <point x="-460" y="-259" type="line"/>
      <point x="-329" y="-259" type="line"/>
    </contour>
  </outline>
</glyph>
<glyph name="asat" format="2">
  <unicode hex="103A"/>
  <note>
asat
</note>
  <outline>
    <contour>
      <point x="-366" y="638" type="curve"/>
      <point x="-347" y="657" type="line"/>
      <point x="-407" y="696"/>
      <point x="-438" y="750"/>
      <point x="-438" y="819" type="curve" smooth="yes"/>
      <point x="-438" y="913"/>
      <point x="-379" y="971"/>
      <point x="-298" y="971" type="curve" smooth="yes"/>
      <point x="-239" y="971"/>
      <point x="-206" y="938"/>
      <point x="-183" y="899" type="curve"/>
      <point x="-162" y="913" type="line"/>
      <point x="-188" y="958"/>
      <point x="-228" y="997"/>
      <point x="-298" y="997" type="curve" smooth="yes"/>
      <point x="-387" y="997"/>
      <point x="-464" y="933"/>
      <point x="-464" y="819" type="curve" smooth="yes"/>
      <point x="-464" y="725"/>
      <point x="-413" y="673"/>
    </contour>
  </outline>
</glyph>
<glyph name="medial_ya" format="2">
  <advance width="196"/>
  <unicode hex="103B"/>
  <note>
medial_ya
</note>
  <outline>
    <contour>
      <point x="111" y="-458" type="line"/>
      <point x="111" y="516" type="line"/>
      <point x="85" y="516" type="line"/>
      <point x="85" y="-419" type="line"/>
      <point x="-98" y="-336" type="line"/>
      <point x="-98" y="114" type="line"/>
      <point x="-124" y="114" type="line"/>
      <point x="-124" y="-353" type="line"/>
    </contour>
  </outline>
</glyph>
<glyph name="medial_ra" format="2">
  <advance width="152"/>
  <unicode hex="103C"/>
  <note>
medial_ra
</note>
  <outline>
    <contour>
      <point x="255" y="-468" type="curve" smooth="yes"/>
      <point x="522" y="-468" type="line" smooth="yes"/>
      <point x="648" y="-468"/>
      <point x="712" y="-399"/>
      <point x="712" y="-269" type="curve" smooth="yes"/>
      <point x="712" y="176" type="line"/>
      <point x="686" y="176" type="line"/>
      <point x="686" y="-269" type="line" smooth="yes"/>
      <point x="686" y="-383"/>
      <point x="636" y="-442"/>
      <point x="522" y="-442" type="curve" smooth="yes"/>
      <point x="255" y="-442" type="line" smooth="yes"/>
      <point x="147" y="-442"/>
      <point x="90" y="-388"/>
      <point x="90" y="-269" type="curve" smooth="yes"/>
      <point x="90" y="803" type="line" smooth="yes"/>
      <point x="90" y="922"/>
      <point x="147" y="976"/>
      <point x="255" y="976" type="curve" smooth="yes"/>
      <point x="522" y="976" type="line" smooth="yes"/>
      <point x="636" y="976"/>
      <point x="686" y="917"/>
      <point x="686" y="803" type="curve" smooth="yes"/>
      <point x="686" y="766" type="line"/>
      <point x="712" y="766" type="line"/>
      <point x="712" y="803" type="line" smooth="yes"/>
      <point x="712" y="933"/>
      <point x="648" y="1002"/>
      <point x="522" y="1002" type="curve" smooth="yes"/>
      <point x="255" y="1002" type="line" smooth="yes"/>
      <point x="129" y="1002"/>
      <point x="65" y="933"/>
      <point x="65" y="803" type="curve" smooth="yes"/>
      <point x="65" y="-269" type="line" smooth="yes"/>
      <point x="65" y="-399"/>
      <point x="129" y="-468"/>
    </contour>
  </outline>
</glyph>
<glyph name="medial_wa" format="2">
  <unicode hex="103D"/>
  <note>
medial_wa
</note>
  <outline>
    <contour>
      <point x="-325" y="-408" type="curve" smooth="yes"/>
      <point x="-230" y="-408"/>
      <point x="-166" y="-335"/>
      <point x="-166" y="-234" type="curve" smooth="yes"/>
      <point x="-166" y="-137"/>
      <point x="-224" y="-51"/>
      <point x="-328" y="-51" type="curve" smooth="yes"/>
      <point x="-420" y="-51"/>
      <point x="-488" y="-125"/>
      <point x="-488" y="-234" type="curve" smooth="yes"/>
      <point x="-488" y="-324"/>
      <point x="-430" y="-408"/>
    </contour>
    <contour>
      <point x="-325" y="-383" type="curve" smooth="yes"/>
      <point x="-412" y="-383"/>
      <point x="-462" y="-317"/>
      <point x="-462" y="-234" type="curve" smooth="yes"/>
      <point x="-462" y="-139"/>
      <point x="-408" y="-76"/>
      <point x="-328" y="-76" type="curve" smooth="yes"/>
      <point x="-242" y="-76"/>
      <point x="-192" y="-147"/>
      <point x="-192" y="-234" type="curve" smooth="yes"/>
      <point x="-192" y="-330"/>
      <point x="-251" y="-383"/>
    </contour>
  </outline>
</glyph>
<glyph name="medial_ha" format="2">
  <unicode hex="103E"/>
  <note>
medial_ha
</note>
  <outline>
    <contour>
      <point x="-472" y="-468" type="line"/>
      <point x="-278" y="-468" type="line"/>
      <point x="-278" y="-51" type="line"/>
      <point x="-304" y="-51" type="line"/>
      <point x="-304" y="-442" type="line"/>
      <point x="-472" y="-442" type="line"/>
    </contour>
  </outline>
</glyph>
<glyph name="great_sa" format="2">
  <advance width="1617"/>
  <unicode hex="103F"/>
  <note>
great_sa
</note>
  <outline>
    <contour>
      <point x="302" y="-10" type="curve" smooth="yes"/>
      <point x="462" y="-10"/>
      <point x="557" y="111"/>
      <point x="557" y="261" type="curve" smooth="yes"/>
      <point x="557" y="408"/>
      <point x="466" y="536"/>
      <point x="302" y="536" type="curve" smooth="yes"/>
      <point x="183" y="536"/>
      <point x="97" y="469"/>
      <point x="59" y="374" type="curve"/>
      <point x="83" y="364" type="line"/>
      <point x="116" y="451"/>
      <point x="193" y="510"/>
      <point x="302" y="510" type="curve" smooth="yes"/>
      <point x="451" y="510"/>
      <point x="531" y="396"/>
      <point x="531" y="261" type="curve" smooth="yes"/>
      <point x="531" y="109"/>
      <point x="433" y="16"/>
      <point x="302" y="16" type="curve" smooth="yes"/>
      <point x="193" y="16"/>
      <point x="111" y="75"/>
      <point x="79" y="170" type="curve"/>
      <point x="55" y="159" type="line"/>
      <point x="91" y="57"/>
      <point x="181" y="-10"/>
    </contour>
    <contour>
      <point x="806" y="-8" type="curve" smooth="yes"/>
      <point x="967" y="-8"/>
      <point x="1058" y="116"/>
      <point x="1058" y="277" type="curve" smooth="yes"/>
      <point x="1058" y="438"/>
      <point x="956" y="536"/>
      <point x="806" y="536" type="curve" smooth="yes"/>
      <point x="749" y="536"/>
      <point x="707" y="531"/>
      <point x="666" y="516" type="curve"/>
      <point x="680" y="493" type="line"/>
      <point x="714" y="506"/>
      <point x="763" y="510"/>
      <point x="806" y="510" type="curve" smooth="yes"/>
      <point x="941" y="510"/>
      <point x="1032" y="425"/>
      <point x="1032" y="277" type="curve" smooth="yes"/>
      <point x="1032" y="132"/>
      <point x="957" y="18"/>
      <point x="806" y="18" type="curve" smooth="yes"/>
      <point x="700" y="18"/>
      <point x="622" y="57"/>
      <point x="539" y="183" type="curve"/>
      <point x="527" y="154" type="line"/>
      <point x="592" y="51"/>
      <point x="684" y="-8"/>
    </contour>
    <contour>
      <point x="1310" y="-8" type="curve" smooth="yes"/>
      <point x="1471" y="-8"/>
      <point x="1562" y="116"/>
      <point x="1562" y="277" type="curve" smooth="yes"/>
      <point x="1562" y="438"/>
      <point x="1460" y="536"/>
      <point x="1310" y="536" type="curve" smooth="yes"/>
      <point x="1253" y="536"/>
      <point x="1211" y="531"/>
      <point x="1170" y="516" type="curve"/>
      <point x="1184" y="493" type="line"/>
      <point x="1218" y="506"/>
      <point x="1267" y="510"/>
      <point x="1310" y="510" type="curve" smooth="yes"/>
      <point x="1445" y="510"/>
      <point x="1536" y="425"/>
      <point x="1536" y="277" type="curve" smooth="yes"/>
      <point x="1536" y="132"/>
      <point x="1461" y="18"/>
      <point x="1310" y="18" type="curve" smooth="yes"/>
      <point x="1204" y="18"/>
      <point x="1126" y="57"/>
      <point x="1040" y="186" type="curve"/>
      <point x="1028" y="157" type="line"/>
      <point x="1096" y="51"/>
      <point x="1188" y="-8"/>
    </contour>
  </outline>
</glyph>
<glyph name="zero_m" format="2">
  <advance width="638"/>
  <unicode hex="1040"/>
  <note>
zero_m
</note>
  <outline>
    <contour>
      <point x="315" y="-10" type="curve" smooth="yes"/>
      <point x="470" y="-10"/>
      <point x="572" y="103"/>
      <point x="572" y="261" type="curve" smooth="yes"/>
      <point x="572" y="413"/>
      <point x="475" y="536"/>
      <point x="315" y="536" type="curve" smooth="yes"/>
      <point x="156" y="536"/>
      <point x="65" y="408"/>
      <point x="65" y="261" type="curve" smooth="yes"/>
      <point x="65" y="111"/>
      <point x="160" y="-10"/>
    </contour>
    <contour>
      <point x="315" y="16" type="curve" smooth="yes"/>
      <point x="189" y="16"/>
      <point x="91" y="109"/>
      <point x="91" y="261" type="curve" smooth="yes"/>
      <point x="91" y="396"/>
      <point x="171" y="510"/>
      <point x="315" y="510" type="curve" smooth="yes"/>
      <point x="461" y="510"/>
      <point x="546" y="401"/>
      <point x="546" y="261" type="curve" smooth="yes"/>
      <point x="546" y="114"/>
      <point x="454" y="16"/>
    </contour>
  </outline>
</glyph>
<glyph name="one_m" format="2">
  <advance width="601"/>
  <unicode hex="1041"/>
  <note>
one_m
</note>
  <outline>
    <contour>
      <point x="310" y="-10" type="curve" smooth="yes"/>
      <point x="474" y="-10"/>
      <point x="571" y="111"/>
      <point x="571" y="261" type="curve" smooth="yes"/>
      <point x="571" y="408"/>
      <point x="478" y="536"/>
      <point x="310" y="536" type="curve" smooth="yes"/>
      <point x="194" y="536"/>
      <point x="110" y="469"/>
      <point x="73" y="374" type="curve"/>
      <point x="97" y="364" type="line"/>
      <point x="129" y="451"/>
      <point x="204" y="510"/>
      <point x="310" y="510" type="curve" smooth="yes"/>
      <point x="463" y="510"/>
      <point x="545" y="396"/>
      <point x="545" y="261" type="curve" smooth="yes"/>
      <point x="545" y="109"/>
      <point x="445" y="16"/>
      <point x="310" y="16" type="curve" smooth="yes"/>
      <point x="204" y="16"/>
      <point x="124" y="75"/>
      <point x="93" y="170" type="curve"/>
      <point x="69" y="159" type="line"/>
      <point x="104" y="57"/>
      <point x="192" y="-10"/>
    </contour>
  </outline>
</glyph>
<glyph name="two_m" format="2">
  <advance width="619"/>
  <unicode hex="1042"/>
  <note>
two_m
</note>
  <outline>
    <contour>
      <point x="280" y="-458" type="curve" smooth="yes"/>
      <point x="433" y="-458"/>
      <point x="518" y="-355"/>
      <point x="518" y="-155" type="curve" smooth="yes"/>
      <point x="518" y="526" type="line"/>
      <point x="492" y="526" type="line"/>
      <point x="492" y="-155" type="line" smooth="yes"/>
      <point x="492" y="-339"/>
      <point x="420" y="-432"/>
      <point x="280" y="-432" type="curve" smooth="yes"/>
      <point x="147" y="-432"/>
      <point x="67" y="-334"/>
      <point x="67" y="-218" type="curve" smooth="yes"/>
      <point x="67" y="-196" type="line"/>
      <point x="41" y="-196" type="line"/>
      <point x="41" y="-218" type="line" smooth="yes"/>
      <point x="41" y="-346"/>
      <point x="133" y="-458"/>
    </contour>
  </outline>
</glyph>
<glyph name="three_m" format="2">
  <advance width="626"/>
  <unicode hex="1043"/>
  <note>
three_m
</note>
  <outline>
    <contour>
      <point x="423" y="-468" type="line"/>
      <point x="452" y="-468" type="line"/>
      <point x="283" y="-159" type="line" smooth="yes"/>
      <point x="246" y="-92"/>
      <point x="195" y="5"/>
      <point x="169" y="44" type="curve"/>
      <point x="164" y="44" type="line"/>
      <point x="208" y="9"/>
      <point x="262" y="-10"/>
      <point x="321" y="-10" type="curve" smooth="yes"/>
      <point x="480" y="-10"/>
      <point x="571" y="111"/>
      <point x="571" y="261" type="curve" smooth="yes"/>
      <point x="571" y="408"/>
      <point x="484" y="536"/>
      <point x="321" y="536" type="curve" smooth="yes"/>
      <point x="207" y="536"/>
      <point x="121" y="469"/>
      <point x="83" y="374" type="curve"/>
      <point x="107" y="364" type="line"/>
      <point x="140" y="451"/>
      <point x="217" y="510"/>
      <point x="321" y="510" type="curve" smooth="yes"/>
      <point x="468" y="510"/>
      <point x="545" y="396"/>
      <point x="545" y="261" type="curve" smooth="yes"/>
      <point x="545" y="109"/>
      <point x="451" y="16"/>
      <point x="321" y="16" type="curve" smooth="yes"/>
      <point x="222" y="16"/>
      <point x="153" y="69"/>
      <point x="103" y="170" type="curve"/>
      <point x="79" y="159" type="line"/>
    </contour>
  </outline>
</glyph>
<glyph name="four_m" format="2">
  <advance width="636"/>
  <unicode hex="1044"/>
  <note>
four_m
</note>
  <outline>
    <contour>
      <point x="184" y="-468" type="line"/>
      <point x="213" y="-468" type="line"/>
      <point x="557" y="159" type="line"/>
      <point x="533" y="170" type="line"/>
      <point x="483" y="69"/>
      <point x="414" y="16"/>
      <point x="315" y="16" type="curve" smooth="yes"/>
      <point x="179" y="16"/>
      <point x="81" y="109"/>
      <point x="81" y="261" type="curve" smooth="yes"/>
      <point x="81" y="396"/>
      <point x="161" y="510"/>
      <point x="315" y="510" type="curve" smooth="yes"/>
      <point x="419" y="510"/>
      <point x="496" y="451"/>
      <point x="529" y="364" type="curve"/>
      <point x="553" y="374" type="line"/>
      <point x="515" y="469"/>
      <point x="429" y="536"/>
      <point x="315" y="536" type="curve" smooth="yes"/>
      <point x="145" y="536"/>
      <point x="55" y="408"/>
      <point x="55" y="261" type="curve" smooth="yes"/>
      <point x="55" y="111"/>
      <point x="150" y="-10"/>
      <point x="315" y="-10" type="curve" smooth="yes"/>
      <point x="373" y="-10"/>
      <point x="428" y="10"/>
      <point x="472" y="45" type="curve"/>
      <point x="470" y="49" type="line"/>
      <point x="444" y="9"/>
      <point x="391" y="-90"/>
      <point x="353" y="-159" type="curve" smooth="yes"/>
    </contour>
  </outline>
</glyph>
<glyph name="five_m" format="2">
  <advance width="625"/>
  <unicode hex="1045"/>
  <note>
five_m
</note>
  <outline>
    <contour>
      <point x="282" y="-458" type="curve" smooth="yes"/>
      <point x="435" y="-458"/>
      <point x="520" y="-355"/>
      <point x="520" y="-155" type="curve" smooth="yes"/>
      <point x="520" y="279" type="line" smooth="yes"/>
      <point x="520" y="433"/>
      <point x="449" y="534"/>
      <point x="303" y="534" type="curve" smooth="yes"/>
      <point x="173" y="534"/>
      <point x="83" y="418"/>
      <point x="83" y="302" type="curve" smooth="yes"/>
      <point x="83" y="181"/>
      <point x="146" y="135"/>
      <point x="215" y="135" type="curve" smooth="yes"/>
      <point x="286" y="135"/>
      <point x="344" y="191"/>
      <point x="344" y="262" type="curve" smooth="yes"/>
      <point x="344" y="329"/>
      <point x="290" y="389"/>
      <point x="215" y="389" type="curve" smooth="yes"/>
      <point x="166" y="389"/>
      <point x="128" y="365"/>
      <point x="112" y="337" type="curve"/>
      <point x="127" y="419"/>
      <point x="190" y="508"/>
      <point x="303" y="508" type="curve" smooth="yes"/>
      <point x="436" y="508"/>
      <point x="494" y="417"/>
      <point x="494" y="279" type="curve" smooth="yes"/>
      <point x="494" y="-155" type="line" smooth="yes"/>
      <point x="494" y="-339"/>
      <point x="422" y="-432"/>
      <point x="282" y="-432" type="curve" smooth="yes"/>
      <point x="149" y="-432"/>
      <point x="69" y="-334"/>
      <point x="69" y="-218" type="curve" smooth="yes"/>
      <point x="69" y="-196" type="line"/>
      <point x="43" y="-196" type="line"/>
      <point x="43" y="-218" type="line" smooth="yes"/>
      <point x="43" y="-346"/>
      <point x="135" y="-458"/>
    </contour>
    <contour>
      <point x="215" y="161" type="curve" smooth="yes"/>
      <point x="153" y="161"/>
      <point x="114" y="208"/>
      <point x="114" y="262" type="curve" smooth="yes"/>
      <point x="114" y="318"/>
      <point x="151" y="363"/>
      <point x="215" y="363" type="curve" smooth="yes"/>
      <point x="278" y="363"/>
      <point x="318" y="314"/>
      <point x="318" y="262" type="curve" smooth="yes"/>
      <point x="318" y="203"/>
      <point x="273" y="161"/>
    </contour>
  </outline>
</glyph>
<glyph name="six_m" format="2">
  <advance width="635"/>
  <unicode hex="1046"/>
  <note>
six_m
</note>
  <outline>
    <contour>
      <point x="349" y="-10" type="curve" smooth="yes"/>
      <point x="513" y="-10"/>
      <point x="611" y="104"/>
      <point x="611" y="257" type="curve" smooth="yes"/>
      <point x="611" y="312"/>
      <point x="582" y="346"/>
      <point x="527" y="346" type="curve" smooth="yes"/>
      <point x="456" y="346"/>
      <point x="423" y="286"/>
      <point x="354" y="286" type="curve" smooth="yes"/>
      <point x="285" y="286"/>
      <point x="247" y="335"/>
      <point x="247" y="405" type="curve" smooth="yes"/>
      <point x="247" y="454"/>
      <point x="281" y="511"/>
      <point x="358" y="511" type="curve" smooth="yes"/>
      <point x="388" y="511"/>
      <point x="414" y="503"/>
      <point x="426" y="481" type="curve"/>
      <point x="450" y="494" type="line"/>
      <point x="428" y="525"/>
      <point x="395" y="537"/>
      <point x="358" y="537" type="curve" smooth="yes"/>
      <point x="265" y="537"/>
      <point x="221" y="465"/>
      <point x="221" y="405" type="curve" smooth="yes"/>
      <point x="221" y="323"/>
      <point x="269" y="260"/>
      <point x="354" y="260" type="curve" smooth="yes"/>
      <point x="427" y="260"/>
      <point x="464" y="320"/>
      <point x="527" y="320" type="curve" smooth="yes"/>
      <point x="577" y="320"/>
      <point x="585" y="292"/>
      <point x="585" y="257" type="curve" smooth="yes"/>
      <point x="585" y="115"/>
      <point x="496" y="16"/>
      <point x="349" y="16" type="curve" smooth="yes"/>
      <point x="180" y="16"/>
      <point x="91" y="112"/>
      <point x="91" y="276" type="curve" smooth="yes"/>
      <point x="91" y="676" type="line" smooth="yes"/>
      <point x="91" y="876"/>
      <point x="183" y="956"/>
      <point x="344" y="956" type="curve" smooth="yes"/>
      <point x="497" y="956"/>
      <point x="585" y="851"/>
      <point x="585" y="750" type="curve" smooth="yes"/>
      <point x="585" y="742" type="line"/>
      <point x="611" y="742" type="line"/>
      <point x="611" y="750" type="line" smooth="yes"/>
      <point x="611" y="868"/>
      <point x="507" y="982"/>
      <point x="344" y="982" type="curve" smooth="yes"/>
      <point x="169" y="982"/>
      <point x="65" y="889"/>
      <point x="65" y="676" type="curve" smooth="yes"/>
      <point x="65" y="276" type="line" smooth="yes"/>
      <point x="65" y="102"/>
      <point x="162" y="-10"/>
    </contour>
  </outline>
</glyph>
<glyph name="seven_m" format="2">
  <advance width="643"/>
  <unicode hex="1047"/>
  <note>
seven_m
</note>
  <outline>
    <contour>
      <point x="344" y="-458" type="curve" smooth="yes"/>
      <point x="402" y="-458"/>
      <point x="440" y="-435"/>
      <point x="470" y="-383" type="curve"/>
      <point x="450" y="-367" type="line"/>
      <point x="423" y="-412"/>
      <point x="396" y="-432"/>
      <point x="344" y="-432" type="curve" smooth="yes"/>
      <point x="275" y="-432"/>
      <point x="238" y="-394"/>
      <point x="238" y="-329" type="curve" smooth="yes"/>
      <point x="238" y="-248"/>
      <point x="311" y="-135"/>
      <point x="419" y="-8" type="curve" smooth="yes"/>
      <point x="522" y="113"/>
      <point x="582" y="188"/>
      <point x="582" y="306" type="curve" smooth="yes"/>
      <point x="582" y="443"/>
      <point x="462" y="536"/>
      <point x="322" y="536" type="curve" smooth="yes"/>
      <point x="152" y="536"/>
      <point x="55" y="431"/>
      <point x="55" y="271" type="curve" smooth="yes"/>
      <point x="55" y="151"/>
      <point x="116" y="80"/>
      <point x="173" y="50" type="curve"/>
      <point x="188" y="67" type="line"/>
      <point x="141" y="95"/>
      <point x="81" y="155"/>
      <point x="81" y="271" type="curve" smooth="yes"/>
      <point x="81" y="415"/>
      <point x="163" y="510"/>
      <point x="322" y="510" type="curve" smooth="yes"/>
      <point x="461" y="510"/>
      <point x="556" y="421"/>
      <point x="556" y="306" type="curve" smooth="yes"/>
      <point x="556" y="181"/>
      <point x="480" y="106"/>
      <point x="393" y="2" type="curve" smooth="yes"/>
      <point x="265" y="-151"/>
      <point x="212" y="-245"/>
      <point x="212" y="-329" type="curve" smooth="yes"/>
      <point x="212" y="-403"/>
      <point x="258" y="-458"/>
    </contour>
  </outline>
</glyph>
<glyph name="eight_m" format="2">
  <advance width="624"/>
  <unicode hex="1048"/>
  <note>
eight_m
</note>
  <outline>
    <contour>
      <point x="163" y="-12" type="curve"/>
      <point x="231" y="53"/>
      <point x="277" y="143"/>
      <point x="277" y="236" type="curve" smooth="yes"/>
      <point x="277" y="360"/>
      <point x="215" y="432"/>
      <point x="157" y="471" type="curve"/>
      <point x="142" y="452" type="line"/>
      <point x="194" y="411"/>
      <point x="251" y="354"/>
      <point x="251" y="236" type="curve" smooth="yes"/>
      <point x="251" y="157"/>
      <point x="211" y="73"/>
      <point x="162" y="25" type="curve"/>
      <point x="116" y="71"/>
      <point x="81" y="149"/>
      <point x="81" y="248" type="curve" smooth="yes"/>
      <point x="81" y="402"/>
      <point x="173" y="510"/>
      <point x="312" y="510" type="curve" smooth="yes"/>
      <point x="439" y="510"/>
      <point x="543" y="418"/>
      <point x="543" y="251" type="curve" smooth="yes"/>
      <point x="543" y="167"/>
      <point x="499" y="52"/>
      <point x="439" y="10" type="curve"/>
      <point x="457" y="-10" type="line"/>
      <point x="519" y="38"/>
      <point x="569" y="151"/>
      <point x="569" y="251" type="curve" smooth="yes"/>
      <point x="569" y="422"/>
      <point x="460" y="536"/>
      <point x="312" y="536" type="curve" smooth="yes"/>
      <point x="161" y="536"/>
      <point x="55" y="420"/>
      <point x="55" y="248" type="curve" smooth="yes"/>
      <point x="55" y="131"/>
      <point x="101" y="41"/>
    </contour>
  </outline>
</glyph>
<glyph name="nine_m" format="2">
  <advance width="635"/>
  <unicode hex="1049"/>
  <note>
nine_m
</note>
  <outline>
    <contour>
      <point x="344" y="-458" type="curve" smooth="yes"/>
      <point x="507" y="-458"/>
      <point x="611" y="-344"/>
      <point x="611" y="-226" type="curve" smooth="yes"/>
      <point x="611" y="-218" type="line"/>
      <point x="585" y="-218" type="line"/>
      <point x="585" y="-226" type="line" smooth="yes"/>
      <point x="585" y="-327"/>
      <point x="497" y="-432"/>
      <point x="344" y="-432" type="curve" smooth="yes"/>
      <point x="183" y="-432"/>
      <point x="91" y="-352"/>
      <point x="91" y="-152" type="curve" smooth="yes"/>
      <point x="91" y="248" type="line" smooth="yes"/>
      <point x="91" y="412"/>
      <point x="180" y="508"/>
      <point x="349" y="508" type="curve" smooth="yes"/>
      <point x="496" y="508"/>
      <point x="585" y="409"/>
      <point x="585" y="267" type="curve" smooth="yes"/>
      <point x="585" y="232"/>
      <point x="577" y="204"/>
      <point x="527" y="204" type="curve" smooth="yes"/>
      <point x="464" y="204"/>
      <point x="427" y="264"/>
      <point x="354" y="264" type="curve" smooth="yes"/>
      <point x="269" y="264"/>
      <point x="221" y="201"/>
      <point x="221" y="119" type="curve" smooth="yes"/>
      <point x="221" y="59"/>
      <point x="265" y="-13"/>
      <point x="358" y="-13" type="curve" smooth="yes"/>
      <point x="395" y="-13"/>
      <point x="428" y="-1"/>
      <point x="450" y="30" type="curve"/>
      <point x="426" y="43" type="line"/>
      <point x="414" y="21"/>
      <point x="388" y="13"/>
      <point x="358" y="13" type="curve" smooth="yes"/>
      <point x="281" y="13"/>
      <point x="247" y="70"/>
      <point x="247" y="119" type="curve" smooth="yes"/>
      <point x="247" y="189"/>
      <point x="285" y="238"/>
      <point x="354" y="238" type="curve" smooth="yes"/>
      <point x="423" y="238"/>
      <point x="456" y="178"/>
      <point x="527" y="178" type="curve" smooth="yes"/>
      <point x="582" y="178"/>
      <point x="611" y="212"/>
      <point x="611" y="267" type="curve" smooth="yes"/>
      <point x="611" y="420"/>
      <point x="513" y="534"/>
      <point x="349" y="534" type="curve" smooth="yes"/>
      <point x="162" y="534"/>
      <point x="65" y="422"/>
      <point x="65" y="248" type="curve" smooth="yes"/>
      <point x="65" y="-152" type="line" smooth="yes"/>
      <point x="65" y="-365"/>
      <point x="169" y="-458"/>
    </contour>
  </outline>
</glyph>
<glyph name="little_section" format="2">
  <advance width="233"/>
  <unicode hex="104A"/>
  <note>
little_section
</note>
  <outline>
    <contour>
      <point x="104" y="0" type="line"/>
      <point x="130" y="0" type="line"/>
      <point x="130" y="526" type="line"/>
      <point x="104" y="526" type="line"/>
    </contour>
  </outline>
</glyph>
<glyph name="locative" format="2">
  <advance width="622"/>
  <unicode hex="104C"/>
  <note>
locative
</note>
  <outline>
    <contour>
      <point x="241" y="-467" type="curve" smooth="yes"/>
      <point x="351" y="-467" type="line" smooth="yes"/>
      <point x="475" y="-467"/>
      <point x="541" y="-406"/>
      <point x="541" y="-271" type="curve" smooth="yes"/>
      <point x="541" y="-66" type="line"/>
      <point x="468" y="-110"/>
      <point x="388" y="-128"/>
      <point x="319" y="-128" type="curve" smooth="yes"/>
      <point x="235" y="-128"/>
      <point x="162" y="-92"/>
      <point x="113" y="-55" type="curve"/>
      <point x="113" y="124" type="line"/>
      <point x="87" y="162" type="line"/>
      <point x="87" y="-66" type="line"/>
      <point x="147" y="-118"/>
      <point x="226" y="-154"/>
      <point x="319" y="-154" type="curve" smooth="yes"/>
      <point x="388" y="-154"/>
      <point x="451" y="-138"/>
      <point x="515" y="-107" type="curve"/>
      <point x="515" y="-271" type="line" smooth="yes"/>
      <point x="515" y="-384"/>
      <point x="459" y="-441"/>
      <point x="351" y="-441" type="curve" smooth="yes"/>
      <point x="241" y="-441" type="line" smooth="yes"/>
      <point x="154" y="-441"/>
      <point x="109" y="-415"/>
      <point x="109" y="-354" type="curve" smooth="yes"/>
      <point x="109" y="-305"/>
      <point x="138" y="-271"/>
      <point x="190" y="-271" type="curve" smooth="yes"/>
      <point x="236" y="-271"/>
      <point x="264" y="-291"/>
      <point x="292" y="-320" type="curve"/>
      <point x="311" y="-301" type="line"/>
      <point x="272" y="-266"/>
      <point x="243" y="-245"/>
      <point x="190" y="-245" type="curve" smooth="yes"/>
      <point x="126" y="-245"/>
      <point x="83" y="-288"/>
      <point x="83" y="-354" type="curve" smooth="yes"/>
      <point x="83" y="-429"/>
      <point x="138" y="-467"/>
    </contour>
    <contour>
      <point x="326" y="-7" type="curve" smooth="yes"/>
      <point x="481" y="-7"/>
      <point x="574" y="114"/>
      <point x="574" y="264" type="curve" smooth="yes"/>
      <point x="574" y="411"/>
      <point x="485" y="539"/>
      <point x="326" y="539" type="curve" smooth="yes"/>
      <point x="211" y="539"/>
      <point x="128" y="472"/>
      <point x="91" y="377" type="curve"/>
      <point x="115" y="367" type="line"/>
      <point x="147" y="454"/>
      <point x="221" y="513"/>
      <point x="326" y="513" type="curve" smooth="yes"/>
      <point x="470" y="513"/>
      <point x="548" y="399"/>
      <point x="548" y="264" type="curve" smooth="yes"/>
      <point x="548" y="112"/>
      <point x="453" y="19"/>
      <point x="326" y="19" type="curve" smooth="yes"/>
      <point x="221" y="19"/>
      <point x="142" y="78"/>
      <point x="111" y="173" type="curve"/>
      <point x="87" y="162" type="line"/>
      <point x="122" y="60"/>
      <point x="209" y="-7"/>
    </contour>
    <component base="asat" xOffset="696"/>
  </outline>
</glyph>
<glyph name="completed" format="2">
  <advance width="811"/>
  <unicode hex="104D"/>
  <note>
completed
</note>
  <outline>
    <contour>
      <point x="243" y="-467" type="curve" smooth="yes"/>
      <point x="540" y="-467" type="line" smooth="yes"/>
      <point x="664" y="-467"/>
      <point x="730" y="-406"/>
      <point x="730" y="-271" type="curve" smooth="yes"/>
      <point x="730" y="187" type="line" smooth="yes"/>
      <point x="730" y="423"/>
      <point x="682" y="536"/>
      <point x="560" y="631" type="curve" smooth="yes"/>
      <point x="454" y="714"/>
      <point x="427" y="768"/>
      <point x="427" y="835" type="curve" smooth="yes"/>
      <point x="427" y="913"/>
      <point x="480" y="978"/>
      <point x="587" y="978" type="curve" smooth="yes"/>
      <point x="653" y="978"/>
      <point x="707" y="957"/>
      <point x="734" y="903" type="curve"/>
      <point x="756" y="915" type="line"/>
      <point x="729" y="970"/>
      <point x="670" y="1004"/>
      <point x="587" y="1004" type="curve" smooth="yes"/>
      <point x="472" y="1004"/>
      <point x="401" y="929"/>
      <point x="401" y="835" type="curve" smooth="yes"/>
      <point x="401" y="751"/>
      <point x="447" y="687"/>
      <point x="543" y="611" type="curve" smooth="yes"/>
      <point x="664" y="516"/>
      <point x="704" y="415"/>
      <point x="704" y="194" type="curve" smooth="yes"/>
      <point x="704" y="-271" type="line" smooth="yes"/>
      <point x="704" y="-384"/>
      <point x="648" y="-441"/>
      <point x="540" y="-441" type="curve" smooth="yes"/>
      <point x="243" y="-441" type="line" smooth="yes"/>
      <point x="136" y="-441"/>
      <point x="82" y="-406"/>
      <point x="82" y="-326" type="curve" smooth="yes"/>
      <point x="82" y="-262"/>
      <point x="121" y="-218"/>
      <point x="181" y="-218" type="curve" smooth="yes"/>
      <point x="234" y="-218"/>
      <point x="262" y="-238"/>
      <point x="290" y="-267" type="curve"/>
      <point x="309" y="-248" type="line"/>
      <point x="270" y="-213"/>
      <point x="241" y="-192"/>
      <point x="181" y="-192" type="curve" smooth="yes"/>
      <point x="110" y="-192"/>
      <point x="56" y="-245"/>
      <point x="56" y="-326" type="curve" smooth="yes"/>
      <point x="56" y="-420"/>
      <point x="121" y="-467"/>
    </contour>
    <contour>
      <point x="538" y="-267" type="line"/>
      <point x="564" y="-267" type="line"/>
      <point x="564" y="261" type="line" smooth="yes"/>
      <point x="564" y="418"/>
      <point x="470" y="536"/>
      <point x="317" y="536" type="curve" smooth="yes"/>
      <point x="153" y="536"/>
      <point x="55" y="416"/>
      <point x="55" y="263" type="curve" smooth="yes"/>
      <point x="55" y="112"/>
      <point x="147" y="-10"/>
      <point x="305" y="-10" type="curve" smooth="yes"/>
      <point x="350" y="-10"/>
      <point x="391" y="4"/>
      <point x="414" y="12" type="curve"/>
      <point x="414" y="188"/>
      <point x="301" y="300"/>
      <point x="75" y="301" type="curve"/>
      <point x="72" y="275" type="line"/>
      <point x="274" y="275"/>
      <point x="385" y="181"/>
      <point x="388" y="26" type="curve"/>
      <point x="396" y="32" type="line"/>
      <point x="365" y="23"/>
      <point x="340" y="16"/>
      <point x="305" y="16" type="curve" smooth="yes"/>
      <point x="159" y="16"/>
      <point x="81" y="122"/>
      <point x="81" y="263" type="curve" smooth="yes"/>
      <point x="81" y="402"/>
      <point x="164" y="510"/>
      <point x="317" y="510" type="curve" smooth="yes"/>
      <point x="454" y="510"/>
      <point x="538" y="406"/>
      <point x="538" y="261" type="curve" smooth="yes"/>
    </contour>
  </outline>
</glyph>
<glyph name="aforementioned" format="2">
  <advance width="638"/>
  <unicode hex="104E"/>
  <note>
aforementioned
</note>
  <outline>
    <contour>
      <point x="304" y="-10" type="curve" smooth="yes"/>
      <point x="425" y="-10"/>
      <point x="510" y="57"/>
      <point x="543" y="159" type="curve"/>
      <point x="519" y="170" type="line"/>
      <point x="490" y="75"/>
      <point x="413" y="16"/>
      <point x="304" y="16" type="curve" smooth="yes"/>
      <point x="179" y="16"/>
      <point x="81" y="109"/>
      <point x="81" y="261" type="curve" smooth="yes"/>
      <point x="81" y="396"/>
      <point x="161" y="510"/>
      <point x="304" y="510" type="curve" smooth="yes"/>
      <point x="413" y="510"/>
      <point x="485" y="451"/>
      <point x="516" y="364" type="curve"/>
      <point x="540" y="374" type="line"/>
      <point x="504" y="469"/>
      <point x="423" y="536"/>
      <point x="304" y="536" type="curve" smooth="yes"/>
      <point x="146" y="536"/>
      <point x="55" y="408"/>
      <point x="55" y="261" type="curve" smooth="yes"/>
      <point x="55" y="111"/>
      <point x="150" y="-10"/>
    </contour>
    <contour>
      <point x="519" y="-458" type="line"/>
      <point x="543" y="-458" type="line"/>
      <point x="543" y="159" type="line"/>
      <point x="519" y="122" type="line"/>
    </contour>
  </outline>
</glyph>
<glyph name="genitive" format="2">
  <advance width="977"/>
  <unicode hex="104F"/>
  <note>
genitive
</note>
  <outline>
    <contour>
      <point x="896" y="0" type="line"/>
      <point x="922" y="0" type="line"/>
      <point x="922" y="379" type="line" smooth="yes"/>
      <point x="922" y="550"/>
      <point x="878" y="631"/>
      <point x="740" y="680" type="curve" smooth="yes"/>
      <point x="617" y="724"/>
      <point x="581" y="765"/>
      <point x="581" y="845" type="curve" smooth="yes"/>
      <point x="581" y="919"/>
      <point x="645" y="978"/>
      <point x="745" y="978" type="curve" smooth="yes"/>
      <point x="807" y="978"/>
      <point x="856" y="954"/>
      <point x="880" y="900" type="curve"/>
      <point x="904" y="911" type="line"/>
      <point x="873" y="975"/>
      <point x="818" y="1004"/>
      <point x="745" y="1004" type="curve" smooth="yes"/>
      <point x="638" y="1004"/>
      <point x="555" y="936"/>
      <point x="555" y="845" type="curve" smooth="yes"/>
      <point x="555" y="755"/>
      <point x="603" y="703"/>
      <point x="731" y="658" type="curve" smooth="yes"/>
      <point x="861" y="612"/>
      <point x="896" y="538"/>
      <point x="896" y="379" type="curve" smooth="yes"/>
    </contour>
    <contour>
      <point x="759" y="0" type="line"/>
      <point x="783" y="0" type="line"/>
      <point x="783" y="404" type="line" smooth="yes"/>
      <point x="783" y="493"/>
      <point x="737" y="536"/>
      <point x="666" y="536" type="curve" smooth="yes"/>
      <point x="570" y="536"/>
      <point x="539" y="468"/>
      <point x="531" y="424" type="curve"/>
      <point x="554" y="409" type="line"/>
      <point x="561" y="455"/>
      <point x="585" y="510"/>
      <point x="666" y="510" type="curve" smooth="yes"/>
      <point x="721" y="510"/>
      <point x="759" y="479"/>
      <point x="759" y="404" type="curve" smooth="yes"/>
    </contour>
    <component base="e_m"/>
  </outline>
</glyph>
<glyph name="sha_skt" format="2">
  <advance width="628"/>
  <unicode hex="1050"/>
  <note>
sha_skt
</note>
  <outline>
    <contour>
      <point x="324" y="225" type="curve" smooth="yes"/>
      <point x="348" y="225"/>
      <point x="351" y="239"/>
      <point x="351" y="256" type="curve" smooth="yes"/>
      <point x="351" y="272"/>
      <point x="348" y="287"/>
      <point x="324" y="287" type="curve" smooth="yes"/>
      <point x="304" y="287"/>
      <point x="299" y="272"/>
      <point x="299" y="256" type="curve" smooth="yes"/>
      <point x="299" y="239"/>
      <point x="304" y="225"/>
    </contour>
    <component base="ga"/>
  </outline>
</glyph>
<glyph name="ssa_skt" format="2">
  <advance width="629"/>
  <unicode hex="1051"/>
  <note>
ssa_skt
</note>
  <outline>
    <contour>
      <point x="318" y="-10" type="curve" smooth="yes"/>
      <point x="465" y="-10"/>
      <point x="574" y="104"/>
      <point x="574" y="275" type="curve" smooth="yes"/>
      <point x="574" y="375"/>
      <point x="524" y="488"/>
      <point x="462" y="536" type="curve"/>
      <point x="444" y="516" type="line"/>
      <point x="504" y="474"/>
      <point x="548" y="359"/>
      <point x="548" y="275" type="curve" smooth="yes"/>
      <point x="548" y="108"/>
      <point x="444" y="16"/>
      <point x="318" y="16" type="curve" smooth="yes"/>
      <point x="188" y="16"/>
      <point x="81" y="108"/>
      <point x="81" y="275" type="curve" smooth="yes"/>
      <point x="81" y="359"/>
      <point x="125" y="474"/>
      <point x="185" y="516" type="curve"/>
      <point x="167" y="536" type="line"/>
      <point x="105" y="488"/>
      <point x="55" y="375"/>
      <point x="55" y="275" type="curve" smooth="yes"/>
      <point x="55" y="104"/>
      <point x="167" y="-10"/>
    </contour>
    <contour>
      <point x="319" y="239" type="curve" smooth="yes"/>
      <point x="343" y="239"/>
      <point x="346" y="254"/>
      <point x="346" y="270" type="curve" smooth="yes"/>
      <point x="346" y="287"/>
      <point x="343" y="301"/>
      <point x="319" y="301" type="curve" smooth="yes"/>
      <point x="299" y="301"/>
      <point x="294" y="287"/>
      <point x="294" y="270" type="curve" smooth="yes"/>
      <point x="294" y="254"/>
      <point x="299" y="239"/>
    </contour>
  </outline>
</glyph>
<glyph name="vocR_skt" format="2">
  <advance width="614"/>
  <unicode hex="1052"/>
  <note>
vocR_skt
</note>
  <outline>
    <contour>
      <point x="315" y="-10" type="curve" smooth="yes"/>
      <point x="467" y="-10"/>
      <point x="562" y="81"/>
      <point x="562" y="204" type="curve" smooth="yes"/>
      <point x="562" y="280"/>
      <point x="530" y="334"/>
      <point x="475" y="379" type="curve" smooth="yes"/>
      <point x="438" y="409"/>
      <point x="429" y="434"/>
      <point x="429" y="460" type="curve" smooth="yes"/>
      <point x="429" y="488"/>
      <point x="447" y="508"/>
      <point x="481" y="508" type="curve" smooth="yes"/>
      <point x="509" y="508"/>
      <point x="534" y="493"/>
      <point x="549" y="471" type="curve"/>
      <point x="568" y="489" type="line"/>
      <point x="549" y="513"/>
      <point x="522" y="534"/>
      <point x="481" y="534" type="curve" smooth="yes"/>
      <point x="434" y="534"/>
      <point x="403" y="501"/>
      <point x="403" y="460" type="curve" smooth="yes"/>
      <point x="403" y="425"/>
      <point x="414" y="401"/>
      <point x="459" y="360" type="curve" smooth="yes"/>
      <point x="509" y="314"/>
      <point x="536" y="276"/>
      <point x="536" y="204" type="curve" smooth="yes"/>
      <point x="536" y="93"/>
      <point x="453" y="16"/>
      <point x="315" y="16" type="curve" smooth="yes"/>
      <point x="184" y="16"/>
      <point x="81" y="110"/>
      <point x="81" y="275" type="curve" smooth="yes"/>
      <point x="81" y="371"/>
      <point x="125" y="465"/>
      <point x="185" y="516" type="curve"/>
      <point x="167" y="536" type="line"/>
      <point x="105" y="479"/>
      <point x="55" y="387"/>
      <point x="55" y="275" type="curve" smooth="yes"/>
      <point x="55" y="104"/>
      <point x="164" y="-10"/>
    </contour>
  </outline>
</glyph>
<glyph name="vocRR_skt" format="2">
  <advance width="624"/>
  <unicode hex="1053"/>
  <note>
vocRR_skt
</note>
  <outline>
    <contour>
      <point x="310" y="-10" type="curve" smooth="yes"/>
      <point x="462" y="-10"/>
      <point x="562" y="75"/>
      <point x="562" y="204" type="curve" smooth="yes"/>
      <point x="562" y="280"/>
      <point x="523" y="337"/>
      <point x="463" y="381" type="curve" smooth="yes"/>
      <point x="413" y="418"/>
      <point x="399" y="434"/>
      <point x="399" y="460" type="curve" smooth="yes"/>
      <point x="399" y="493"/>
      <point x="423" y="508"/>
      <point x="455" y="508" type="curve" smooth="yes"/>
      <point x="490" y="508"/>
      <point x="519" y="493"/>
      <point x="539" y="471" type="curve"/>
      <point x="558" y="489" type="line"/>
      <point x="534" y="513"/>
      <point x="504" y="534"/>
      <point x="455" y="534" type="curve" smooth="yes"/>
      <point x="406" y="534"/>
      <point x="373" y="502"/>
      <point x="373" y="460" type="curve" smooth="yes"/>
      <point x="373" y="425"/>
      <point x="394" y="401"/>
      <point x="447" y="361" type="curve" smooth="yes"/>
      <point x="503" y="319"/>
      <point x="536" y="276"/>
      <point x="536" y="204" type="curve" smooth="yes"/>
      <point x="536" y="94"/>
      <point x="454" y="16"/>
      <point x="312" y="16" type="curve" smooth="yes"/>
      <point x="170" y="16"/>
      <point x="88" y="94"/>
      <point x="88" y="204" type="curve" smooth="yes"/>
      <point x="88" y="276"/>
      <point x="121" y="319"/>
      <point x="177" y="361" type="curve" smooth="yes"/>
      <point x="230" y="401"/>
      <point x="251" y="425"/>
      <point x="251" y="460" type="curve" smooth="yes"/>
      <point x="251" y="502"/>
      <point x="218" y="534"/>
      <point x="169" y="534" type="curve" smooth="yes"/>
      <point x="120" y="534"/>
      <point x="90" y="513"/>
      <point x="66" y="489" type="curve"/>
      <point x="85" y="471" type="line"/>
      <point x="105" y="493"/>
      <point x="134" y="508"/>
      <point x="169" y="508" type="curve" smooth="yes"/>
      <point x="201" y="508"/>
      <point x="225" y="493"/>
      <point x="225" y="460" type="curve" smooth="yes"/>
      <point x="225" y="434"/>
      <point x="211" y="418"/>
      <point x="161" y="381" type="curve" smooth="yes"/>
      <point x="101" y="337"/>
      <point x="62" y="280"/>
      <point x="62" y="204" type="curve" smooth="yes"/>
      <point x="62" y="82"/>
      <point x="155" y="-10"/>
    </contour>
  </outline>
</glyph>
<glyph name="vocL_skt" format="2">
  <advance width="616"/>
  <unicode hex="1054"/>
  <note>
vocL_skt
</note>
  <outline>
    <contour>
      <point x="317" y="-10" type="curve" smooth="yes"/>
      <point x="434" y="-10"/>
      <point x="523" y="58"/>
      <point x="561" y="151" type="curve"/>
      <point x="538" y="163" type="line"/>
      <point x="504" y="77"/>
      <point x="424" y="16"/>
      <point x="317" y="16" type="curve" smooth="yes"/>
      <point x="162" y="16"/>
      <point x="81" y="125"/>
      <point x="81" y="265" type="curve" smooth="yes"/>
      <point x="81" y="412"/>
      <point x="173" y="510"/>
      <point x="313" y="510" type="curve" smooth="yes"/>
      <point x="401" y="510"/>
      <point x="476" y="465"/>
      <point x="518" y="385" type="curve"/>
      <point x="471" y="342"/>
      <point x="413" y="310"/>
      <point x="337" y="310" type="curve" smooth="yes"/>
      <point x="219" y="310"/>
      <point x="156" y="362"/>
      <point x="110" y="410" type="curve"/>
      <point x="91" y="395" type="line"/>
      <point x="134" y="341"/>
      <point x="214" y="284"/>
      <point x="337" y="284" type="curve" smooth="yes"/>
      <point x="426" y="284"/>
      <point x="494" y="323"/>
      <point x="551" y="381" type="curve"/>
      <point x="503" y="479"/>
      <point x="418" y="536"/>
      <point x="313" y="536" type="curve" smooth="yes"/>
      <point x="156" y="536"/>
      <point x="55" y="423"/>
      <point x="55" y="265" type="curve" smooth="yes"/>
      <point x="55" y="113"/>
      <point x="148" y="-10"/>
    </contour>
  </outline>
</glyph>
<glyph name="vocLL_skt" format="2">
  <advance width="631"/>
  <unicode hex="1055"/>
  <note>
vocLL_skt
</note>
  <outline>
    <contour>
      <point x="224" y="-11" type="curve" smooth="yes"/>
      <point x="277" y="-11"/>
      <point x="310" y="12"/>
      <point x="331" y="59" type="curve"/>
      <point x="324" y="57" type="line"/>
      <point x="343" y="21"/>
      <point x="373" y="-11"/>
      <point x="440" y="-11" type="curve" smooth="yes"/>
      <point x="505" y="-11"/>
      <point x="552" y="24"/>
      <point x="565" y="109" type="curve"/>
      <point x="539" y="114" type="line"/>
      <point x="529" y="33"/>
      <point x="488" y="15"/>
      <point x="440" y="15" type="curve" smooth="yes"/>
      <point x="385" y="15"/>
      <point x="340" y="50"/>
      <point x="340" y="108" type="curve" smooth="yes"/>
      <point x="340" y="122" type="line"/>
      <point x="314" y="122" type="line"/>
      <point x="314" y="108" type="line" smooth="yes"/>
      <point x="314" y="65"/>
      <point x="288" y="15"/>
      <point x="224" y="15" type="curve" smooth="yes"/>
      <point x="119" y="15"/>
      <point x="81" y="128"/>
      <point x="81" y="253" type="curve" smooth="yes"/>
      <point x="81" y="412"/>
      <point x="178" y="510"/>
      <point x="317" y="510" type="curve" smooth="yes"/>
      <point x="417" y="510"/>
      <point x="500" y="465"/>
      <point x="543" y="385" type="curve"/>
      <point x="494" y="342"/>
      <point x="422" y="310"/>
      <point x="350" y="310" type="curve" smooth="yes"/>
      <point x="218" y="310"/>
      <point x="155" y="362"/>
      <point x="109" y="410" type="curve"/>
      <point x="90" y="395" type="line"/>
      <point x="133" y="341"/>
      <point x="213" y="284"/>
      <point x="350" y="284" type="curve" smooth="yes"/>
      <point x="435" y="284"/>
      <point x="517" y="323"/>
      <point x="576" y="381" type="curve"/>
      <point x="527" y="479"/>
      <point x="434" y="536"/>
      <point x="317" y="536" type="curve" smooth="yes"/>
      <point x="161" y="536"/>
      <point x="55" y="423"/>
      <point x="55" y="253" type="curve" smooth="yes"/>
      <point x="55" y="102"/>
      <point x="108" y="-11"/>
    </contour>
  </outline>
</glyph>
<glyph name="_vocR_skt" format="2">
  <advance width="360"/>
  <unicode hex="1056"/>
  <note>
_vocR_skt
</note>
  <outline>
    <contour>
      <point x="92" y="-10" type="curve" smooth="yes"/>
      <point x="221" y="-10"/>
      <point x="305" y="63"/>
      <point x="305" y="157" type="curve" smooth="yes"/>
      <point x="305" y="231"/>
      <point x="269" y="262"/>
      <point x="171" y="323" type="curve" smooth="yes"/>
      <point x="115" y="358"/>
      <point x="84" y="383"/>
      <point x="84" y="437" type="curve" smooth="yes"/>
      <point x="84" y="476"/>
      <point x="108" y="512"/>
      <point x="163" y="512" type="curve" smooth="yes"/>
      <point x="195" y="512"/>
      <point x="223" y="501"/>
      <point x="245" y="473" type="curve"/>
      <point x="266" y="488" type="line"/>
      <point x="239" y="521"/>
      <point x="207" y="538"/>
      <point x="163" y="538" type="curve" smooth="yes"/>
      <point x="96" y="538"/>
      <point x="58" y="491"/>
      <point x="58" y="437" type="curve" smooth="yes"/>
      <point x="58" y="372"/>
      <point x="94" y="339"/>
      <point x="161" y="300" type="curve" smooth="yes"/>
      <point x="258" y="244"/>
      <point x="279" y="210"/>
      <point x="279" y="157" type="curve" smooth="yes"/>
      <point x="279" y="77"/>
      <point x="205" y="16"/>
      <point x="92" y="16" type="curve" smooth="yes"/>
      <point x="0" y="16"/>
      <point x="-69" y="52"/>
      <point x="-99" y="113" type="curve"/>
      <point x="-118" y="103" type="line"/>
      <point x="-89" y="35"/>
      <point x="-14" y="-10"/>
    </contour>
  </outline>
</glyph>
<glyph name="_vocRR_skt" format="2">
  <advance width="371"/>
  <unicode hex="1057"/>
  <note>
_vocRR_skt
</note>
  <outline>
    <contour>
      <point x="-1" y="-11" type="curve" smooth="yes"/>
      <point x="60" y="-11"/>
      <point x="87" y="22"/>
      <point x="104" y="57" type="curve"/>
      <point x="97" y="59" type="line"/>
      <point x="119" y="12"/>
      <point x="154" y="-10"/>
      <point x="209" y="-10" type="curve" smooth="yes"/>
      <point x="285" y="-10"/>
      <point x="320" y="52"/>
      <point x="320" y="136" type="curve" smooth="yes"/>
      <point x="320" y="219"/>
      <point x="286" y="259"/>
      <point x="176" y="330" type="curve" smooth="yes"/>
      <point x="128" y="361"/>
      <point x="99" y="383"/>
      <point x="99" y="437" type="curve" smooth="yes"/>
      <point x="99" y="476"/>
      <point x="123" y="512"/>
      <point x="178" y="512" type="curve" smooth="yes"/>
      <point x="210" y="512"/>
      <point x="238" y="501"/>
      <point x="260" y="473" type="curve"/>
      <point x="281" y="488" type="line"/>
      <point x="254" y="521"/>
      <point x="222" y="538"/>
      <point x="178" y="538" type="curve" smooth="yes"/>
      <point x="111" y="538"/>
      <point x="73" y="491"/>
      <point x="73" y="437" type="curve" smooth="yes"/>
      <point x="73" y="372"/>
      <point x="110" y="344"/>
      <point x="176" y="300" type="curve" smooth="yes"/>
      <point x="273" y="236"/>
      <point x="294" y="197"/>
      <point x="294" y="136" type="curve" smooth="yes"/>
      <point x="294" y="73"/>
      <point x="271" y="16"/>
      <point x="209" y="16" type="curve" smooth="yes"/>
      <point x="142" y="16"/>
      <point x="114" y="65"/>
      <point x="114" y="108" type="curve" smooth="yes"/>
      <point x="114" y="122" type="line"/>
      <point x="88" y="122" type="line"/>
      <point x="88" y="108" type="line" smooth="yes"/>
      <point x="88" y="50"/>
      <point x="48" y="15"/>
      <point x="-1" y="15" type="curve" smooth="yes"/>
      <point x="-48" y="15"/>
      <point x="-87" y="31"/>
      <point x="-97" y="117" type="curve"/>
      <point x="-120" y="98" type="line"/>
      <point x="-108" y="25"/>
      <point x="-65" y="-11"/>
    </contour>
  </outline>
</glyph>
<glyph name="_vocL_skt" format="2">
  <unicode hex="1058"/>
  <note>
_vocL_skt
</note>
  <outline>
    <contour>
      <point x="-329" y="-458" type="curve" smooth="yes"/>
      <point x="-234" y="-458"/>
      <point x="-169" y="-401"/>
      <point x="-142" y="-322" type="curve"/>
      <point x="-165" y="-310" type="line"/>
      <point x="-188" y="-381"/>
      <point x="-244" y="-432"/>
      <point x="-329" y="-432" type="curve" smooth="yes"/>
      <point x="-431" y="-432"/>
      <point x="-493" y="-361"/>
      <point x="-493" y="-253" type="curve" smooth="yes"/>
      <point x="-493" y="-150"/>
      <point x="-425" y="-78"/>
      <point x="-327" y="-78" type="curve" smooth="yes"/>
      <point x="-263" y="-78"/>
      <point x="-210" y="-116"/>
      <point x="-183" y="-183" type="curve"/>
      <point x="-218" y="-207"/>
      <point x="-270" y="-225"/>
      <point x="-322" y="-225" type="curve" smooth="yes"/>
      <point x="-404" y="-225"/>
      <point x="-443" y="-185"/>
      <point x="-472" y="-149" type="curve"/>
      <point x="-486" y="-170" type="line"/>
      <point x="-459" y="-209"/>
      <point x="-408" y="-251"/>
      <point x="-322" y="-251" type="curve" smooth="yes"/>
      <point x="-257" y="-251"/>
      <point x="-195" y="-225"/>
      <point x="-150" y="-187" type="curve"/>
      <point x="-183" y="-102"/>
      <point x="-247" y="-52"/>
      <point x="-327" y="-52" type="curve" smooth="yes"/>
      <point x="-442" y="-52"/>
      <point x="-519" y="-138"/>
      <point x="-519" y="-253" type="curve" smooth="yes"/>
      <point x="-519" y="-374"/>
      <point x="-446" y="-458"/>
    </contour>
  </outline>
</glyph>
<glyph name="_vocLL_skt" format="2">
  <unicode hex="1059"/>
  <note>
_vocLL_skt
</note>
  <outline>
    <contour>
      <point x="-390" y="-458" type="curve" smooth="yes"/>
      <point x="-352" y="-458"/>
      <point x="-329" y="-443"/>
      <point x="-314" y="-410" type="curve"/>
      <point x="-321" y="-413" type="line"/>
      <point x="-309" y="-435"/>
      <point x="-287" y="-458"/>
      <point x="-239" y="-458" type="curve" smooth="yes"/>
      <point x="-195" y="-458"/>
      <point x="-163" y="-427"/>
      <point x="-154" y="-353" type="curve"/>
      <point x="-180" y="-348" type="line"/>
      <point x="-186" y="-417"/>
      <point x="-210" y="-432"/>
      <point x="-239" y="-432" type="curve" smooth="yes"/>
      <point x="-275" y="-432"/>
      <point x="-305" y="-419"/>
      <point x="-305" y="-361" type="curve" smooth="yes"/>
      <point x="-305" y="-347" type="line"/>
      <point x="-331" y="-347" type="line"/>
      <point x="-331" y="-361" type="line" smooth="yes"/>
      <point x="-331" y="-404"/>
      <point x="-348" y="-432"/>
      <point x="-390" y="-432" type="curve" smooth="yes"/>
      <point x="-464" y="-432"/>
      <point x="-491" y="-350"/>
      <point x="-491" y="-268" type="curve" smooth="yes"/>
      <point x="-491" y="-147"/>
      <point x="-420" y="-77"/>
      <point x="-318" y="-77" type="curve" smooth="yes"/>
      <point x="-252" y="-77"/>
      <point x="-198" y="-113"/>
      <point x="-169" y="-178" type="curve"/>
      <point x="-206" y="-207"/>
      <point x="-261" y="-229"/>
      <point x="-315" y="-229" type="curve" smooth="yes"/>
      <point x="-400" y="-229"/>
      <point x="-440" y="-186"/>
      <point x="-469" y="-147" type="curve"/>
      <point x="-488" y="-162" type="line"/>
      <point x="-460" y="-207"/>
      <point x="-406" y="-255"/>
      <point x="-315" y="-255" type="curve" smooth="yes"/>
      <point x="-248" y="-255"/>
      <point x="-183" y="-226"/>
      <point x="-136" y="-182" type="curve"/>
      <point x="-171" y="-99"/>
      <point x="-236" y="-51"/>
      <point x="-318" y="-51" type="curve" smooth="yes"/>
      <point x="-437" y="-51"/>
      <point x="-517" y="-134"/>
      <point x="-517" y="-268" type="curve" smooth="yes"/>
      <point x="-517" y="-373"/>
      <point x="-477" y="-458"/>
    </contour>
  </outline>
</glyph>
<glyph name="nga_mon" format="2">
  <advance width="611"/>
  <unicode hex="105A"/>
  <note>
nga_mon
</note>
  <outline>
    <contour>
      <point x="320" y="-10" type="curve" smooth="yes"/>
      <point x="437" y="-10"/>
      <point x="523" y="57"/>
      <point x="558" y="159" type="curve"/>
      <point x="534" y="170" type="line"/>
      <point x="503" y="75"/>
      <point x="425" y="16"/>
      <point x="320" y="16" type="curve" smooth="yes"/>
      <point x="183" y="16"/>
      <point x="81" y="109"/>
      <point x="81" y="261" type="curve" smooth="yes"/>
      <point x="81" y="396"/>
      <point x="164" y="510"/>
      <point x="320" y="510" type="curve" smooth="yes"/>
      <point x="424" y="510"/>
      <point x="498" y="451"/>
      <point x="530" y="364" type="curve"/>
      <point x="554" y="374" type="line"/>
      <point x="517" y="469"/>
      <point x="435" y="536"/>
      <point x="320" y="536" type="curve" smooth="yes"/>
      <point x="150" y="536"/>
      <point x="55" y="408"/>
      <point x="55" y="261" type="curve" smooth="yes"/>
      <point x="55" y="111"/>
      <point x="154" y="-10"/>
    </contour>
    <contour>
      <point x="392" y="-458" type="curve" smooth="yes"/>
      <point x="417" y="-458"/>
      <point x="441" y="-449"/>
      <point x="454" y="-440" type="curve"/>
      <point x="438" y="-419" type="line"/>
      <point x="427" y="-427"/>
      <point x="413" y="-432"/>
      <point x="392" y="-432" type="curve" smooth="yes"/>
      <point x="354" y="-432"/>
      <point x="332" y="-407"/>
      <point x="332" y="-375" type="curve" smooth="yes"/>
      <point x="332" y="-350"/>
      <point x="341" y="-332"/>
      <point x="393" y="-280" type="curve" smooth="yes"/>
      <point x="424" y="-249"/>
      <point x="449" y="-215"/>
      <point x="449" y="-169" type="curve" smooth="yes"/>
      <point x="449" y="-103"/>
      <point x="397" y="-49"/>
      <point x="316" y="-49" type="curve" smooth="yes"/>
      <point x="240" y="-49"/>
      <point x="185" y="-100"/>
      <point x="185" y="-169" type="curve"/>
      <point x="211" y="-169" type="line"/>
      <point x="211" y="-113"/>
      <point x="253" y="-75"/>
      <point x="316" y="-75" type="curve" smooth="yes"/>
      <point x="385" y="-75"/>
      <point x="423" y="-117"/>
      <point x="423" y="-169" type="curve" smooth="yes"/>
      <point x="423" y="-203"/>
      <point x="404" y="-234"/>
      <point x="372" y="-264" type="curve" smooth="yes"/>
      <point x="311" y="-323"/>
      <point x="306" y="-350"/>
      <point x="306" y="-375" type="curve" smooth="yes"/>
      <point x="306" y="-419"/>
      <point x="340" y="-458"/>
    </contour>
  </outline>
</glyph>
<glyph name="jha_mon" format="2">
  <advance width="773"/>
  <unicode hex="105B"/>
  <note>
jha_mon
</note>
  <outline>
    <contour>
      <point x="310" y="-10" type="curve" smooth="yes"/>
      <point x="382" y="-10"/>
      <point x="440" y="12"/>
      <point x="473" y="47" type="curve"/>
      <point x="458" y="68" type="line"/>
      <point x="428" y="36"/>
      <point x="375" y="16"/>
      <point x="310" y="16" type="curve" smooth="yes"/>
      <point x="179" y="16"/>
      <point x="81" y="109"/>
      <point x="81" y="261" type="curve" smooth="yes"/>
      <point x="81" y="396"/>
      <point x="166" y="510"/>
      <point x="355" y="510" type="curve" smooth="yes"/>
      <point x="379" y="510"/>
      <point x="399" y="510"/>
      <point x="414" y="508" type="curve"/>
      <point x="414" y="511" type="line"/>
      <point x="376" y="499"/>
      <point x="338" y="451"/>
      <point x="338" y="394" type="curve" smooth="yes"/>
      <point x="338" y="332"/>
      <point x="383" y="272"/>
      <point x="462" y="272" type="curve" smooth="yes"/>
      <point x="502" y="272"/>
      <point x="550" y="287"/>
      <point x="571" y="329" type="curve"/>
      <point x="567" y="326" type="line"/>
      <point x="567" y="219"/>
      <point x="587" y="175"/>
      <point x="672" y="175" type="curve" smooth="yes"/>
      <point x="688" y="175" type="line"/>
      <point x="688" y="201" type="line"/>
      <point x="677" y="201" type="line" smooth="yes"/>
      <point x="607" y="201"/>
      <point x="593" y="228"/>
      <point x="593" y="316" type="curve" smooth="yes"/>
      <point x="593" y="336"/>
      <point x="593" y="353"/>
      <point x="593" y="381" type="curve" smooth="yes"/>
      <point x="593" y="524"/>
      <point x="501" y="536"/>
      <point x="357" y="536" type="curve" smooth="yes"/>
      <point x="152" y="536"/>
      <point x="55" y="408"/>
      <point x="55" y="261" type="curve" smooth="yes"/>
      <point x="55" y="111"/>
      <point x="150" y="-10"/>
    </contour>
    <contour>
      <point x="538" y="-458" type="curve" smooth="yes"/>
      <point x="660" y="-458"/>
      <point x="708" y="-380"/>
      <point x="708" y="-200" type="curve" smooth="yes"/>
      <point x="708" y="524" type="line"/>
      <point x="682" y="524" type="line"/>
      <point x="682" y="-200" type="line" smooth="yes"/>
      <point x="682" y="-368"/>
      <point x="644" y="-432"/>
      <point x="538" y="-432" type="curve" smooth="yes"/>
      <point x="427" y="-432"/>
      <point x="390" y="-371"/>
      <point x="390" y="-200" type="curve" smooth="yes"/>
      <point x="390" y="16" type="line"/>
      <point x="364" y="6" type="line"/>
      <point x="364" y="-200" type="line" smooth="yes"/>
      <point x="364" y="-376"/>
      <point x="410" y="-458"/>
    </contour>
    <contour>
      <point x="464" y="298" type="curve" smooth="yes"/>
      <point x="394" y="298"/>
      <point x="364" y="343"/>
      <point x="364" y="394" type="curve" smooth="yes"/>
      <point x="364" y="450"/>
      <point x="408" y="499"/>
      <point x="470" y="499" type="curve" smooth="yes"/>
      <point x="535" y="499"/>
      <point x="567" y="455"/>
      <point x="567" y="386" type="curve" smooth="yes"/>
      <point x="567" y="339"/>
      <point x="520" y="298"/>
    </contour>
  </outline>
</glyph>
<glyph name="bba_mon" format="2">
  <advance width="628"/>
  <unicode hex="105C"/>
  <note>
bba_mon
</note>
  <outline>
    <contour>
      <point x="310" y="-10" type="curve" smooth="yes"/>
      <point x="467" y="-10"/>
      <point x="573" y="103"/>
      <point x="573" y="261" type="curve" smooth="yes"/>
      <point x="573" y="413"/>
      <point x="472" y="536"/>
      <point x="310" y="536" type="curve" smooth="yes"/>
      <point x="146" y="536"/>
      <point x="55" y="408"/>
      <point x="55" y="261" type="curve" smooth="yes"/>
      <point x="55" y="111"/>
      <point x="150" y="-10"/>
    </contour>
    <contour>
      <point x="310" y="16" type="curve" smooth="yes"/>
      <point x="179" y="16"/>
      <point x="81" y="109"/>
      <point x="81" y="261" type="curve" smooth="yes"/>
      <point x="81" y="396"/>
      <point x="161" y="510"/>
      <point x="310" y="510" type="curve" smooth="yes"/>
      <point x="458" y="510"/>
      <point x="547" y="401"/>
      <point x="547" y="261" type="curve" smooth="yes"/>
      <point x="547" y="114"/>
      <point x="450" y="16"/>
    </contour>
    <contour>
      <point x="315" y="168" type="curve" smooth="yes"/>
      <point x="376" y="168"/>
      <point x="413" y="210"/>
      <point x="413" y="264" type="curve" smooth="yes"/>
      <point x="413" y="318"/>
      <point x="376" y="360"/>
      <point x="315" y="360" type="curve" smooth="yes"/>
      <point x="251" y="360"/>
      <point x="215" y="315"/>
      <point x="215" y="264" type="curve" smooth="yes"/>
      <point x="215" y="213"/>
      <point x="251" y="168"/>
    </contour>
    <contour>
      <point x="315" y="194" type="curve" smooth="yes"/>
      <point x="267" y="194"/>
      <point x="241" y="227"/>
      <point x="241" y="264" type="curve" smooth="yes"/>
      <point x="241" y="301"/>
      <point x="267" y="334"/>
      <point x="315" y="334" type="curve" smooth="yes"/>
      <point x="360" y="334"/>
      <point x="387" y="304"/>
      <point x="387" y="264" type="curve" smooth="yes"/>
      <point x="387" y="224"/>
      <point x="360" y="194"/>
    </contour>
  </outline>
</glyph>
<glyph name="bbe_mon" format="2">
  <advance width="616"/>
  <unicode hex="105D"/>
  <note>
bbe_mon
</note>
  <outline>
    <contour>
      <point x="262" y="-467" type="curve" smooth="yes"/>
      <point x="345" y="-467" type="line" smooth="yes"/>
      <point x="469" y="-467"/>
      <point x="535" y="-406"/>
      <point x="535" y="-271" type="curve" smooth="yes"/>
      <point x="535" y="159" type="line"/>
      <point x="509" y="116" type="line"/>
      <point x="509" y="-271" type="line" smooth="yes"/>
      <point x="509" y="-384"/>
      <point x="453" y="-441"/>
      <point x="345" y="-441" type="curve" smooth="yes"/>
      <point x="262" y="-441" type="line" smooth="yes"/>
      <point x="155" y="-441"/>
      <point x="101" y="-406"/>
      <point x="101" y="-326" type="curve" smooth="yes"/>
      <point x="101" y="-262"/>
      <point x="140" y="-218"/>
      <point x="200" y="-218" type="curve" smooth="yes"/>
      <point x="253" y="-218"/>
      <point x="281" y="-238"/>
      <point x="309" y="-267" type="curve"/>
      <point x="328" y="-248" type="line"/>
      <point x="289" y="-213"/>
      <point x="260" y="-192"/>
      <point x="200" y="-192" type="curve" smooth="yes"/>
      <point x="129" y="-192"/>
      <point x="75" y="-245"/>
      <point x="75" y="-326" type="curve" smooth="yes"/>
      <point x="75" y="-420"/>
      <point x="140" y="-467"/>
    </contour>
    <contour>
      <point x="113" y="114" type="line"/>
      <point x="158" y="180"/>
      <point x="234" y="223"/>
      <point x="308" y="223" type="curve" smooth="yes"/>
      <point x="405" y="223"/>
      <point x="475" y="183"/>
      <point x="514" y="119" type="curve"/>
      <point x="532" y="137" type="line"/>
      <point x="491" y="201"/>
      <point x="412" y="249"/>
      <point x="308" y="249" type="curve" smooth="yes"/>
      <point x="225" y="249"/>
      <point x="143" y="208"/>
      <point x="93" y="132" type="curve"/>
    </contour>
    <contour>
      <point x="308" y="-10" type="curve" smooth="yes"/>
      <point x="458" y="-10"/>
      <point x="561" y="104"/>
      <point x="561" y="275" type="curve" smooth="yes"/>
      <point x="561" y="375"/>
      <point x="511" y="488"/>
      <point x="449" y="536" type="curve"/>
      <point x="431" y="516" type="line"/>
      <point x="491" y="474"/>
      <point x="535" y="359"/>
      <point x="535" y="275" type="curve" smooth="yes"/>
      <point x="535" y="108"/>
      <point x="437" y="16"/>
      <point x="308" y="16" type="curve" smooth="yes"/>
      <point x="188" y="16"/>
      <point x="81" y="108"/>
      <point x="81" y="275" type="curve" smooth="yes"/>
      <point x="81" y="359"/>
      <point x="125" y="474"/>
      <point x="185" y="516" type="curve"/>
      <point x="167" y="536" type="line"/>
      <point x="105" y="488"/>
      <point x="55" y="375"/>
      <point x="55" y="275" type="curve" smooth="yes"/>
      <point x="55" y="104"/>
      <point x="167" y="-10"/>
    </contour>
  </outline>
</glyph>
<glyph name="_medialNa_mon" format="2">
  <unicode hex="105E"/>
  <note>
_medialNa_mon
</note>
  <outline>
    <contour>
      <point x="-430" y="-458" type="curve" smooth="yes"/>
      <point x="-356" y="-458"/>
      <point x="-306" y="-406"/>
      <point x="-306" y="-320" type="curve" smooth="yes"/>
      <point x="-306" y="-33" type="line"/>
      <point x="-332" y="-33" type="line"/>
      <point x="-332" y="-320" type="line" smooth="yes"/>
      <point x="-332" y="-393"/>
      <point x="-371" y="-432"/>
      <point x="-430" y="-432" type="curve" smooth="yes"/>
      <point x="-485" y="-432"/>
      <point x="-528" y="-395"/>
      <point x="-528" y="-329" type="curve" smooth="yes"/>
      <point x="-528" y="-262"/>
      <point x="-478" y="-209"/>
      <point x="-341" y="-209" type="curve" smooth="yes"/>
      <point x="-257" y="-209"/>
      <point x="-208" y="-234"/>
      <point x="-150" y="-270" type="curve"/>
      <point x="-137" y="-248" type="line"/>
      <point x="-203" y="-207"/>
      <point x="-257" y="-183"/>
      <point x="-341" y="-183" type="curve" smooth="yes"/>
      <point x="-487" y="-183"/>
      <point x="-554" y="-245"/>
      <point x="-554" y="-329" type="curve" smooth="yes"/>
      <point x="-554" y="-405"/>
      <point x="-501" y="-458"/>
    </contour>
  </outline>
</glyph>
<glyph name="_medialMa_mon" format="2">
  <unicode hex="105F"/>
  <note>
_medialMa_mon
</note>
  <outline>
    <contour>
      <point x="-323" y="-458" type="curve" smooth="yes"/>
      <point x="-232" y="-458"/>
      <point x="-160" y="-432"/>
      <point x="-96" y="-386" type="curve"/>
      <point x="-111" y="-365" type="line"/>
      <point x="-185" y="-419"/>
      <point x="-253" y="-432"/>
      <point x="-323" y="-432" type="curve" smooth="yes"/>
      <point x="-428" y="-432"/>
      <point x="-507" y="-406"/>
      <point x="-507" y="-317" type="curve" smooth="yes"/>
      <point x="-507" y="-240"/>
      <point x="-437" y="-203"/>
      <point x="-325" y="-203" type="curve" smooth="yes"/>
      <point x="-312" y="-203"/>
      <point x="-289" y="-205"/>
      <point x="-279" y="-207" type="curve"/>
      <point x="-279" y="-33" type="line"/>
      <point x="-305" y="-33" type="line"/>
      <point x="-305" y="-176" type="line"/>
      <point x="-451" y="-176"/>
      <point x="-533" y="-220"/>
      <point x="-533" y="-317" type="curve" smooth="yes"/>
      <point x="-533" y="-419"/>
      <point x="-442" y="-458"/>
    </contour>
  </outline>
</glyph>
<glyph name="_medialLa_mon" format="2">
  <unicode hex="1060"/>
  <note>
_medialLa_mon
</note>
  <outline>
    <contour>
      <point x="-490" y="-468" type="line"/>
      <point x="-125" y="-468" type="line"/>
      <point x="-125" y="-442" type="line"/>
      <point x="-448" y="-442" type="line"/>
      <point x="-245" y="-51" type="line"/>
      <point x="-274" y="-51" type="line"/>
    </contour>
  </outline>
</glyph>
<glyph name="eu_skn" format="2">
  <advance width="333"/>
  <unicode hex="1062"/>
  <note>
eu_skn
</note>
  <outline>
    <contour>
      <point x="203" y="0" type="line"/>
      <point x="229" y="0" type="line"/>
      <point x="229" y="526" type="line"/>
      <point x="32" y="526" type="line"/>
      <point x="32" y="500" type="line"/>
      <point x="203" y="500" type="line"/>
    </contour>
  </outline>
</glyph>
<glyph name="hathi_skn" format="2">
  <advance width="625"/>
  <unicode hex="1063"/>
  <note>
hathi_skn
</note>
  <outline>
    <contour>
      <point x="77" y="-468" type="line"/>
      <point x="103" y="-468" type="line"/>
      <point x="103" y="124" type="line"/>
      <point x="77" y="162" type="line"/>
    </contour>
    <contour>
      <point x="322" y="-7" type="curve" smooth="yes"/>
      <point x="477" y="-7"/>
      <point x="570" y="114"/>
      <point x="570" y="264" type="curve" smooth="yes"/>
      <point x="570" y="411"/>
      <point x="481" y="539"/>
      <point x="322" y="539" type="curve" smooth="yes"/>
      <point x="204" y="539"/>
      <point x="119" y="472"/>
      <point x="81" y="377" type="curve"/>
      <point x="105" y="367" type="line"/>
      <point x="138" y="454"/>
      <point x="214" y="513"/>
      <point x="322" y="513" type="curve" smooth="yes"/>
      <point x="466" y="513"/>
      <point x="544" y="399"/>
      <point x="544" y="264" type="curve" smooth="yes"/>
      <point x="544" y="112"/>
      <point x="449" y="19"/>
      <point x="322" y="19" type="curve" smooth="yes"/>
      <point x="214" y="19"/>
      <point x="133" y="78"/>
      <point x="101" y="173" type="curve"/>
      <point x="77" y="162" type="line"/>
      <point x="113" y="60"/>
      <point x="202" y="-7"/>
    </contour>
  </outline>
</glyph>
<glyph name="kepho_skn" format="2">
  <advance width="377"/>
  <unicode hex="1064"/>
  <note>
kepho_skn
</note>
  <outline>
    <contour>
      <point x="176" y="0" type="line"/>
      <point x="340" y="0" type="line"/>
      <point x="340" y="26" type="line"/>
      <point x="202" y="26" type="line"/>
      <point x="202" y="526" type="line"/>
      <point x="36" y="526" type="line"/>
      <point x="36" y="500" type="line"/>
      <point x="176" y="500" type="line"/>
    </contour>
  </outline>
</glyph>
<glyph name="tha_wpk" format="2">
  <advance width="634"/>
  <unicode hex="1065"/>
  <note>
tha_wpk
</note>
  <outline>
    <contour>
      <point x="314" y="-10" type="curve" smooth="yes"/>
      <point x="474" y="-10"/>
      <point x="569" y="111"/>
      <point x="569" y="261" type="curve" smooth="yes"/>
      <point x="569" y="408"/>
      <point x="478" y="536"/>
      <point x="314" y="536" type="curve" smooth="yes"/>
      <point x="195" y="536"/>
      <point x="109" y="469"/>
      <point x="71" y="374" type="curve"/>
      <point x="95" y="364" type="line"/>
      <point x="128" y="451"/>
      <point x="205" y="510"/>
      <point x="314" y="510" type="curve" smooth="yes"/>
      <point x="463" y="510"/>
      <point x="543" y="396"/>
      <point x="543" y="261" type="curve" smooth="yes"/>
      <point x="543" y="109"/>
      <point x="445" y="16"/>
      <point x="314" y="16" type="curve" smooth="yes"/>
      <point x="205" y="16"/>
      <point x="123" y="75"/>
      <point x="91" y="170" type="curve"/>
      <point x="67" y="159" type="line"/>
      <point x="103" y="57"/>
      <point x="193" y="-10"/>
    </contour>
  </outline>
</glyph>
<glyph name="pwa_wpk" format="2">
  <advance width="630"/>
  <unicode hex="1066"/>
  <note>
pwa_wpk
</note>
  <outline>
    <contour>
      <point x="310" y="-10" type="curve" smooth="yes"/>
      <point x="464" y="-10"/>
      <point x="571" y="85"/>
      <point x="571" y="275" type="curve" smooth="yes"/>
      <point x="571" y="375"/>
      <point x="521" y="488"/>
      <point x="459" y="536" type="curve"/>
      <point x="441" y="516" type="line"/>
      <point x="501" y="474"/>
      <point x="545" y="359"/>
      <point x="545" y="275" type="curve" smooth="yes"/>
      <point x="545" y="89"/>
      <point x="443" y="16"/>
      <point x="310" y="16" type="curve" smooth="yes"/>
      <point x="184" y="16"/>
      <point x="81" y="108"/>
      <point x="81" y="275" type="curve" smooth="yes"/>
      <point x="81" y="359"/>
      <point x="125" y="474"/>
      <point x="185" y="516" type="curve"/>
      <point x="167" y="536" type="line"/>
      <point x="105" y="488"/>
      <point x="55" y="375"/>
      <point x="55" y="275" type="curve" smooth="yes"/>
      <point x="55" y="104"/>
      <point x="164" y="-10"/>
    </contour>
    <contour>
      <point x="173" y="-468" type="line"/>
      <point x="340" y="-468" type="line"/>
      <point x="340" y="-6" type="line"/>
      <point x="314" y="-4" type="line"/>
      <point x="314" y="-442" type="line"/>
      <point x="173" y="-442" type="line"/>
    </contour>
  </outline>
</glyph>
<glyph name="eu_wpk" format="2">
  <advance width="422"/>
  <unicode hex="1067"/>
  <note>
eu_wpk
</note>
  <outline>
    <contour>
      <point x="194" y="-12" type="curve" smooth="yes"/>
      <point x="270" y="-12"/>
      <point x="318" y="36"/>
      <point x="318" y="113" type="curve" smooth="yes"/>
      <point x="318" y="180"/>
      <point x="271" y="240"/>
      <point x="194" y="240" type="curve" smooth="yes"/>
      <point x="116" y="240"/>
      <point x="69" y="180"/>
      <point x="69" y="113" type="curve" smooth="yes"/>
      <point x="69" y="36"/>
      <point x="117" y="-12"/>
    </contour>
    <contour>
      <point x="194" y="14" type="curve" smooth="yes"/>
      <point x="130" y="14"/>
      <point x="95" y="51"/>
      <point x="95" y="113" type="curve" smooth="yes"/>
      <point x="95" y="165"/>
      <point x="130" y="214"/>
      <point x="194" y="214" type="curve" smooth="yes"/>
      <point x="257" y="214"/>
      <point x="292" y="165"/>
      <point x="292" y="113" type="curve" smooth="yes"/>
      <point x="292" y="51"/>
      <point x="257" y="14"/>
    </contour>
    <contour>
      <point x="318" y="113" type="line"/>
      <point x="318" y="526" type="line"/>
      <point x="292" y="526" type="line"/>
      <point x="292" y="188" type="line"/>
    </contour>
  </outline>
</glyph>
<glyph name="ue_wpk" format="2">
  <advance width="268"/>
  <unicode hex="1068"/>
  <note>
ue_wpk
</note>
  <outline>
    <contour>
      <point x="36" y="0" type="line"/>
      <point x="201" y="0" type="line"/>
      <point x="201" y="526" type="line"/>
      <point x="175" y="526" type="line"/>
      <point x="175" y="26" type="line"/>
      <point x="36" y="26" type="line"/>
    </contour>
    <contour>
      <point x="172" y="664" type="curve" smooth="yes"/>
      <point x="226" y="664"/>
      <point x="265" y="698"/>
      <point x="265" y="758" type="curve" smooth="yes"/>
      <point x="265" y="821"/>
      <point x="221" y="849"/>
      <point x="172" y="849" type="curve" smooth="yes"/>
      <point x="121" y="849"/>
      <point x="82" y="817"/>
      <point x="82" y="758" type="curve" smooth="yes"/>
      <point x="82" y="698"/>
      <point x="119" y="664"/>
    </contour>
    <contour>
      <point x="172" y="690" type="curve" smooth="yes"/>
      <point x="134" y="690"/>
      <point x="108" y="717"/>
      <point x="108" y="758" type="curve" smooth="yes"/>
      <point x="108" y="797"/>
      <point x="134" y="823"/>
      <point x="172" y="823" type="curve" smooth="yes"/>
      <point x="210" y="823"/>
      <point x="239" y="797"/>
      <point x="239" y="758" type="curve" smooth="yes"/>
      <point x="239" y="717"/>
      <point x="212" y="690"/>
    </contour>
  </outline>
</glyph>
<glyph name="tone1_wpk" format="2">
  <advance width="386"/>
  <unicode hex="1069"/>
  <note>
tone1_wpk
</note>
  <outline>
    <contour>
      <point x="186" y="-16" type="curve" smooth="yes"/>
      <point x="239" y="-16"/>
      <point x="279" y="7"/>
      <point x="300" y="34" type="curve"/>
      <point x="281" y="51" type="line"/>
      <point x="264" y="28"/>
      <point x="228" y="10"/>
      <point x="186" y="10" type="curve" smooth="yes"/>
      <point x="124" y="10"/>
      <point x="89" y="46"/>
      <point x="89" y="101" type="curve" smooth="yes"/>
      <point x="89" y="154"/>
      <point x="110" y="187"/>
      <point x="216" y="246" type="curve" smooth="yes"/>
      <point x="310" y="298"/>
      <point x="340" y="341"/>
      <point x="340" y="416" type="curve" smooth="yes"/>
      <point x="340" y="486"/>
      <point x="286" y="536"/>
      <point x="212" y="536" type="curve" smooth="yes"/>
      <point x="155" y="536"/>
      <point x="108" y="518"/>
      <point x="72" y="469" type="curve"/>
      <point x="92" y="454" type="line"/>
      <point x="125" y="495"/>
      <point x="163" y="510"/>
      <point x="212" y="510" type="curve" smooth="yes"/>
      <point x="276" y="510"/>
      <point x="314" y="471"/>
      <point x="314" y="416" type="curve" smooth="yes"/>
      <point x="314" y="352"/>
      <point x="292" y="320"/>
      <point x="202" y="270" type="curve" smooth="yes"/>
      <point x="98" y="212"/>
      <point x="63" y="169"/>
      <point x="63" y="101" type="curve" smooth="yes"/>
      <point x="63" y="32"/>
      <point x="108" y="-16"/>
    </contour>
  </outline>
</glyph>
<glyph name="tone2_wpk" format="2">
  <advance width="413"/>
  <unicode hex="106A"/>
  <note>
tone2_wpk
</note>
  <outline>
    <contour>
      <point x="189" y="-12" type="curve" smooth="yes"/>
      <point x="259" y="-12"/>
      <point x="308" y="30"/>
      <point x="308" y="126" type="curve" smooth="yes"/>
      <point x="308" y="526" type="line"/>
      <point x="282" y="526" type="line"/>
      <point x="282" y="126" type="line" smooth="yes"/>
      <point x="282" y="44"/>
      <point x="247" y="14"/>
      <point x="189" y="14" type="curve" smooth="yes"/>
      <point x="150" y="14"/>
      <point x="104" y="34"/>
      <point x="104" y="83" type="curve"/>
      <point x="78" y="83" type="line"/>
      <point x="78" y="23"/>
      <point x="132" y="-12"/>
    </contour>
  </outline>
</glyph>
<glyph name="tone3_wpk" format="2">
  <advance width="413"/>
  <unicode hex="106B"/>
  <note>
tone3_wpk
</note>
  <outline>
    <contour>
      <point x="282" y="0" type="line"/>
      <point x="308" y="0" type="line"/>
      <point x="308" y="400" type="line" smooth="yes"/>
      <point x="308" y="496"/>
      <point x="259" y="538"/>
      <point x="189" y="538" type="curve" smooth="yes"/>
      <point x="132" y="538"/>
      <point x="78" y="503"/>
      <point x="78" y="443" type="curve"/>
      <point x="104" y="443" type="line"/>
      <point x="104" y="492"/>
      <point x="150" y="512"/>
      <point x="189" y="512" type="curve" smooth="yes"/>
      <point x="247" y="512"/>
      <point x="282" y="482"/>
      <point x="282" y="400" type="curve" smooth="yes"/>
    </contour>
  </outline>
</glyph>
<glyph name="tone4_wpk" format="2">
  <advance width="413"/>
  <unicode hex="106C"/>
  <note>
tone4_wpk
</note>
  <outline>
    <contour>
      <point x="224" y="-12" type="curve" smooth="yes"/>
      <point x="281" y="-12"/>
      <point x="335" y="23"/>
      <point x="335" y="83" type="curve"/>
      <point x="309" y="83" type="line"/>
      <point x="309" y="34"/>
      <point x="263" y="14"/>
      <point x="224" y="14" type="curve" smooth="yes"/>
      <point x="166" y="14"/>
      <point x="131" y="44"/>
      <point x="131" y="126" type="curve" smooth="yes"/>
      <point x="131" y="526" type="line"/>
      <point x="105" y="526" type="line"/>
      <point x="105" y="126" type="line" smooth="yes"/>
      <point x="105" y="30"/>
      <point x="154" y="-12"/>
    </contour>
  </outline>
</glyph>
<glyph name="tone5_wpk" format="2">
  <advance width="386"/>
  <unicode hex="106D"/>
  <note>
tone5_wpk
</note>
  <outline>
    <contour>
      <point x="200" y="-16" type="curve" smooth="yes"/>
      <point x="278" y="-16"/>
      <point x="323" y="32"/>
      <point x="323" y="101" type="curve" smooth="yes"/>
      <point x="323" y="169"/>
      <point x="288" y="212"/>
      <point x="184" y="270" type="curve" smooth="yes"/>
      <point x="94" y="320"/>
      <point x="72" y="352"/>
      <point x="72" y="416" type="curve" smooth="yes"/>
      <point x="72" y="471"/>
      <point x="110" y="510"/>
      <point x="174" y="510" type="curve" smooth="yes"/>
      <point x="223" y="510"/>
      <point x="261" y="495"/>
      <point x="294" y="454" type="curve"/>
      <point x="314" y="469" type="line"/>
      <point x="278" y="518"/>
      <point x="231" y="536"/>
      <point x="174" y="536" type="curve" smooth="yes"/>
      <point x="100" y="536"/>
      <point x="46" y="486"/>
      <point x="46" y="416" type="curve" smooth="yes"/>
      <point x="46" y="341"/>
      <point x="76" y="298"/>
      <point x="170" y="246" type="curve" smooth="yes"/>
      <point x="276" y="187"/>
      <point x="297" y="154"/>
      <point x="297" y="101" type="curve" smooth="yes"/>
      <point x="297" y="46"/>
      <point x="262" y="10"/>
      <point x="200" y="10" type="curve" smooth="yes"/>
      <point x="158" y="10"/>
      <point x="122" y="28"/>
      <point x="105" y="51" type="curve"/>
      <point x="86" y="34" type="line"/>
      <point x="107" y="7"/>
      <point x="147" y="-16"/>
    </contour>
  </outline>
</glyph>
<glyph name="nna_epk" format="2">
  <advance width="1128"/>
  <unicode hex="106E"/>
  <note>
nna_epk
</note>
  <outline>
    <contour>
      <point x="167" y="-10" type="curve"/>
      <point x="185" y="10" type="line"/>
      <point x="125" y="52"/>
      <point x="81" y="167"/>
      <point x="81" y="251" type="curve" smooth="yes"/>
      <point x="81" y="418"/>
      <point x="151" y="510"/>
      <point x="263" y="510" type="curve" smooth="yes"/>
      <point x="374" y="510"/>
      <point x="431" y="414"/>
      <point x="431" y="251" type="curve" smooth="yes"/>
      <point x="431" y="167"/>
      <point x="388" y="52"/>
      <point x="330" y="10" type="curve"/>
      <point x="348" y="-10" type="line"/>
      <point x="409" y="38"/>
      <point x="457" y="151"/>
      <point x="457" y="251" type="curve" smooth="yes"/>
      <point x="457" y="422"/>
      <point x="393" y="536"/>
      <point x="263" y="536" type="curve" smooth="yes"/>
      <point x="130" y="536"/>
      <point x="55" y="422"/>
      <point x="55" y="251" type="curve" smooth="yes"/>
      <point x="55" y="151"/>
      <point x="105" y="38"/>
    </contour>
    <contour>
      <point x="589" y="-10" type="line"/>
      <point x="650" y="38"/>
      <point x="698" y="151"/>
      <point x="698" y="251" type="curve" smooth="yes"/>
      <point x="698" y="422"/>
      <point x="625" y="536"/>
      <point x="499" y="536" type="curve" smooth="yes"/>
      <point x="442" y="536"/>
      <point x="400" y="517"/>
      <point x="368" y="482" type="curve"/>
      <point x="386" y="464" type="line"/>
      <point x="415" y="494"/>
      <point x="451" y="510"/>
      <point x="499" y="510" type="curve" smooth="yes"/>
      <point x="606" y="510"/>
      <point x="672" y="414"/>
      <point x="672" y="251" type="curve" smooth="yes"/>
      <point x="672" y="167"/>
      <point x="629" y="52"/>
      <point x="571" y="10" type="curve"/>
    </contour>
    <contour>
      <point x="864" y="-8" type="curve" smooth="yes"/>
      <point x="990" y="-8"/>
      <point x="1073" y="90"/>
      <point x="1073" y="251" type="curve" smooth="yes"/>
      <point x="1073" y="427"/>
      <point x="1003" y="536"/>
      <point x="869" y="536" type="curve" smooth="yes"/>
      <point x="768" y="536"/>
      <point x="709" y="469"/>
      <point x="666" y="368" type="curve"/>
      <point x="683" y="342" type="line"/>
      <point x="730" y="455"/>
      <point x="782" y="510"/>
      <point x="869" y="510" type="curve" smooth="yes"/>
      <point x="992" y="510"/>
      <point x="1047" y="407"/>
      <point x="1047" y="251" type="curve" smooth="yes"/>
      <point x="1047" y="103"/>
      <point x="975" y="18"/>
      <point x="864" y="18" type="curve" smooth="yes"/>
      <point x="834" y="18"/>
      <point x="808" y="21"/>
      <point x="774" y="33" type="curve"/>
      <point x="760" y="10" type="line"/>
      <point x="799" y="-4"/>
      <point x="825" y="-8"/>
    </contour>
  </outline>
</glyph>
<glyph name="ywa_epk" format="2">
  <advance width="1118"/>
  <unicode hex="106F"/>
  <note>
ywa_epk
</note>
  <outline>
    <contour>
      <point x="318" y="-10" type="curve" smooth="yes"/>
      <point x="474" y="-10"/>
      <point x="581" y="104"/>
      <point x="581" y="275" type="curve" smooth="yes"/>
      <point x="581" y="375"/>
      <point x="531" y="488"/>
      <point x="469" y="536" type="curve"/>
      <point x="451" y="516" type="line"/>
      <point x="511" y="474"/>
      <point x="555" y="359"/>
      <point x="555" y="275" type="curve" smooth="yes"/>
      <point x="555" y="108"/>
      <point x="453" y="16"/>
      <point x="318" y="16" type="curve" smooth="yes"/>
      <point x="193" y="16"/>
      <point x="81" y="108"/>
      <point x="81" y="275" type="curve" smooth="yes"/>
      <point x="81" y="359"/>
      <point x="125" y="474"/>
      <point x="185" y="516" type="curve"/>
      <point x="167" y="536" type="line"/>
      <point x="105" y="488"/>
      <point x="55" y="375"/>
      <point x="55" y="275" type="curve" smooth="yes"/>
      <point x="55" y="104"/>
      <point x="171" y="-10"/>
    </contour>
    <contour>
      <point x="663" y="-468" type="line"/>
      <point x="830" y="-468" type="line"/>
      <point x="830" y="0" type="line"/>
      <point x="804" y="0" type="line"/>
      <point x="804" y="-442" type="line"/>
      <point x="663" y="-442" type="line"/>
    </contour>
    <contour>
      <point x="814" y="-8" type="curve" smooth="yes"/>
      <point x="964" y="-8"/>
      <point x="1063" y="90"/>
      <point x="1063" y="251" type="curve" smooth="yes"/>
      <point x="1063" y="412"/>
      <point x="975" y="536"/>
      <point x="818" y="536" type="curve" smooth="yes"/>
      <point x="714" y="536"/>
      <point x="627" y="477"/>
      <point x="556" y="374" type="curve"/>
      <point x="568" y="345" type="line"/>
      <point x="656" y="471"/>
      <point x="729" y="510"/>
      <point x="818" y="510" type="curve" smooth="yes"/>
      <point x="964" y="510"/>
      <point x="1037" y="396"/>
      <point x="1037" y="251" type="curve" smooth="yes"/>
      <point x="1037" y="103"/>
      <point x="949" y="18"/>
      <point x="814" y="18" type="curve" smooth="yes"/>
      <point x="775" y="18"/>
      <point x="726" y="22"/>
      <point x="692" y="35" type="curve"/>
      <point x="678" y="12" type="line"/>
      <point x="719" y="-3"/>
      <point x="761" y="-8"/>
    </contour>
  </outline>
</glyph>
<glyph name="ghwa_epk" format="2">
  <advance width="1132"/>
  <unicode hex="1070"/>
  <note>
ghwa_epk
</note>
  <outline>
    <contour>
      <point x="328" y="-10" type="curve" smooth="yes"/>
      <point x="479" y="-10"/>
      <point x="591" y="104"/>
      <point x="591" y="275" type="curve" smooth="yes"/>
      <point x="591" y="387"/>
      <point x="541" y="479"/>
      <point x="479" y="536" type="curve"/>
      <point x="461" y="516" type="line"/>
      <point x="521" y="465"/>
      <point x="565" y="371"/>
      <point x="565" y="275" type="curve" smooth="yes"/>
      <point x="565" y="110"/>
      <point x="458" y="16"/>
      <point x="328" y="16" type="curve" smooth="yes"/>
      <point x="185" y="16"/>
      <point x="102" y="93"/>
      <point x="102" y="204" type="curve" smooth="yes"/>
      <point x="102" y="276"/>
      <point x="129" y="314"/>
      <point x="181" y="361" type="curve" smooth="yes"/>
      <point x="225" y="400"/>
      <point x="235" y="425"/>
      <point x="235" y="460" type="curve" smooth="yes"/>
      <point x="235" y="501"/>
      <point x="204" y="534"/>
      <point x="157" y="534" type="curve" smooth="yes"/>
      <point x="116" y="534"/>
      <point x="89" y="513"/>
      <point x="70" y="489" type="curve"/>
      <point x="89" y="471" type="line"/>
      <point x="104" y="493"/>
      <point x="129" y="508"/>
      <point x="157" y="508" type="curve" smooth="yes"/>
      <point x="191" y="508"/>
      <point x="209" y="488"/>
      <point x="209" y="460" type="curve" smooth="yes"/>
      <point x="209" y="434"/>
      <point x="199" y="411"/>
      <point x="165" y="381" type="curve" smooth="yes"/>
      <point x="108" y="330"/>
      <point x="76" y="280"/>
      <point x="76" y="204" type="curve" smooth="yes"/>
      <point x="76" y="81"/>
      <point x="171" y="-10"/>
    </contour>
    <contour>
      <point x="661" y="-468" type="line"/>
      <point x="828" y="-468" type="line"/>
      <point x="828" y="0" type="line"/>
      <point x="802" y="0" type="line"/>
      <point x="802" y="-442" type="line"/>
      <point x="661" y="-442" type="line"/>
    </contour>
    <contour>
      <point x="821" y="-8" type="curve" smooth="yes"/>
      <point x="977" y="-8"/>
      <point x="1065" y="116"/>
      <point x="1065" y="277" type="curve" smooth="yes"/>
      <point x="1065" y="438"/>
      <point x="963" y="536"/>
      <point x="813" y="536" type="curve" smooth="yes"/>
      <point x="756" y="536"/>
      <point x="714" y="531"/>
      <point x="673" y="516" type="curve"/>
      <point x="687" y="493" type="line"/>
      <point x="721" y="506"/>
      <point x="770" y="510"/>
      <point x="813" y="510" type="curve" smooth="yes"/>
      <point x="948" y="510"/>
      <point x="1039" y="425"/>
      <point x="1039" y="277" type="curve" smooth="yes"/>
      <point x="1039" y="132"/>
      <point x="967" y="18"/>
      <point x="821" y="18" type="curve" smooth="yes"/>
      <point x="722" y="18"/>
      <point x="649" y="57"/>
      <point x="571" y="183" type="curve"/>
      <point x="559" y="154" type="line"/>
      <point x="620" y="51"/>
      <point x="707" y="-8"/>
    </contour>
  </outline>
</glyph>
<glyph name="i_gkn" format="2">
  <unicode hex="1071"/>
  <note>
i_gkn
</note>
  <outline>
    <contour>
      <point x="-191" y="680" type="curve" smooth="yes"/>
      <point x="-138" y="680"/>
      <point x="-99" y="714"/>
      <point x="-99" y="773" type="curve" smooth="yes"/>
      <point x="-99" y="833"/>
      <point x="-142" y="863"/>
      <point x="-191" y="863" type="curve" smooth="yes"/>
      <point x="-245" y="863"/>
      <point x="-282" y="828"/>
      <point x="-282" y="772" type="curve" smooth="yes"/>
      <point x="-282" y="713"/>
      <point x="-246" y="680"/>
    </contour>
    <contour>
      <point x="-191" y="706" type="curve" smooth="yes"/>
      <point x="-234" y="706"/>
      <point x="-256" y="731"/>
      <point x="-256" y="772" type="curve" smooth="yes"/>
      <point x="-256" y="811"/>
      <point x="-230" y="837"/>
      <point x="-191" y="837" type="curve" smooth="yes"/>
      <point x="-151" y="837"/>
      <point x="-125" y="811"/>
      <point x="-125" y="772" type="curve" smooth="yes"/>
      <point x="-125" y="731"/>
      <point x="-151" y="706"/>
    </contour>
    <contour>
      <point x="-435" y="680" type="curve" smooth="yes"/>
      <point x="-383" y="680"/>
      <point x="-343" y="714"/>
      <point x="-343" y="773" type="curve" smooth="yes"/>
      <point x="-343" y="833"/>
      <point x="-385" y="863"/>
      <point x="-435" y="863" type="curve" smooth="yes"/>
      <point x="-487" y="863"/>
      <point x="-528" y="830"/>
      <point x="-528" y="772" type="curve" smooth="yes"/>
      <point x="-528" y="713"/>
      <point x="-488" y="680"/>
    </contour>
    <contour>
      <point x="-434" y="706" type="curve" smooth="yes"/>
      <point x="-478" y="706"/>
      <point x="-502" y="731"/>
      <point x="-502" y="772" type="curve" smooth="yes"/>
      <point x="-502" y="811"/>
      <point x="-474" y="837"/>
      <point x="-434" y="837" type="curve" smooth="yes"/>
      <point x="-395" y="837"/>
      <point x="-369" y="811"/>
      <point x="-369" y="772" type="curve" smooth="yes"/>
      <point x="-369" y="731"/>
      <point x="-395" y="706"/>
    </contour>
  </outline>
</glyph>
<glyph name="oe_kyh" format="2">
  <unicode hex="1072"/>
  <note>
oe_kyh
</note>
  <outline>
    <contour>
      <point x="-303" y="627" type="curve" smooth="yes"/>
      <point x="-231" y="627"/>
      <point x="-166" y="666"/>
      <point x="-139" y="736" type="curve"/>
      <point x="-162" y="747" type="line"/>
      <point x="-189" y="680"/>
      <point x="-245" y="653"/>
      <point x="-303" y="653" type="curve" smooth="yes"/>
      <point x="-389" y="653"/>
      <point x="-447" y="718"/>
      <point x="-447" y="814" type="curve" smooth="yes"/>
      <point x="-447" y="893"/>
      <point x="-394" y="971"/>
      <point x="-303" y="971" type="curve" smooth="yes"/>
      <point x="-233" y="971"/>
      <point x="-187" y="937"/>
      <point x="-167" y="881" type="curve"/>
      <point x="-144" y="893" type="line"/>
      <point x="-172" y="961"/>
      <point x="-224" y="997"/>
      <point x="-303" y="997" type="curve" smooth="yes"/>
      <point x="-407" y="997"/>
      <point x="-473" y="909"/>
      <point x="-473" y="814" type="curve" smooth="yes"/>
      <point x="-473" y="711"/>
      <point x="-411" y="627"/>
    </contour>
  </outline>
</glyph>
<glyph name="u_kyh" format="2">
  <unicode hex="1073"/>
  <note>
u_kyh
</note>
  <outline>
    <contour>
      <point x="-559" y="638" type="line"/>
      <point x="-312" y="877" type="line"/>
      <point x="-67" y="638" type="line"/>
      <point x="-50" y="656" type="line"/>
      <point x="-312" y="911" type="line"/>
      <point x="-575" y="656" type="line"/>
    </contour>
  </outline>
</glyph>
<glyph name="ka_shn" format="2">
  <advance width="629"/>
  <unicode hex="1075"/>
  <note>
ka_shn
</note>
  <outline>
    <contour>
      <point x="167" y="-8" type="curve" smooth="yes"/>
      <point x="214" y="-8"/>
      <point x="245" y="25"/>
      <point x="245" y="66" type="curve" smooth="yes"/>
      <point x="245" y="101"/>
      <point x="232" y="130"/>
      <point x="191" y="165" type="curve" smooth="yes"/>
      <point x="134" y="214"/>
      <point x="102" y="250"/>
      <point x="102" y="322" type="curve" smooth="yes"/>
      <point x="102" y="433"/>
      <point x="184" y="510"/>
      <point x="317" y="510" type="curve" smooth="yes"/>
      <point x="443" y="510"/>
      <point x="542" y="416"/>
      <point x="542" y="251" type="curve" smooth="yes"/>
      <point x="542" y="155"/>
      <point x="498" y="61"/>
      <point x="438" y="10" type="curve"/>
      <point x="456" y="-10" type="line"/>
      <point x="518" y="47"/>
      <point x="568" y="139"/>
      <point x="568" y="251" type="curve" smooth="yes"/>
      <point x="568" y="422"/>
      <point x="464" y="536"/>
      <point x="317" y="536" type="curve" smooth="yes"/>
      <point x="169" y="536"/>
      <point x="76" y="445"/>
      <point x="76" y="322" type="curve" smooth="yes"/>
      <point x="76" y="246"/>
      <point x="112" y="197"/>
      <point x="175" y="145" type="curve" smooth="yes"/>
      <point x="210" y="116"/>
      <point x="219" y="92"/>
      <point x="219" y="66" type="curve" smooth="yes"/>
      <point x="219" y="38"/>
      <point x="201" y="18"/>
      <point x="167" y="18" type="curve" smooth="yes"/>
      <point x="139" y="18"/>
      <point x="114" y="33"/>
      <point x="99" y="55" type="curve"/>
      <point x="80" y="37" type="line"/>
      <point x="99" y="13"/>
      <point x="126" y="-8"/>
    </contour>
  </outline>
</glyph>
<glyph name="kha_shn" format="2">
  <advance width="628"/>
  <unicode hex="1076"/>
  <note>
kha_shn
</note>
  <outline>
    <contour>
      <point x="320" y="-10" type="curve" smooth="yes"/>
      <point x="471" y="-10"/>
      <point x="573" y="103"/>
      <point x="573" y="267" type="curve" smooth="yes"/>
      <point x="573" y="423"/>
      <point x="505" y="532"/>
      <point x="394" y="532" type="curve" smooth="yes"/>
      <point x="315" y="532"/>
      <point x="281" y="484"/>
      <point x="242" y="425" type="curve" smooth="yes"/>
      <point x="213" y="382"/>
      <point x="179" y="364"/>
      <point x="145" y="364" type="curve" smooth="yes"/>
      <point x="109" y="364"/>
      <point x="81" y="385"/>
      <point x="81" y="425" type="curve" smooth="yes"/>
      <point x="81" y="462"/>
      <point x="105" y="495"/>
      <point x="141" y="514" type="curve"/>
      <point x="123" y="533" type="line"/>
      <point x="87" y="510"/>
      <point x="55" y="476"/>
      <point x="55" y="425" type="curve" smooth="yes"/>
      <point x="55" y="375"/>
      <point x="93" y="338"/>
      <point x="145" y="338" type="curve" smooth="yes"/>
      <point x="188" y="338"/>
      <point x="229" y="359"/>
      <point x="264" y="412" type="curve" smooth="yes"/>
      <point x="299" y="466"/>
      <point x="324" y="506"/>
      <point x="394" y="506" type="curve" smooth="yes"/>
      <point x="491" y="506"/>
      <point x="547" y="405"/>
      <point x="547" y="267" type="curve" smooth="yes"/>
      <point x="547" y="114"/>
      <point x="454" y="16"/>
      <point x="320" y="16" type="curve" smooth="yes"/>
      <point x="220" y="16"/>
      <point x="137" y="61"/>
      <point x="94" y="141" type="curve"/>
      <point x="143" y="184"/>
      <point x="215" y="216"/>
      <point x="287" y="216" type="curve" smooth="yes"/>
      <point x="409" y="216"/>
      <point x="472" y="164"/>
      <point x="518" y="116" type="curve"/>
      <point x="537" y="131" type="line"/>
      <point x="494" y="185"/>
      <point x="414" y="242"/>
      <point x="287" y="242" type="curve" smooth="yes"/>
      <point x="208" y="242"/>
      <point x="120" y="203"/>
      <point x="61" y="145" type="curve"/>
      <point x="110" y="47"/>
      <point x="203" y="-10"/>
    </contour>
  </outline>
</glyph>
